<svg width="88" height="87" fill="none" xmlns="http://www.w3.org/2000/svg"><path d="M80.411 24.348c9.9-7.48 6.258-19.434-4.473-23.027-11.318-3.25-17.111-.489-18.064 8.14-7.09-2.836-14.691-3.373-22.27.27-5.67-3.375-9.24-3.3-14.324-1.077-2.786-2.884-5.842-6.795-10.755-3.618-4.914 3.178-2.763 10.854-.66 13.91C3.851 27.402-1.331 34.271.306 38.99c7.799 13.03 12.59 23.516 13.592 29.407-1.564 0-2.64.025-3.838-.635 1.051 5.94 8.36 18.798 18.53 18.944 14.3 0 14.006-3.935 19.921-4.106 2.03 0 3.814 1.76 4.18 4.082C73.518 79.3 99.796 57.543 80.876 28.625c2.64-1.417 3.324-1.93 4.644-4.522-1.906.538-3.324.293-5.109.245Z" fill="#28282E"/><path d="M35.165 74.043c4.18-4.498 5.329-6.99 7.187-15.596 3.104 4.596 4.229 8.19 4.18 12.54-3.691 3.472-3.985 6.918-2.811 11.343-11.978 4.18-19.532 2.884-24.445-2.738 7.333.024 15.767 2.493 15.889-5.549Z" fill="#C9905E"/><path d="M31.327 85.41c-5.28 0-9.436-1.76-12.589-5.403l-.929-1.05h1.418c1.467 0 2.958.097 4.449.17 1.418.098 2.762.147 3.984.147 4.23 0 6.82-.88 6.894-5.28v-.269l.146-.17c4.083-4.45 5.207-6.845 7.04-15.303l.294-1.418.806 1.198c3.08 4.571 4.352 8.287 4.254 12.907v.293l-.171.171c-3.618 3.422-3.691 6.747-2.64 10.658l.146.562-.562.171c-4.791 1.81-8.898 2.616-12.54 2.616Zm-10.584-5.134c2.786 2.616 6.257 3.912 10.608 3.912 3.3 0 7.187-.758 11.563-2.25-1.125-4.79-.27-8.066 2.933-11.195.024-3.789-.929-6.967-3.227-10.658-1.686 7.382-2.982 10.022-6.868 14.251-.172 5.525-4.205 6.307-8.14 6.307-1.296 0-2.665-.098-4.107-.17-.905-.099-1.834-.148-2.762-.197Z" fill="#28282E"/><path d="M19.154 79.03c-3.545-2.518-5.036-5.085-6.38-8.36 4.84 3.03 7.137.93 9.215 5.158 0 0 3.056.268 4.767.268 1.931-3.69 4.107-1.808 5.769-6.306 3.3 6.87-.88 9.215-1.931 9.215l-11.44.025Z" fill="#fff"/><path d="M30.618 79.69h-11.66l-.146-.123c-3.594-2.542-5.207-5.157-6.6-8.653l-.758-1.833 1.662 1.026c1.931 1.198 3.373 1.54 4.693 1.858 1.81.44 3.3.807 4.596 3.251.782.05 2.689.171 4.058.245.929-1.614 1.93-2.15 2.835-2.665 1.027-.537 1.907-1.026 2.714-3.202l.513-1.393.636 1.32c1.93 4.106 1.368 6.673.513 8.066-.978 1.565-2.371 2.103-3.056 2.103Zm-11.244-1.296h11.292c.294 0 1.271-.415 1.907-1.466.61-1.003 1.026-2.714 0-5.525-.856 1.54-1.81 2.102-2.69 2.591-.88.49-1.686.93-2.517 2.47l-.171.366h-.367c-1.71 0-4.693-.27-4.815-.27l-.342-.024-.147-.317c-1.1-2.225-2.151-2.47-3.936-2.885-.928-.244-2.053-.513-3.422-1.149 1.1 2.396 2.542 4.327 5.207 6.21h.001Z" fill="#28282E"/><path d="M40.787 80.106c-2.175.806-4.889 1.93-8.849 0 1.785-.416 3.838-2.2 3.838-5.794 2.811-2.395 6.355-10.242 6.893-14.178.343.636 3.594 4.205 1.663 10.145-2.03 1.491-3.545 4.302-3.545 9.827Z" fill="#E9AD77"/><path d="M15.61 34.223c-1.711-3.764-4.351-1.417-6.112-7.455-1.27 1.637-2.908 5.622-.733 9.484-1.271-.098-2.518.49-2.591 2.787.147 3.202.733 4.18 2.469 6.991 1.173-4.596 2.518-4.449 6.551-6.99.587-1.395 1.124-2.86.416-4.817Z" fill="#E8AD76"/><path d="m8.912 47.594-.783-1.27c-1.76-2.86-2.42-3.936-2.566-7.334v-.025c.122-2.322 1.246-3.08 2.273-3.3-1.687-3.935 0-7.749 1.222-9.337l.758-.954.342 1.173c.93 3.203 2.054 3.814 3.251 4.474.93.513 2.005 1.075 2.836 2.884l.024.025c.807 2.224.123 3.935-.39 5.304l-.05.171-.17.098c-.783.513-1.467.904-2.079 1.271-2.517 1.442-3.324 1.931-4.228 5.378l-.44 1.442Zm-2.078-8.603c.122 2.59.513 3.57 1.662 5.475.978-2.786 2.176-3.52 4.4-4.79.562-.319 1.149-.66 1.882-1.15.514-1.295.93-2.517.342-4.155-.66-1.394-1.417-1.81-2.297-2.274-1.125-.61-2.42-1.32-3.447-3.984-.929 1.81-1.687 4.791 0 7.724l.611 1.027-1.149-.049h-.17c-.856.025-1.76.294-1.834 2.176Z" fill="#28282E"/><path d="M7.812 37.06c4.18 3.641 5.646.316 5.646-1.884-2.517 0-4.522-2.615-4.522-5.793-1.662 3.96.562 6.87 1.027 7.651-1.076-.098-1.59-.293-2.151.025Z" fill="#C88F5D"/><path d="M24.874 47.032c.17-1.222.684-2.347 1.442-2.787.244 3.667.782 5.085 3.055 8.14 1.174-5.548 1.1-4.595 3.96-10.022-7.26-2.59-18.186-6.16-24.126 2.762 1.149 4.278 1.76 4.474 4.766 7.212-1.368-6.038-.757-6.943-.146-8.018.904.782.782 1.93.513 2.737 1.027-.904 2.127-2.004 2.176-3.202.513-.17 3.544-.904 6.82.367.024 1.027 1.149 2.64 1.54 2.811Z" fill="#fff"/><path d="m15.022 54.145-1.466-1.32c-.27-.269-.562-.513-.807-.758-2.395-2.126-3.08-2.762-4.18-6.795l-.049-.293.147-.27c2.64-3.96 6.527-5.964 11.635-5.964 4.498 0 9.192 1.54 13.225 2.934l.684.268-.342.66a68.767 68.767 0 0 1-1.393 2.518c-1.516 2.763-1.59 2.91-2.542 7.334l-.27 1.393-.806-1.149c-2.004-2.738-2.713-4.204-3.031-6.869-.147.367-.245.782-.342 1.271l-.123.782-.733-.293c-.66-.269-1.638-1.76-1.882-2.933-1.1-.367-2.298-.538-3.471-.538-1.002 0-1.785.122-2.2.245-.27 1.295-1.394 2.37-2.347 3.202l-.88.758c.122.953.342 2.224.733 3.91l.44 1.907Zm11.832-10.974.048 1.026c.172 3.032.612 4.4 2.127 6.674.733-3.276 1.002-3.79 2.396-6.307.269-.513.61-1.075 1.002-1.833-3.789-1.32-8.067-2.64-12.125-2.64-4.595 0-8.042 1.71-10.462 5.157.856 3.08 1.37 3.716 3.08 5.354-.855-4.498-.293-5.476.27-6.478l.39-.758.562.49c.49.415.783.953.88 1.564.392-.514.758-1.052.783-1.614l.024-.415.367-.147c.39-.147 1.564-.416 2.982-.416 1.467 0 2.909.27 4.278.783l.39.146v.44c0 .416.27 1.027.563 1.492.293-.93.807-1.638 1.442-2.005l1.003-.513Zm-12.932 2.566a7.482 7.482 0 0 0-.122 1.003c.098-.27.171-.66.122-1.003Z" fill="#28282E"/><path d="M26.707 39.357c-2.517 0-10.73-2.518-4.229-7.09 1.516-1.05 8.067-5.133 3.912-12.148 17.037 7.993 17.453 16.818 15.4 27.72-4.89-5.647-8.825-7.578-15.083-8.482Z" fill="#E8AD75"/><path d="m42.156 49.281-.855-.953c-4.571-5.305-8.287-7.382-14.667-8.287-1.76-.024-6.356-1.149-7.138-3.69-.415-1.468.416-3.008 2.591-4.523l.22-.147c.88-.61 2.714-1.858 3.814-3.764 1.369-2.25 1.246-4.718-.294-7.358l-1.05-1.76 1.833.88c8.14 3.79 12.955 7.92 15.18 13.078 2.126 4.913 1.54 10.29.61 15.375l-.244 1.15Zm-14.373-27.72c1.638 4.107.024 7.847-4.718 11.171l-.22.147c-1.149.807-2.444 1.98-2.127 3.08.514 1.613 4.23 2.787 5.99 2.787h.097c3.422.49 5.989 1.27 8.262 2.517 2.127 1.198 4.205 2.86 6.356 5.256.855-5.084 1.002-9.338-.733-13.322-1.932-4.498-6.063-8.214-12.907-11.636Z" fill="#28282E"/><path d="M64.694 56.247c3.3-2.664 4.693-4.497 6.648-7.993-1.148 6.43-2.957 9.07-7.26 13.078 9.485.244 26.034-17.625 14.936-33.025 1.784-.415 3.838-1.76 4.962-2.933-2.909-.049-3.813-.269-5.67-.953 7.772-4.45 8.824-11.685-.685-17.527 2.86.05 4.693 1.051 6.16 2.2-2.91-7.48-20.362-11.83-22.025 1.15 1.467 1.76 3.056 3.201 3.96 5.377-10.364-9.41-31.9-10.585-37.229 4.84 4.278 2.884 5.33 3.544 6.43 5.01 1.441 1.174 3.226 2.52 4.473 4.5 3.569 1.881 5.548 4.692 5.548 10.314 17.185 3.007 19.214 11.734 19.776 16.182" fill="#AA7342"/><path d="M64.278 61.65h-.171l-.782-.025.562-.538c3.838-3.642 5.647-6.037 6.795-11.073-1.466 2.347-2.909 4.082-5.622 6.331l.025.294-.49.048-.146.025-.024-.293-.171-.27.122-.122c-1.638-11.195-11.88-14.25-19.483-15.595l-.244-.025v-.268c0-5.085-1.564-8.018-5.402-10.023l-.049-.024-.025-.049c-1.124-1.809-2.688-3.056-4.082-4.156l-.366-.317c-1.003-1.32-1.932-1.956-5.403-4.303l-1.149-.782.098-.244c2.47-7.21 8.067-10.047 12.32-11.196 7.822-2.078 17.674.098 24.127 5.207-.611-.929-1.296-1.736-2.053-2.616-.367-.415-.758-.83-1.1-1.295l-.098-.098.024-.122c.636-4.865 3.496-7.87 8.091-8.458 5.867-.758 12.76 2.713 14.545 7.26l.391 1.051-.904-.66c-1.125-.88-2.567-1.76-4.743-2.078 3.911 2.665 5.94 5.72 5.916 8.85-.025 3.03-2.053 5.915-5.671 8.164 1.418.49 2.395.66 4.962.71h.733l-.513.512c-1.002 1.051-2.836 2.347-4.645 2.91 4.254 6.16 4.645 13.37 1.125 20.385-3.667 7.187-11 12.883-16.5 12.883Zm7.7-15.13-.293 1.807c-1.125 6.234-2.934 8.996-6.747 12.663 5.231-.416 11.855-5.794 15.18-12.394 2.029-4.033 4.522-11.953-1.369-20.069l-.269-.39.49-.098c1.515-.367 3.201-1.394 4.252-2.347-2.322-.049-3.25-.318-5.01-.953l-.66-.245.61-.367c3.814-2.2 5.916-5.01 5.99-7.993.048-3.178-2.274-6.307-6.65-8.995L76.5 6.527l1.15.025c2.395.024 4.081.758 5.328 1.54-2.298-3.765-8.213-6.429-13.322-5.769-2.47.318-6.747 1.736-7.53 7.773.343.391.66.783 1.003 1.174 1.149 1.295 2.2 2.517 2.909 4.18l.538 1.32-1.027-.93c-6.258-5.695-16.695-8.26-24.811-6.086-4.082 1.076-9.387 3.79-11.807 10.536l.758.513c3.496 2.371 4.473 3.031 5.524 4.4l.294.27c1.418 1.148 2.958 2.37 4.18 4.228 3.911 2.102 5.598 5.206 5.647 10.29 16.94 3.056 19.164 11.93 19.677 15.72 3.031-2.543 4.351-4.377 6.136-7.53l.831-1.662Z" fill="#28282E"/><path d="M37.805 43.072c-3.79-2.395-5.33-3.569-11.098-4.375-3.985-.44-8.751-2.543-4.058-5.72 3.569-2.714 6.893-4.865 5.207-11.39 5.769 4.912 6.38 10.143 6.282 11.61 2.42 3.911 3.276 6.135 3.667 9.875Z" fill="#C78E5C"/><path d="M27.44 30.703c.245 4.278 1.15 4.987 5.158 8.36-1.784-.782-2.151-.782-5.524-1.27-2.396-.172-5.256-1.223-5.256-2.543.367-1.516 3.202-2.542 5.622-4.547Z" fill="#B27A50"/><path d="M25.778 22.417c-.562-2.347-8.555-7.065-13.933-.636 4.376-2.738 10.633-2.249 10.976 3.545 1.026 3.226 3.886-.294 2.957-2.91v.001Z" fill="#28282E"/><path d="M25.534 21.854c-.562-2.347-9.68-7.26-13.762 0 3.666-4.449 11.66-2.59 12.05 3.202.563 2.64 2.665-1.075 1.712-3.275" fill="#5D3D21"/><path d="M55.869 29.065c1.907-3.08 5.99-9.338-1.515-16.964 15.082 5.158 29.382 22.977 21.56 36.79-.22-1.713 1.369-6.357-2.983-9.584.294 6.967-2.004 9.583-5.402 13.91 4.596-12.15-3.202-17.332-11.66-24.152Z" fill="#BD8658"/><path d="M71.489 2.274c-3.3 0-5.402 8.042-5.89 12.442-.392-1.173-1.956-2.835-3.594-4.644.66-2.567 1.125-7.7 9.484-7.798Z" fill="#905D31"/><path d="M71.929 2.372c4.62.318 9.558 3.056 10.951 5.696-1.784-1.198-3.373-1.394-6.062-1.49C92.854 17.11 78.48 27.06 71.709 20.24c-.073-.073 7.456-3.618.22-17.869Z" fill="#BC8557"/><path d="M28.834 20.241c3.275 1.858 4.79 3.422 6.062 5.744 1.833 1.638 2.762 2.371 3.984 3.985 3.545 1.71 6.43 4.277 6.43 9.973 9.166 1.613 16.28 5.158 19.188 13.518 1.271-8.018-4.693-13.03-15.449-15.79-1.442-2.275-2.346-5.5-1.124-8.044.489-1.148 1.1-3.128 5.818-3.006 1.1.024 1.54-.758 1.784-1.198 3.08-5.647.513-14.104-12.907-8.604-2.077-1.027-3.104-3.056-1.906-7.09-4.67 1.32-9.534 4.058-11.88 10.512Z" fill="#905D31"/><path d="M36.509 21.072c4.743 1.198 6.112 5.427 11.978 1.858L36.51 21.071l-.001.001Z" fill="#281A11"/><path d="M44.381 24.494c-1.565 0-2.787-.757-4.107-1.54-1.125-.66-2.298-1.393-3.813-1.735l.048-.318c1.59.391 2.812 1.15 3.912 1.81 2.297 1.392 4.106 2.468 7.968.097l.147.293c-1.662 1.002-3.007 1.393-4.155 1.393Z" fill="#28282E"/><path d="M36.509 21.071c9.949-3.152 11.244.93 16.109 3.936l-16.109-3.935Z" fill="#281A11"/><path d="M52.496 25.13c-1.051-.636-1.956-1.345-2.836-2.005-3.055-2.395-5.475-4.302-13.15-1.857l-.099-.318c7.847-2.518 10.463-.44 13.42 1.882.856.66 1.76 1.393 2.811 2.005l-.146.293Z" fill="#281A11"/><path d="M41.496 20.485c-2.078 0-4.351.391-4.522.49 3.618-1.419 5.647-4.84 12.32-5.305-7.382 1.686-7.48 4.326-7.798 4.815Z" fill="#281A11"/><path d="m37.023 21.097-.122-.294s.024-.024.049-.024c1.173-.49 2.2-1.174 3.3-1.883 2.15-1.442 4.57-3.08 9.044-3.422l.024.318c-6.355 1.442-7.21 3.642-7.529 4.45-.048.121-.097.268-.146.317l-.025.05h-.122c-1.955 0-4.082.316-4.449.44l-.024.048Zm9.802-4.938c-2.909.61-4.742 1.857-6.429 3.03a36.18 36.18 0 0 1-2.2 1.394c.88-.122 2.029-.244 3.202-.244.025-.05.05-.123.098-.17.269-.784.978-2.568 5.329-4.01Z" fill="#281A11"/><path d="M45.644 22.6c.15-.617-.336-1.264-1.083-1.445-.748-.18-1.476.172-1.625.788-.15.617.335 1.264 1.083 1.445.748.181 1.475-.172 1.625-.788Z" fill="#fff"/><path d="M44.706 22.426c.142-.605-.384-1.244-1.173-1.428-.789-.183-1.543.158-1.683.763-.141.605.384 1.244 1.173 1.427.79.184 1.543-.158 1.684-.762h-.001Z" fill="#28282E"/><path d="M33.771 11.343c-2.077 1.711-4.253 5.696-5.402 8.58-6.82-1.76-1.149-8.946-13.346-4.84 6.649-7.26 17.77-7.48 18.748-3.74Z" fill="#AA7341"/><path d="m28.467 20.143-.122-.024c-2.762-.71-3.496-2.274-4.204-3.642-.66-1.345-1.174-2.396-3.374-2.396-1.369 0-3.202.415-5.67 1.271l-.563.171.391-.44c4.18-4.595 9.9-6.233 13.567-6.233 2.933 0 5.035.953 5.45 2.542l.025.098-.122.024c-2.078 1.687-4.229 5.623-5.378 8.531v.098Zm-7.724-6.429c2.395 0 2.982 1.271 3.666 2.616.636 1.295 1.37 2.762 3.838 3.447 1.174-2.86 3.251-6.723 5.33-8.458-.416-1.345-2.396-2.2-5.134-2.2-3.471 0-8.85 1.466-12.907 5.646 2.273-.708 3.96-1.05 5.207-1.05Z" fill="#281A11"/></svg>