<svg viewBox="0 0 51 73" fill="none" xmlns="http://www.w3.org/2000/svg"><g clip-path="url(#a)"><path d="M43.034 31.51c1.123-.372 1.536-.347 3.214-.8-8.684-4.973-12.202-9.528-20.062-7.063.479-7.516.156-16.389-12.367-14.237-1.168-1.84-1.42-1.258-1.907-7.556-3.595 5.11-3.883 5.94-4.368 10.242 4.083 7.96-6.264 15.234-6.216 23.326.352 19.192 7.527 28.573 22.35 29.46 10.607 1.102 21.021.204 22.157-3.18 1.816-3.124 2.043-5.716 1.981-9.393.886-2.667 2.272-5.367.068-10.722.994-3.79.51-6.635-4.85-10.077Z" fill="#281A11"/><path d="M36.631 36.522c-1.009 1.948-1.072 3.88-.166 4.354 3.307-2.364 5.016-5.254 3.63-11.616l-.015.072c-5.673-5.136-13.34-4.878-15.884-2.07-2.068 2.303-2.273 3.828-4.587 7.633 1.001.448 1.846.562 2.897 2.09-2.138-4.722 2.734-8.09 4.695-8.244-2.668 3.491-6.753 8.288 1.728 11.605.838.218 1.026-1.884.51-2.292-.79-.676-4.198-1.5-3.724-4.055l-.072-.015c5.758 3.027 10.562 2.209 13.554-.446-.38 2.017-1.357 2.555-2.549 3.048" fill="#AA7340"/><path d="M42.493 32.921c3.867 3.06 3.316 6.73 2.408 8.036-.278 4.828-3.81 6.98-4.003 6.895.195-1.181.487-2.252.363-3.484.614-.371 1.365-1.12 2.095-2.584-1.805.864-3.408 1.981-5.488.286.04.023 4.733-1.723 4.67-8.853M42.42 49.493c.152.061 3.072-1.206 3.745-6.586.868 7.22-3.068 10.028-4.103 11.367.205-1.526.52-2.637.358-4.781ZM41.212 59.497c-1.341-.322-2.899-.312-4.206-1.019 1.301-2.506 7.298-.877 8.758-5.34.666 6.59-2.772 9.229-6.499 9.757.43-.424 1.438-1.483 1.947-3.398Z" fill="#AA7340"/><path d="M40.12 29.356c-4.2-3.038-6.237-3.684-9.944-3.846-1.293 2.538-1.208 6.687.292 7.479 2.9 1.85 5.24 1.594 8.67.326.946.497.9 3.518-.817 5.863 2.193-1.96 2.802-5.032 1.8-9.822ZM41.695 41.788c.67-1.309 2.926-4.688.79-8.899 2.043 1.944 3.126 3.465 2.95 6.248-.802 1.071-1.736 1.768-3.74 2.651ZM45.804 53.16c.668 8.13-4.426 9.13-4.75 9.32.3-.15 3.41-2.87 3.644-7.482.75-.75.965-1.218 1.1-1.733M45.285 46.36c.253 1.846-.42 3.908-1.475 5.937 1.443-2.1 2.941-4.76 2.355-9.39-.079.979-.337 2.177-.88 3.452Z" fill="#BC8456"/><path d="M31.526 38.243c.644 4.34-3.097 7.368-3.097 7.368 1.925-.417 4.817-1.916 6.644-8.19-1.207.566-2.119.71-3.547.822ZM32.987 51.527c.64-.651 4.92-4.338 3.754-7.956 1.33 1.044 2.144 1.302 3.634 1.037-.004 3.557-3.316 5.136-7.388 6.92ZM37.287 52.007c-.701 2.72-3.99 4.771-5.342 5.684 3.29-.513 8.983-2.324 9.44-6.86-1.599.877-1.98.844-4.098 1.176ZM30.886 63.79c1.861-.4 3.23-1.249 5.31-3.76 1.5.792 2.594.565 3.223.634-1.91 2.26-5.274 3.135-8.556 3.166" fill="#59595A"/><path d="M33.636 38.015c-.518 3.286-.96 4.431-3.021 6.63 1.565-1.005 3.101-2.753 4.49-7.232-.568.29-.853.367-1.47.602ZM39.113 44.709c.143 1.431-.855 3.035-2.749 4.846 1.46-1.147 2.533-2.086 3.868-4.977-.182.083-.713.124-1.119.13ZM39.016 51.745c-.146 1.237-.192 1.83-2.16 3.49 1.487-.914 2.114-.98 3.49-3.849a6.274 6.274 0 0 1-1.33.36ZM37.078 60.408c-.464.809-.767 1.198-2.725 2.514 2.026-1.06 2.393-.954 3.698-2.298-.198.019-.549-.023-.973-.216Z" fill="#fff"/><path d="M13.483 13.125C9.634 10.643 11.4 4.01 11.4 4.01 10.294 6.36 7.24 10.058 10.82 16c.921-1.514 1.478-1.972 2.663-2.874Z" fill="#59595A"/><path d="M12.635 13.765c-2.848-2.035-2.567-4.3-2.223-7.47-.652 1.886-2.56 5.171.419 9.36.474-.642 1.003-1.332 1.804-1.89Z" fill="#fff"/><path d="M34.799 59.108c-3.577.966-6.803.572-7.193-.896l.264.1c3.283-1.434 5.069-3.01 6.662-5.185-2.912.787-5.466.622-5.72-.336 2.7-1.584 4.804-4.512 5.391-7.92-2.154 4.276-11.265 3.693-11.545 2.64 2.722-.735 4.497-2.992 3.945-5.066-5.546.575-4.652-5.89-8.991-6.77-3.359-.256-2.739-.731-1.257-2.431 9.551-9.248 7.952-20.751 1.248-20.445-5.044.165-4.582 5.478-5.401 8.777-.173-1.287-.764-2.872-2.1-5.349.717 3.465.016 5.296-.364 6.8-.262 1.952-2.909 5.266-3.393 6.252-3.8 7.148-.723 21.021 4.334 21.536l-.239-.004c2.299 8.647 15.954 16.244 24.359 8.297Z" fill="#A9733F"/><path d="M34.532 53.127c-2.557 3.016-3.814 3.903-6.83 5.196 1.268 2.086 4.893 1.175 6.978.852-4.6 4.388-11.621 4.267-17.482.344 8.776.468 8.948-2.075 10.478-4.232-.855.23-2.301-2.148-.383-4.376-5.014 1.046-8.633-2.867-6.524-5.146-3.335.73-6.678-6.233-5.486-10.556 7.91.531 4.752 8.052 11.32 7.236.478 2.435-1.438 4.287-3.945 5.066 1.498 1.169 9.585 1.345 11.547-2.503-1.273 4.653-2.767 5.672-5.371 7.743.109.792 2.495 1.344 5.698.376Z" fill="#905D31"/><path d="M12.24 21.463c3.041-7.319 9.73-8.955 10.833-1.49.077-5.834-3.556-7.76-6.088-7.075-4.028 1.053-4.065 3.594-4.792 8.646M16.4 55.494c1.599.526 3.652-.302 3.896-2.317.49-2.116-3.176-5.058-8.687-4.733 4.817-5.233-3.534-7.423-6.104-17.09-1.763 5.365-.407 17.994 4.956 19.281 2.227 3.913 3.663 4.209 5.94 4.86Z" fill="#BB8355"/><path d="M18.19 30.833c5.04-5.67 5.943-12.103 2.746-15.07.936 4.672 1.508 6.056-2.617 15.172" fill="#905D31"/><path d="M15.706 28.632c4.051-1.095 5.871-2.544 7.21-7.077.085 3.636-3.238 8.364-5.56 10.735 1.18-1.687-.107-3.083-1.65-3.658Z" fill="#271911"/></g><defs><clipPath id="a"><path fill="#fff" d="M0 0h51v73H0z"/></clipPath></defs></svg>