<svg xmlns="http://www.w3.org/2000/svg" fill="none" viewBox="0 0 106 27"><g clip-path="url(#a)" fill="#3663E0"><path d="M41.16.025c0 .128.025.255.025.357v19.62H15.841c-.262 0-.418.076-.601.229L8.506 26.72c-.079.076-.183.153-.314.28V12.24h.34c.913 0 1.853.051 2.74-.05 2.088-.255 3.524-1.655 3.864-3.716.182-1.12.104-2.24-.418-3.283-.731-1.45-1.958-2.29-3.602-2.366-2.01-.077-4.046-.026-6.082-.051-.052 0-.13 0-.209.025v17.178H.31V0c13.625.025 27.25.025 40.85.025Zm-10.337 16.77c.313-.05.965-.101 1.592-.28 1.958-.585 3.315-1.806 3.733-3.817.391-1.985-.157-3.715-1.828-5.013-2.062-1.603-5.324-1.654-7.465-.127-2.375 1.654-2.845 5.039-1.018 7.227 1.201 1.425 2.82 1.96 4.986 2.01Zm-13.887-.28H20.2v-.407c.026-1.323-.026-2.646.052-3.97.079-1.348.914-2.239 2.245-2.442.392-.051.81 0 1.227 0V6.515c-.34.025-.679.025-.992.101-1.2.28-1.984 1.044-2.454 2.163-.052.102-.104.179-.156.28-.026 0-.052-.025-.078-.025v-2.29H16.91c.026 3.232.026 6.489.026 9.771Zm88.565-1.272c-1.801 1.527-3.89 1.96-6.16 1.4-2.506-.61-4.099-2.748-3.968-5.242.13-2.545 1.932-4.504 4.515-4.886 1.514-.23 2.976-.076 4.333.662.339.203.653.458.992.712-.496.789-.992 1.527-1.435 2.214-.522-.254-.992-.534-1.514-.738-.522-.204-1.096-.204-1.671-.076-1.122.28-1.801 1.247-1.749 2.443.052 1.145.888 2.112 2.01 2.29 1.175.204 2.141-.28 3.054-.916.105-.076.183-.153.313-.23.418.79.835 1.528 1.254 2.291.026.026.026.051.026.076Zm-35.812 1.374v-1.196l-.261.255c-1.201 1.298-3.42 1.552-4.855.585-1.593-1.043-1.88-3.639.052-4.86.966-.586 2.036-.84 3.132-.942.522-.05 1.044-.076 1.566-.102.13-.56-.182-1.043-.783-1.17-.94-.23-1.827.05-2.662.432-.261.127-.522.28-.81.433a99.289 99.289 0 0 0-1.2-2.341c.835-.586 1.749-.917 2.715-1.12 1.252-.255 2.505-.305 3.732.153 1.514.56 2.401 1.68 2.454 3.231.078 2.164.026 4.352.026 6.54 0 .026-.026.051-.026.102h-3.08Zm-.287-4.275c-.627-.102-1.619.051-2.115.306-.496.254-.705.661-.548 1.12.13.406.6.635 1.123.559.94-.127 1.618-.992 1.54-1.985ZM47.685 5.675h-4.333V2.774h12.111V5.65h-4.306v10.967h-3.472V5.675Zm27.981 10.942V9.441h-1.227V6.82h1.253c0-.306-.026-.61 0-.89.156-1.502 1.018-2.47 2.48-2.927 1.044-.331 2.114-.382 3.236-.255v2.774c-.418.025-.809.025-1.2.076-.235.026-.496.128-.705.23-.366.203-.392.56-.366.966h1.853v2.622h-1.853v7.176c-1.148.025-2.297.025-3.471.025ZM89.03 2.723v2.774c-.496.05-.966.05-1.435.152-.679.128-.862.458-.81 1.146h1.854V9.44h-1.853v7.176H83.34V9.441h-1.253V6.82h1.253v-.458c.052-1.832.861-2.85 2.662-3.41.94-.305 1.958-.33 3.028-.23ZM55.646 6.642h3.263v2.265c.705-1.578 1.827-2.52 3.654-2.443v3.308c-.418 0-.835-.051-1.227 0-1.253.178-2.088.967-2.192 2.214-.105 1.145-.052 2.316-.079 3.486v1.145h-3.419V6.642Zm37.978 9.975h-3.42V6.642h3.42v9.975Z"/><path d="M8.166 9.492V5.599c.079 0 .157-.026.235-.026.47 0 .966.026 1.436 0 1.436-.05 2.036.865 1.984 2.061-.052 1.196-.757 1.858-1.984 1.858h-1.67Zm85.406-4.148h-3.341v-2.57h3.341v2.57ZM32.911 11.63c-.026-.967-.391-1.782-1.33-2.265-1.097-.56-2.428-.204-3.08.789-.732 1.12-.497 2.723.495 3.46.783.586 1.67.662 2.558.255.966-.433 1.331-1.247 1.357-2.24Z"/><path d="M32.911 11.63c-.026.992-.391 1.806-1.331 2.264-.888.433-1.775.331-2.558-.254-.992-.738-1.227-2.367-.496-3.46.652-.993 1.984-1.35 3.08-.79.914.458 1.253 1.273 1.305 2.24Z"/></g><defs><clipPath id="a"><path fill="#fff" d="M0 0h106v27H0z"/></clipPath></defs></svg>