<svg viewBox="0 0 219 99" fill="none" xmlns="http://www.w3.org/2000/svg"><path d="M15.567 12.619 0 49.834h13.552l8.756-20.981-6.742-16.234Zm53.86 0L53.858 49.834H67.41l8.756-20.98-6.74-16.235ZM42.67 28.785l-6.81-16.166-6.741 16.166-8.826 21.05L27.103 66l8.757-20.981 2.015 4.815h13.552l-8.757-21.05Zm31.482 21.05h10.841l-5.42-12.933-5.421 12.932Zm23.35-18.643c0-3.784 3.128-6.879 6.95-6.879.556 0 1.042.07 1.529.207l4.795-11.488c-2.015-.688-4.1-1.032-6.393-1.032-10.772 0-19.46 8.598-19.46 19.26 0 7.637 4.448 14.24 10.981 17.336l4.795-11.488c-1.876-1.307-3.197-3.44-3.197-5.916Zm10.077 5.64-5.42 13.002H113l-5.421-13.001ZM49.956 64.433h.834L47.312 57h-.834L43 64.434h.835l.904-1.96h4.243l.974 1.96Zm-4.87-2.636 1.809-3.986 1.808 3.986h-3.616Zm13.911-4.121v-.675h-5.216v7.432h.834v-3.176h3.965v-.676h-3.965v-2.905h4.382Zm8.625 0v-.675h-5.217v7.432h.835v-3.176h3.965v-.676H63.24v-2.905h4.382Zm3.478 6.757h.834V57H71.1v7.433Zm5.007 0h5.078v-.676h-4.243V57h-.835v7.432Zm8.138 0h.835V57h-.835v7.433Zm10.781 0h.835L92.383 57h-.765l-3.477 7.433h.834l.904-1.96h4.243l.904 1.96Zm-4.868-2.636 1.808-3.986 1.808 3.986h-3.617Zm9.807 2.636h.834v-6.757h2.712v-.675h-6.259v.675h2.713v6.757Zm7.303-.676v-2.77h3.964v-.676h-3.964v-2.635h4.451v-.675h-5.217v7.432h5.426v-.676h-4.66ZM47.521 75.65c.556 0 1.113-.068 1.6-.27a3.95 3.95 0 0 0 1.251-.811l-.486-.473c-.557.608-1.322.878-2.226.878-.626 0-1.182-.135-1.67-.405-.486-.27-.904-.609-1.182-1.081a3.07 3.07 0 0 1-.417-1.554c0-.609.139-1.081.417-1.554.278-.473.696-.811 1.183-1.082.486-.27 1.043-.405 1.669-.405.904 0 1.67.27 2.226.878l.486-.473a3.96 3.96 0 0 0-1.251-.81c-.487-.203-.975-.27-1.6-.27-.765 0-1.46.135-2.017.473-.626.337-1.113.743-1.46 1.35-.349.609-.487 1.217-.487 1.96 0 .743.138 1.352.486 1.96.348.608.835 1.013 1.46 1.35.627.203 1.253.339 2.018.339Zm9.46 0c.764 0 1.46-.136 2.016-.473.626-.338 1.113-.743 1.46-1.352.349-.608.557-1.216.557-1.959 0-.743-.208-1.352-.556-1.96-.348-.608-.835-1.013-1.46-1.35-.627-.338-1.322-.474-2.018-.474-.765 0-1.46.136-2.087.473a3.97 3.97 0 0 0-1.46 1.352c-.348.54-.487 1.216-.487 1.96 0 .742.14 1.35.487 1.959a3.97 3.97 0 0 0 1.46 1.351c.627.337 1.322.473 2.087.473Zm0-.676c-.627 0-1.183-.135-1.67-.405-.487-.27-.904-.609-1.182-1.081a3.068 3.068 0 0 1-.418-1.554c0-.609.14-1.081.418-1.554.278-.473.695-.811 1.182-1.082.487-.27 1.043-.405 1.67-.405.625 0 1.181.135 1.599.405.467.252.853.626 1.113 1.082.278.473.417 1.013.417 1.554 0 .608-.139 1.08-.417 1.553-.26.456-.646.83-1.113 1.082-.487.27-.974.405-1.6.405Zm13.145-6.756v6.013l-4.939-6.013h-.695v7.432h.834v-6.014l4.87 6.014h.695v-7.432h-.765Zm10.224.675v-.675h-5.216v7.432h.834v-3.176h3.965v-.676h-3.965v-2.905h4.382Zm4.243 6.08v-2.769h3.965v-.676h-3.965v-2.635h4.451v-.675h-5.216v7.432h5.425v-.676h-4.66Zm14.328.677-1.878-2.568c.557-.202.974-.473 1.322-.878.278-.406.487-.879.487-1.486 0-.811-.279-1.42-.835-1.892-.556-.473-1.321-.676-2.295-.676H92.87v7.432h.835v-2.365h2.642l1.74 2.365h.834v.068Zm-3.27-3.04h-2.016v-3.717h2.017c.765 0 1.322.135 1.74.473.417.338.625.811.625 1.352 0 .608-.208 1.013-.626 1.35-.417.406-.974.541-1.74.541Zm7.583 2.364v-2.77h3.964v-.676h-3.964v-2.635h4.451v-.675h-5.217v7.432h5.425v-.676h-4.659Zm13.771-6.756v6.013l-4.938-6.013h-.696v7.432h.835v-6.014l4.869 6.014h.695v-7.432h-.765Zm8.347 7.432c.556 0 1.113-.068 1.599-.27a3.94 3.94 0 0 0 1.252-.811l-.486-.473c-.557.608-1.322.878-2.226.878-.626 0-1.182-.135-1.67-.405-.486-.27-.904-.609-1.182-1.081a3.07 3.07 0 0 1-.417-1.554c0-.609.139-1.081.417-1.554.278-.473.696-.811 1.182-1.082.488-.27 1.044-.405 1.67-.405.904 0 1.669.27 2.226.878l.486-.473a3.944 3.944 0 0 0-1.252-.81c-.486-.203-.974-.27-1.599-.27-.765 0-1.461.135-2.017.473-.627.337-1.113.743-1.461 1.35-.348.609-.487 1.217-.487 1.96 0 .743.139 1.352.487 1.96.348.608.834 1.013 1.461 1.35a6.286 6.286 0 0 0 2.017.339Zm7.094-.676v-2.77h3.965v-.676h-3.965v-2.635h4.452v-.675h-5.217v7.432h5.426v-.676h-4.661ZM61.571 87c.834 0 1.53-.135 2.226-.473.625-.338 1.182-.81 1.53-1.352a4.038 4.038 0 0 0 .556-2.027c0-.743-.209-1.418-.556-2.026a3.26 3.26 0 0 0-1.53-1.352c-.627-.338-1.392-.473-2.226-.473-.835 0-1.53.135-2.226.473-.626.338-1.182.811-1.53 1.352a4.031 4.031 0 0 0-.556 2.026c0 .744.208 1.42.556 2.028.348.6.885 1.073 1.53 1.351a5.65 5.65 0 0 0 2.226.473Zm0-2.027c-.348 0-.626-.068-.835-.203a1.223 1.223 0 0 1-.626-.675 2.108 2.108 0 0 1-.209-.947c0-.405.07-.675.21-.945.138-.27.347-.473.625-.676.258-.13.544-.2.835-.203.348 0 .626.068.834.203.279.135.487.338.626.676.14.27.21.608.21.945 0 .406-.07.677-.21.947-.139.27-.347.473-.626.675-.208.135-.556.203-.834.203ZM71.378 87c.765 0 1.391-.135 1.948-.338.556-.203.904-.54 1.182-.878.278-.406.417-.811.417-1.284 0-.54-.139-.946-.417-1.284-.278-.338-.626-.54-1.043-.675a7.695 7.695 0 0 0-1.461-.338c-.417-.068-.765-.135-.974-.27-.209-.068-.278-.203-.278-.338 0-.338.348-.473.973-.473.696 0 1.392.203 2.157.54l.765-1.824c-.417-.203-.835-.406-1.322-.473-.487-.135-1.043-.135-1.53-.135-.765 0-1.391.135-1.948.338-.556.202-.903.54-1.182.878-.278.406-.417.81-.417 1.284 0 .54.139.945.417 1.283.278.339.626.541 1.043.676.418.136.905.27 1.461.406.487.067.765.202.974.27.209.067.278.203.278.338s-.07.202-.208.27c-.14.068-.418.068-.765.068-.418 0-.835-.068-1.322-.203-.418-.135-.835-.27-1.252-.473l-.834 1.824c.417.203.903.405 1.46.54.626.203 1.252.271 1.878.271Zm10.015 0c.766 0 1.392-.135 2.017-.406.557-.27 1.044-.607 1.461-1.08l-1.6-1.42c-.486.609-1.043.879-1.669.879-.556 0-.974-.135-1.322-.473-.347-.338-.486-.81-.486-1.352 0-.54.139-1.013.487-1.35.347-.339.765-.474 1.321-.474.626 0 1.183.27 1.67.879l1.6-1.42a2.946 2.946 0 0 0-1.462-1.08c-.556-.27-1.251-.406-2.017-.406-.834 0-1.53.135-2.156.473-.625.338-1.182.811-1.53 1.352a4.037 4.037 0 0 0-.556 2.026c0 .744.209 1.42.556 2.028a3.26 3.26 0 0 0 1.53 1.351c.626.338 1.322.473 2.156.473Zm9.738 0c.835 0 1.53-.135 2.226-.473.626-.338 1.183-.81 1.53-1.352a4.038 4.038 0 0 0 .556-2.027c0-.743-.208-1.418-.556-2.026a3.255 3.255 0 0 0-1.53-1.352c-.626-.338-1.391-.473-2.226-.473-.834 0-1.53.135-2.226.473-.625.338-1.182.811-1.53 1.352a4.036 4.036 0 0 0-.556 2.026c0 .744.209 1.42.556 2.028a3.26 3.26 0 0 0 1.53 1.351c.696.27 1.392.473 2.226.473Zm0-2.027c-.348 0-.626-.068-.834-.203a1.224 1.224 0 0 1-.627-.675 2.108 2.108 0 0 1-.208-.947c0-.405.07-.675.208-.945.14-.27.348-.473.627-.676.258-.13.544-.2.834-.203.348 0 .626.068.835.203.278.135.487.338.626.676.139.27.208.608.208.945 0 .406-.07.677-.208.947-.14.27-.348.473-.626.675-.209.135-.487.203-.835.203Zm16.693-5.54-1.391 4.256-1.321-4.257h-2.365l-1.392 4.19-1.321-4.19h-2.643l2.434 7.433h2.782l1.322-3.987 1.252 3.987h2.782l2.435-7.433h-2.574Zm13.146 5.472 1.113-.946c.487-.472.834-.878 1.043-1.216.209-.338.278-.743.278-1.148 0-.473-.139-.879-.417-1.216a2.763 2.763 0 0 0-1.113-.811c-.487-.203-.974-.27-1.6-.27-.765 0-1.46.134-2.017.472-.556.338-.974.743-1.252 1.284l1.948.946c.139-.203.278-.405.487-.54.208-.135.417-.203.626-.203.208 0 .417.067.556.135.139.135.209.27.209.405s-.07.27-.14.473a1.56 1.56 0 0 1-.486.54l-2.783 2.5v1.555h6.121v-1.96h-2.573ZM129.247 87c.695 0 1.252-.135 1.808-.473a4.007 4.007 0 0 0 1.252-1.352c.278-.607.418-1.283.418-2.094 0-.81-.14-1.486-.418-2.094-.278-.608-.695-1.014-1.252-1.352-.487-.338-1.113-.473-1.808-.473-.696 0-1.253.135-1.809.473a4.005 4.005 0 0 0-1.252 1.352c-.278.608-.417 1.283-.417 2.094 0 .81.139 1.487.417 2.094.279.609.696 1.014 1.252 1.352.556.338 1.113.473 1.809.473Zm0-2.027c-.557 0-.904-.608-.904-1.892 0-1.284.278-1.892.904-1.892.556 0 .904.608.904 1.892 0 1.284-.348 1.892-.904 1.892Zm9.25-.068 1.113-.946c.487-.472.835-.878 1.043-1.216.209-.338.279-.743.279-1.148 0-.473-.14-.879-.418-1.216a2.76 2.76 0 0 0-1.112-.811c-.487-.203-.974-.27-1.6-.27-.765 0-1.461.134-2.017.472-.557.338-.974.743-1.252 1.284l1.947.946c.139-.203.278-.405.487-.54.209-.135.417-.203.626-.203.209 0 .418.067.557.135.139.135.208.27.208.405s-.069.27-.139.473a1.555 1.555 0 0 1-.487.54l-2.782 2.5v1.555h6.121v-1.96h-2.574Zm7.93 0 1.112-.946c.487-.472.835-.878 1.044-1.216.209-.338.278-.743.278-1.148 0-.473-.139-.879-.417-1.216a2.763 2.763 0 0 0-1.113-.811c-.487-.203-.974-.27-1.6-.27-.765 0-1.461.134-2.017.472-.557.338-.974.743-1.252 1.284l1.948.946c.139-.203.278-.405.486-.54a1.15 1.15 0 0 1 .627-.203c.208 0 .417.067.556.135.139.135.208.27.208.405s-.069.27-.139.473a1.56 1.56 0 0 1-.486.54l-2.783 2.5v1.555H149v-1.96h-2.573Zm-92.925 1.892-1.39-4.256-1.322 4.256h-2.365l-1.391-4.189-1.321 4.19h-2.644l2.435-7.366h2.782l1.321 3.92 1.252-3.92h2.782l2.435 7.365h-2.574Z" fill="#000"/></svg>