<svg viewBox="0 0 219 99" fill="none" xmlns="http://www.w3.org/2000/svg"><path d="M24.941 42.31C16.65 46.252 8.392 50.162.134 54.105.101 46.22.034 38.366 0 30.48c8.325 3.944 16.616 7.887 24.941 11.83Z" fill="url(#a)"/><path d="M38.033 30.413v9.974A17280.31 17280.31 0 0 1 .033 27c12.656 1.127 25.345 2.286 38 3.413Z" fill="url(#b)"/><path d="M13.226 54.073c8.258-3.943 16.55-7.887 24.807-11.83V65.97c-8.258-3.976-16.549-7.92-24.807-11.896Z" fill="url(#c)"/><path d="M38.067 69.382c-12.655-1.126-25.344-2.253-38-3.38V55.995c12.656 4.44 25.31 8.914 38 13.387Z" fill="url(#d)"/><path d="M47.768 47.545c3.558-4.474 7.15-8.947 10.742-13.454H48.035v-3.645c5.337 0 10.675-.033 16.012-.033v3.513c-3.659 4.572-7.318 9.112-10.943 13.685h10.977v3.645h-16.28c-.034-1.259-.034-2.485-.034-3.711ZM65.055 43.502c0-.795.034-4.407 2.887-6.66 2.014-1.591 4.297-1.591 5.136-1.591.84 0 2.82.033 4.666 1.326 3.155 2.22 3.222 6.23 3.222 6.892 0 .861.068 4.871-3.121 7.058-1.947 1.326-4.062 1.26-4.901 1.193-.773.033-3.055.033-5.035-1.524-2.854-2.187-2.854-5.766-2.854-6.694Zm11.581-.066c0-.928 0-3.016-1.477-4.01-.839-.596-1.846-.63-2.115-.63-.235 0-1.007-.032-1.678.299-1.98.928-2.048 4.01-2.081 4.374 0 .861-.067 3.413 1.88 4.507 1.14.662 2.719.662 3.86-.067 1.611-1.093 1.611-3.214 1.611-4.473ZM83.082 35.88c1.309 0 2.584-.032 3.894-.032 0 .861.033 1.723.033 2.584.168-.364.84-1.789 2.484-2.518a4.772 4.772 0 0 1 2.652-.398v4.11c-.067 0-.201-.034-.336-.034h-.067c-1.846-.132-2.82.398-2.82.398-.234.132-.94.497-1.275 1.259-.235.53-.302 1.226-.403 1.922 0 0 0 .133-.034.265-.1 1.16-.067 6.296-.033 7.787h-4.028c-.034-5.103-.067-10.239-.067-15.342ZM97.516 49.4v1.823h-3.995V30.48h4.096c0 2.418.033 4.87.033 7.29a5.453 5.453 0 0 1 2.182-1.79c1.007-.43 1.88-.43 2.35-.43.134 0 1.578.033 2.887.695 2.518 1.26 3.256 4.176 3.458 4.97.839 3.281-.068 7.457-2.787 9.379-1.577 1.126-3.39 1.16-3.39 1.16-1.343.033-2.35-.398-2.618-.498-1.209-.596-1.88-1.425-2.216-1.855Zm6.345-8.814c-.471-.762-1.377-1.458-2.518-1.557-.168 0-1.242-.1-2.25.563-1.543 1.06-1.577 3.115-1.61 3.91 0 .497-.068 3.082 1.712 4.275.704.464 1.443.563 1.577.563.168 0 1.343.1 2.283-.63 1.108-.828 1.242-2.153 1.376-3.346a7.622 7.622 0 0 0-.067-2.088c-.101-.696-.168-1.193-.503-1.69ZM119.974 51.223a1.96 1.96 0 0 1-.269-.53 2.406 2.406 0 0 1-.134-1.127c-.269.299-.705.663-1.276 1.028-.47.298-1.578 1.027-3.055 1.16-1.51.132-3.759-.332-4.833-2.055-.672-1.06-.638-2.154-.638-2.684 0-.464.033-1.69.772-2.717 1.208-1.69 3.894-2.353 5.774-2.386.872 0 2.047.1 2.752-.663.269-.265.37-.596.437-.795a2.058 2.058 0 0 0-.772-1.326c-.47-.364-1.008-.331-1.746-.331-.839.033-1.511.033-2.081.497-.604.497-.772 1.226-.806 1.557-1.309 0-2.652 0-3.961.034 0-.597.101-2.121 1.209-3.38a4.723 4.723 0 0 1 1.409-1.127c1.779-1.027 3.626-.961 4.767-.862 1.108.067 3.458.133 4.867 1.624.168.199.605.663.873 1.425.168.53.202.994.235 1.955 0 .464 0 1.093-.033 1.856.033 2.452.1 4.904.134 7.323 0 .1.067.331.235.596.201.232.403.332.503.365v.563h-4.363Zm-.47-7.456L119 44.1c-.973.497-1.578.331-2.987.663-.705.165-1.041.265-1.377.53-.705.596-.738 1.49-.738 1.557 0 .133-.034.961.604 1.558.873.828 2.283.364 2.685.232.269-.1 1.444-.497 1.981-1.558.201-.43.302-.96.336-1.127 0-.099.033-.33.033-1.06-.033-.464-.033-.828-.033-1.127ZM125.311 46.32h4.129c.033.231.268 1.358 1.275 1.987.672.398 1.343.398 2.014.365.336 0 2.417-.1 2.719-1.16.101-.364-.033-.729-.1-.795-.336-.73-1.276-.895-2.686-1.226-1.41-.332-2.148-.53-2.92-.762-1.645-.564-2.753-.928-3.424-1.989-.739-1.126-.571-2.452-.537-2.75.033-.166.134-.928.638-1.79.906-1.524 2.316-2.153 2.853-2.385 1.477-.63 2.752-.53 4.196-.431 1.443.1 2.35.43 2.92.729.705.331 1.108.696 1.276.895a5.6 5.6 0 0 1 .738.994c.504.928.672 1.855.739 2.551h-4.062c-.033-.364-.134-.927-.537-1.391-.537-.564-1.343-.597-2.081-.663-.604-.033-1.141.033-1.477.132-.537.133-.739.398-.772.464-.067.1-.336.398-.302.829 0 .232.1.397.134.464.302.563 1.108.762 2.518 1.093.704.166 1.074.232 1.376.298 1.074.2 3.692.696 4.934 2.486.84 1.226.605 2.65.571 3.015-.033.298-.168 1.326-.806 2.22-1.745 2.486-5.773 2.254-6.948 2.187-.94-.066-3.122-.198-4.733-1.623a4.79 4.79 0 0 1-1.242-1.624 3.965 3.965 0 0 1-.403-2.12ZM142.062 30.413h6.378c1.309 5.434 2.584 10.836 3.893 16.27 1.242-5.434 2.484-10.836 3.726-16.27 2.149 0 4.264.033 6.412.033 0 6.926 0 13.851-.034 20.81h-4.095c0-5.766-.033-11.531-.067-17.297-1.309 5.799-2.618 11.564-3.927 17.363h-4.264c-1.309-5.765-2.652-11.531-3.961-17.297 0 5.733-.033 11.498-.033 17.264h-4.028V30.413ZM164.116 43.138c.134-1.326.403-4.308 2.886-6.197 1.914-1.458 4.096-1.458 4.969-1.458.939 0 2.954 0 4.733 1.359 2.919 2.187 2.887 6.13 2.887 6.793 0 .397-.034.762-.067.96-3.761.034-7.521.034-11.279.067 0 .464.066 1.657.939 2.618 1.275 1.391 3.692 1.657 5.069.63.436-.332.705-.763.873-1.094h4.196c-.101.397-.269.96-.604 1.557-.671 1.193-1.578 1.823-2.014 2.12-1.847 1.26-3.794 1.293-4.599 1.293-1.007 0-4.667-.132-6.647-2.75-.738-.961-1.041-1.988-1.174-2.485.034-.365-.337-1.657-.168-3.413Zm11.313-1.06c0-.233-.068-1.492-1.108-2.42-.907-.828-1.981-.828-2.384-.828-.37 0-1.275 0-2.116.596-1.309.895-1.409 2.452-1.442 2.651h7.05ZM198.053 30.28c1.377 0 2.72 0 4.095.034v3.711h-4.095v-3.744Zm.034 5.6h4.095v15.343h-4.095V35.881ZM51.46 59.706h2.283c1.108 3.115 2.215 6.23 3.357 9.378h-2.115c-.235-.662-.436-1.292-.671-1.955h-3.491c-.202.663-.437 1.293-.672 1.955h-2.048c1.108-3.115 2.25-6.263 3.358-9.378Zm2.384 5.8c-.437-1.227-.873-2.42-1.31-3.646-.402 1.227-.839 2.42-1.242 3.645h2.552ZM58.107 63.418H57.1v-1.26h.973v-.53c0-.132-.067-1.16.638-1.723.537-.43 1.276-.398 1.813-.398.268 0 .47.034.637.067 0 .497 0 .994-.033 1.49-.235-.066-.437-.066-.537-.066-.202 0-.37 0-.504.133-.067.1-.1.232-.1.298v.73h1.242v1.226h-1.242v5.666h-1.88v-5.633ZM67.808 59.64h-1.846v1.624h1.846V59.64ZM67.808 62.125h-1.88v6.959h1.88v-6.959ZM69.285 59.64h1.846v9.444h-1.846V59.64ZM83.115 67.229c.034-.895.034-2.088 0-3.678h-.906v-1.392h.906c0-.663.034-1.326.034-1.955h1.813v2.02h1.208v1.293h-1.208v3.447c0 .033-.101.63.235.828.134.066.268.066.436.066.201 0 .47-.033.47-.033v1.359c-.134 0-.37 0-.638.033-.873 0-1.141-.033-1.242-.066-.269-.067-.47-.1-.638-.232-.537-.431-.503-1.26-.47-1.69ZM97.315 62.06h1.51v1.026c.403-.63.974-1.192 1.981-1.192.94 0 1.611.497 1.947 1.226.537-.73 1.208-1.226 2.215-1.226 1.41 0 2.283.96 2.283 2.65v4.408h-1.511v-3.91c0-1.094-.469-1.69-1.309-1.69-.805 0-1.41.596-1.41 1.723v3.877h-1.51v-3.944c0-1.06-.504-1.656-1.309-1.656-.84 0-1.41.662-1.41 1.723v3.877h-1.51l.033-6.893ZM120.51 59.673h1.746c0 1.69 0 3.38.033 5.07.772-.862 1.578-1.723 2.35-2.585h2.283l-2.518 2.585c.873 1.491 1.746 2.949 2.652 4.44h-2.215c-.605-.994-1.175-1.988-1.78-2.982-.235.265-.503.497-.738.762 0 .729-.034 1.458-.034 2.187h-1.779v-9.477ZM141.994 62.125h1.712v.994c.101-.199.403-.729.974-.994.335-.166.637-.166.94-.166.469 0 1.275-.033 1.913.464.94.762.772 2.187.738 2.254v4.44c-.604 0-1.208 0-1.812-.033 0-1.326-.034-2.651-.034-3.977.101-.596-.101-1.16-.537-1.425a1.522 1.522 0 0 0-.705-.198c-.033 0-.403 0-.705.165-.47.265-.738.829-.705 1.492v3.976h-1.779v-6.992ZM149.413 69.88h1.98c.034.099.101.33.303.496.1.066.235.166.537.2.369.032 1.007.132 1.51-.332.537-.53.437-1.26.437-1.359v-.696a2.13 2.13 0 0 1-1.041.796c-.436.165-.839.132-1.175.099-.302-.033-1.007-.1-1.611-.497-1.175-.795-1.141-2.42-1.141-3.016 0-.53 0-1.855 1.007-2.816.168-.133.839-.762 1.913-.829.235 0 .671-.033 1.175.2.705.33 1.007.96 1.108 1.159v-1.127h1.611v5.932c.033.165.403 1.69-.571 2.816-1.04 1.194-2.887 1.028-3.122.995h-.033c-.638-.067-1.578-.166-2.149-.663-.201-.1-.604-.497-.738-1.359Zm4.834-4.474c0-.464-.034-.895-.336-1.293-.302-.397-.906-.762-1.51-.63-.403.1-.672.365-.772.531-.504.563-.47 1.26-.47 1.624 0 .397 0 1.06.503 1.557.101.1.369.365.739.431.772.132 1.342-.497 1.41-.53.469-.497.436-1.16.436-1.69ZM191.139 49.4v1.823h3.993V30.48h-4.095c0 2.418-.033 4.87-.033 7.29a5.45 5.45 0 0 0-2.182-1.79c-1.007-.43-1.88-.43-2.35-.43-.133 0-1.578.033-2.887.695-2.517 1.26-3.256 4.176-3.457 4.97-.839 3.281.067 7.457 2.785 9.379 1.579 1.126 3.392 1.16 3.392 1.16 1.343.033 2.349-.398 2.618-.498a6.29 6.29 0 0 0 2.216-1.855Zm-6.345-8.847c.471-.762 1.376-1.458 2.517-1.557.168 0 1.243-.1 2.25.563 1.544 1.06 1.578 3.115 1.612 3.91 0 .497.066 3.082-1.714 4.275-.703.464-1.442.563-1.576.563-.169 0-1.343.1-2.284-.63-1.107-.828-1.241-2.153-1.376-3.346a7.707 7.707 0 0 1 .067-2.088c.102-.696.168-1.16.504-1.69ZM214.435 51.322a1.932 1.932 0 0 1-.269-.53 2.406 2.406 0 0 1-.134-1.127c-.269.299-.705.663-1.275 1.028-.47.298-1.578 1.027-3.055 1.16-1.51.132-3.76-.332-4.834-2.055-.672-1.06-.638-2.154-.638-2.684 0-.464.034-1.69.772-2.717 1.209-1.69 3.893-2.353 5.774-2.386.873 0 2.047.1 2.752-.663.269-.265.369-.596.436-.795a2.05 2.05 0 0 0-.771-1.326c-.47-.364-1.008-.331-1.745-.331-.841.033-1.511.033-2.083.497-.603.497-.771 1.226-.805 1.557-1.309 0-2.652 0-3.961.034 0-.597.101-2.121 1.208-3.38.504-.597 1.075-.928 1.41-1.127 1.78-1.027 3.625-.961 4.767-.862 1.108.067 3.457.133 4.868 1.624.167.199.604.663.873 1.425.167.53.201.994.235 1.955 0 .464 0 1.094-.034 1.856.034 2.452.1 4.904.133 7.323 0 .1.068.331.236.596.201.233.402.332.504.365v.563a95.615 95.615 0 0 0-4.364 0Zm-.504-7.455c-.1.066-.269.198-.504.331-.973.497-1.577.331-2.987.663-.706.165-1.075.265-1.409.53-.706.596-.74 1.491-.74 1.557 0 .133-.033.961.604 1.558.873.828 2.284.364 2.686.232.269-.1 1.443-.497 1.981-1.558.235-.43.301-.96.335-1.126 0-.1.034-.332.067-1.06 0-.465 0-.862-.033-1.127Z" fill="#0A0A0A"/><path d="M62.202 63.418h-1.007v-1.226h.973v-.53c0-.133-.067-1.16.638-1.724.537-.43 1.276-.397 1.813-.397.268 0 .47.033.638.066 0 .497 0 .994-.034 1.491-.235-.066-.436-.066-.537-.066-.201 0-.37 0-.504.132-.067.1-.1.232-.1.299v.729h1.242v1.226h-1.242v5.666h-1.88v-5.666ZM74.421 59.64h-1.846v1.624h1.846V59.64ZM74.455 62.125h-1.88v6.959h1.88v-6.959ZM80.06 69.018c-.033-.067-.066-.133-.134-.232-.067-.2-.067-.398-.067-.497a4.723 4.723 0 0 1-.57.463c-.202.133-.739.465-1.377.53-.671.067-1.712-.165-2.182-.927-.302-.464-.302-.994-.302-1.193 0-.199 0-.762.37-1.226.537-.762 1.778-1.06 2.618-1.094.403 0 .94.034 1.275-.298.135-.132.168-.265.202-.364-.034-.1-.1-.398-.336-.597-.201-.166-.47-.166-.806-.132-.369 0-.67 0-.94.232-.268.232-.335.563-.369.695H75.63c0-.265.033-.96.537-1.524.235-.265.47-.397.638-.497.805-.464 1.644-.43 2.181-.398.504.034 1.578.067 2.216.73.067.099.269.298.403.63.067.231.1.463.1.894v.828c.034 1.094.034 2.22.068 3.314 0 .033.033.166.1.265.067.1.202.132.235.166v.265c-.705-.033-1.376-.033-2.047-.033Zm-.234-3.347a.72.72 0 0 1-.235.132c-.437.232-.705.133-1.343.299-.336.066-.47.132-.638.265-.336.265-.336.662-.336.695 0 .067 0 .431.269.696.403.365 1.04.166 1.242.1.134-.033.671-.232.906-.696.101-.199.135-.43.168-.497 0-.033.034-.133.034-.464-.067-.232-.067-.43-.067-.53ZM86.338 65.373c.067-.597.201-1.955 1.309-2.817.873-.662 1.846-.662 2.249-.662.436 0 1.343 0 2.148.596 1.343.994 1.31 2.75 1.31 3.049 0 .198 0 .331-.034.43-1.712 0-3.424.034-5.102.034 0 .198.033.728.436 1.192.57.63 1.678.73 2.316.266.201-.166.336-.332.403-.497h1.913c-.033.165-.1.43-.268.695-.302.53-.705.829-.907.961-.839.564-1.745.564-2.08.564-.47 0-2.116-.066-3.022-1.26-.336-.43-.47-.894-.537-1.126-.067-.067-.201-.63-.134-1.425Zm5.136-.497c0-.1-.034-.663-.504-1.094-.403-.364-.906-.364-1.074-.364-.168 0-.57 0-.94.265-.604.398-.638 1.093-.638 1.193h3.156ZM112.924 69.084c-.034-.066-.067-.133-.134-.232-.067-.199-.067-.398-.067-.497a4.787 4.787 0 0 1-.571.464c-.201.132-.739.464-1.41.53-.671.066-1.712-.166-2.182-.928a1.825 1.825 0 0 1-.268-1.193c0-.198 0-.762.369-1.226.537-.762 1.779-1.06 2.618-1.093.403 0 .94.033 1.276-.298.134-.133.168-.266.201-.365-.033-.1-.101-.397-.335-.596-.202-.166-.437-.166-.806-.133-.369 0-.672 0-.94.232-.269.232-.336.563-.369.696h-1.813c0-.265.034-.961.537-1.524.235-.265.47-.398.638-.497.806-.464 1.645-.431 2.182-.398.503.033 1.577.066 2.215.729.067.1.269.298.403.63.067.231.101.464.101.894v.829c.033 1.093.034 2.22.067 3.313 0 .033.033.166.101.265.067.1.201.133.235.166v.265c-.705-.033-1.377-.033-2.048-.033Zm-.201-3.347a.736.736 0 0 1-.235.133c-.437.232-.705.132-1.343.298-.336.066-.47.132-.638.265-.336.265-.336.663-.336.696 0 .066 0 .43.269.696.403.364 1.041.166 1.242.1.134-.034.671-.233.906-.697.101-.198.135-.43.168-.497 0-.033.034-.132.034-.464-.067-.231-.067-.397-.067-.53ZM115.744 62.092h1.745c0 .398 0 .762.034 1.16a2.193 2.193 0 0 1 1.108-1.127 2.077 2.077 0 0 1 1.174-.166v1.856h-.201c-.839-.066-1.276.166-1.276.166-.1.066-.402.232-.57.563-.101.232-.134.53-.168.862v.132c-.034.497-.034 2.817 0 3.513h-1.813c-.033-2.353-.033-4.64-.033-6.959ZM126.989 65.373c.067-.597.202-1.955 1.309-2.817.873-.662 1.847-.662 2.25-.662.436 0 1.342 0 2.148.596 1.343.994 1.309 2.75 1.309 3.049 0 .198 0 .331-.033.43-1.713 0-3.424.034-5.103.034 0 .198.034.728.437 1.192.57.63 1.678.73 2.316.266.201-.166.335-.332.403-.497h1.913c-.034.165-.101.43-.269.695-.302.53-.705.829-.906.961-.839.564-1.746.564-2.081.564-.47 0-2.115-.066-3.021-1.26-.336-.43-.47-.894-.537-1.126-.034-.067-.202-.63-.135-1.425Zm5.136-.497c0-.1-.033-.663-.503-1.094-.403-.364-.907-.364-1.074-.364-.168 0-.571 0-.94.265-.605.398-.638 1.093-.638 1.193h3.155Z" fill="#0A0A0A"/><path d="M134.744 67.229c.033-.895.033-2.088 0-3.678h-.907v-1.392h.907c0-.663.033-1.326.033-1.955h1.813v2.02h1.209v1.293h-1.209v3.447c0 .033-.101.63.235.828.101.066.269.066.437.066.201 0 .469-.033.469-.033v1.359c-.134 0-.369 0-.637.033-.873 0-1.142-.033-1.242-.066-.269-.067-.47-.1-.638-.232-.537-.431-.504-1.26-.47-1.69ZM140.517 59.606h-1.846v1.624h1.846v-1.624ZM140.518 62.092h-1.88v6.959h1.88v-6.96ZM162.572 59.606h-1.847v1.624h1.847v-1.624ZM162.572 62.125h-1.88v6.959h1.88v-6.959ZM164.183 62.125h1.713v.994c.1-.199.403-.729.973-.994.336-.166.637-.166.94-.166.47 0 1.275-.033 1.913.464.94.762.771 2.187.739 2.254v4.44c-.605 0-1.209 0-1.813-.033 0-1.326-.034-2.651-.034-3.977.102-.596-.1-1.16-.536-1.425a1.53 1.53 0 0 0-.705-.198c-.034 0-.403 0-.706.165-.47.265-.739.829-.705 1.492v3.976h-1.779v-6.992ZM171.4 66.897h1.847c0 .1.1.63.57.895.303.198.604.165.907.165.167 0 1.074-.066 1.207-.53.068-.166-.032-.331-.032-.364-.169-.332-.572-.398-1.209-.564-.638-.165-.973-.232-1.309-.331-.74-.265-1.242-.431-1.545-.895a1.796 1.796 0 0 1-.235-1.259c0-.066.068-.43.303-.828.402-.696 1.04-.961 1.275-1.06.672-.3 1.242-.233 1.879-.2a3.177 3.177 0 0 1 1.31.332c.336.165.504.331.571.397.034.033.168.2.335.464.235.431.303.829.337 1.16h-1.847c0-.166-.068-.43-.235-.63-.235-.265-.604-.265-.939-.298-.269 0-.504.033-.672.066a.663.663 0 0 0-.336.2.54.54 0 0 0-.134.364c0 .1.034.199.066.199.135.265.504.33 1.142.497.336.066.47.1.638.132.504.1 1.679.299 2.215 1.127.369.563.269 1.193.269 1.358 0 .133-.067.597-.368.995-.773 1.126-2.587 1.027-3.123.994-.436-.033-1.41-.1-2.114-.73-.135-.132-.404-.33-.572-.728-.201-.365-.201-.73-.201-.928ZM180.731 59.606h-1.845v1.624h1.845v-1.624ZM180.731 62.125h-1.879v6.959h1.879v-6.959ZM186.741 68.288v.829h1.813v-9.51h-1.847c0 1.126 0 2.22-.034 3.346a2.2 2.2 0 0 0-1.006-.828c-.437-.199-.839-.199-1.074-.199-.068 0-.706 0-1.309.298-1.142.564-1.477 1.922-1.578 2.287-.369 1.49.033 3.413 1.275 4.307.705.53 1.544.53 1.544.53.604.034 1.074-.165 1.176-.231.604-.232.906-.63 1.04-.829Zm-2.854-4.042a1.462 1.462 0 0 1 1.142-.696c.066 0 .57-.067 1.007.265.705.497.705 1.425.739 1.79 0 .231.034 1.424-.773 1.954-.335.232-.638.265-.704.265-.068 0-.605.034-1.042-.298-.502-.364-.57-.994-.637-1.524 0-.133-.034-.497.033-.961.034-.332.102-.563.235-.795ZM189.393 65.472c.066-.596.201-1.955 1.309-2.816.873-.663 1.846-.663 2.248-.663.437 0 1.343 0 2.15.596 1.341.994 1.309 2.75 1.309 3.049 0 .198 0 .331-.034.43-1.711 0-3.425.034-5.103.034 0 .198.034.729.437 1.193.57.63 1.678.729 2.283.265.201-.166.335-.332.403-.497h1.913c-.034.165-.1.43-.269.695a2.81 2.81 0 0 1-.907.962c-.839.563-1.745.563-2.08.563-.471 0-2.115-.067-3.021-1.26-.337-.43-.47-.894-.538-1.126 0-.066-.168-.663-.1-1.425Zm5.135-.497c0-.1-.034-.663-.502-1.093-.404-.365-.907-.365-1.076-.365-.167 0-.57 0-.939.265-.605.398-.637 1.094-.637 1.193h3.154ZM199.867 65.539c0-.365 0-1.955 1.275-2.95.907-.695 1.913-.695 2.282-.695.37 0 1.243 0 2.082.596 1.409.994 1.443 2.783 1.443 3.049 0 .364.034 2.154-1.375 3.148-.873.596-1.814.563-2.182.53-.337 0-1.343 0-2.25-.663-1.275-.994-1.275-2.585-1.275-3.015Zm5.135-.034c0-.397 0-1.325-.672-1.789-.368-.265-.839-.298-.938-.298-.102 0-.437 0-.739.133-.873.397-.907 1.789-.907 1.921 0 .398-.034 1.492.839 1.989.504.298 1.209.298 1.712-.034.705-.43.705-1.358.705-1.922ZM207.855 66.466V62.06h1.913v3.977a2.56 2.56 0 0 0 .034.861c.067.199.101.365.201.497.303.364.839.331 1.008.331.134 0 .672-.033 1.007-.43.133-.166.167-.299.235-.464.1-.332.1-.63.1-.829 0-1.325 0-2.617.033-3.943h1.881v6.959h-1.646v-1.094c-.47.663-1.107 1.226-2.215 1.226-1.611 0-2.551-1.06-2.551-2.684ZM215.945 67.261a43.34 43.34 0 0 0 0-3.678h-.906v-1.358h.906c0-.663.034-1.326.034-1.956h1.813v2.022H219v1.292h-1.208v3.447c0 .033-.101.63.234.828.101.066.269.066.436.066.203 0 .47-.033.47-.033v1.359c-.133 0-.368 0-.637.033-.873 0-1.142-.033-1.242-.067-.269-.066-.47-.099-.638-.231-.537-.431-.504-1.293-.47-1.724Z" fill="#0A0A0A"/><defs><linearGradient id="a" x1="1.662" y1="29.616" x2="12.86" y2="49.265" gradientUnits="userSpaceOnUse"><stop stop-color="#2A6DB5"/><stop offset=".24" stop-color="#2B89B0"/><stop offset=".378" stop-color="#3196A9"/><stop offset=".502" stop-color="#38A0A2"/><stop offset=".693" stop-color="#41AB96"/><stop offset=".864" stop-color="#47B28D"/><stop offset="1" stop-color="#4AB48A"/></linearGradient><linearGradient id="b" x1=".027" y1="33.7" x2="38.04" y2="33.7" gradientUnits="userSpaceOnUse"><stop stop-color="#2A6DB5"/><stop offset="1" stop-color="#46B48C"/></linearGradient><linearGradient id="c" x1="13.223" y1="54.085" x2="38.033" y2="54.085" gradientUnits="userSpaceOnUse"><stop stop-color="#EA6317"/><stop offset="1" stop-color="#CE151A"/></linearGradient><linearGradient id="d" x1="38.057" y1="62.682" x2=".047" y2="62.682" gradientUnits="userSpaceOnUse"><stop stop-color="#EA6317"/><stop offset="1" stop-color="#CE151A"/></linearGradient></defs></svg>