<svg xmlns="http://www.w3.org/2000/svg" fill="none" viewBox="0 0 131 58"><g clip-path="url(#a)"><path fill="#28282E" d="M53.37 16.006C59.94 11.09 57.521 3.231 50.4.87 42.89-1.27 39.043.547 38.41 6.219c-4.704-1.863-9.75-2.217-14.78.178-3.763-2.218-6.132-2.17-9.507-.708-1.85-1.896-3.877-4.467-7.138-2.378-3.261 2.09-1.833 7.135-.438 9.144C2.556 18.015-.883 22.53.203 25.632c5.176 8.565 8.356 15.459 9.02 19.332-1.038 0-1.751.016-2.546-.418.697 3.905 5.548 12.358 12.297 12.454 9.491 0 9.297-2.587 13.223-2.7 1.346 0 2.53 1.157 2.774 2.684 13.823-4.853 31.264-19.155 18.706-38.166 1.753-.932 2.207-1.27 3.083-2.973-1.265.354-2.206.193-3.39.161Z"/><path fill="#C9905E" d="M23.493 49.064c2.76-2.902 3.519-4.511 4.746-10.064 2.05 2.966 2.792 5.285 2.76 8.092-2.438 2.24-2.631 4.465-1.856 7.32-7.91 2.697-12.898 1.861-16.143-1.767 4.843.016 10.412 1.609 10.493-3.58Z"/><path fill="#28282E" d="M20.769 57c-3.425 0-6.12-1.17-8.166-3.592L12 52.709h.92c.951 0 1.918.065 2.886.114.92.065 1.791.097 2.584.097 2.743 0 4.424-.585 4.472-3.51v-.179l.095-.114c2.648-2.958 3.377-4.55 4.567-10.174l.19-.943.523.796c1.998 3.04 2.823 5.51 2.76 8.582v.195l-.112.114c-2.347 2.275-2.394 4.486-1.712 7.086l.095.374-.365.114C25.795 56.464 23.131 57 20.77 57Zm-6.866-3.413c1.807 1.739 4.06 2.6 6.882 2.6 2.14 0 4.661-.503 7.5-1.495-.73-3.186-.175-5.364 1.902-7.444.016-2.52-.602-4.632-2.093-7.086C27 45.07 26.16 46.825 23.64 49.637c-.111 3.673-2.728 4.194-5.28 4.194-.84 0-1.729-.065-2.664-.114a31.655 31.655 0 0 0-1.792-.13Z"/><path fill="#fff" d="M13.254 51C10.89 49.638 9.896 48.249 9 46.476c3.227 1.64 4.76.503 6.145 2.791 0 0 2.037.146 3.178.146 1.287-1.998 2.738-.98 3.846-3.413 2.2 3.717-.587 4.987-1.287 4.987L13.254 51Z"/><path fill="#28282E" d="M20.494 52h-7.602l-.095-.075c-2.343-1.548-3.395-3.142-4.303-5.272L8 45.536l1.084.626c1.259.73 2.199.938 3.06 1.132 1.178.268 2.15.491 2.995 1.98.51.03 1.753.105 2.646.15.605-.984 1.259-1.311 1.848-1.624.67-.328 1.243-.625 1.769-1.951l.335-.849.414.804c1.259 2.502.892 4.066.335 4.915-.638.953-1.546 1.281-1.992 1.281Zm-7.33-.79h7.362c.19 0 .828-.253 1.242-.893.399-.61.67-1.653 0-3.366-.557.938-1.179 1.28-1.752 1.579-.574.298-1.1.566-1.642 1.504l-.111.223h-.24c-1.115 0-3.06-.163-3.139-.163l-.223-.015-.095-.194c-.718-1.355-1.403-1.504-2.566-1.757-.606-.15-1.339-.313-2.231-.7.717 1.46 1.657 2.636 3.394 3.783Z"/><path fill="#E9AD77" d="M26.445 53.29c-1.339.537-3.008 1.285-5.445 0 1.098-.276 2.361-1.464 2.361-3.855 1.73-1.594 3.91-6.816 4.242-9.435.21.423 2.21 2.798 1.022 6.75-1.248.993-2.18 2.864-2.18 6.54Z"/><path fill="#E8AD76" d="M9.793 23.032C8.743 20.492 7.12 22.075 6.04 18c-.78 1.105-1.786 3.794-.45 6.401-.78-.066-1.546.33-1.591 1.88.09 2.162.45 2.822 1.516 4.719.72-3.102 1.545-3.003 4.021-4.718.36-.94.69-1.93.256-3.25Z"/><path fill="#28282E" d="m6.116 32-.494-.858c-1.112-1.93-1.53-2.657-1.622-4.95v-.017c.077-1.568.788-2.08 1.436-2.228-1.065-2.657 0-5.23.773-6.303L6.688 17l.216.792c.587 2.162 1.297 2.574 2.054 3.02.587.346 1.267.726 1.792 1.947l.015.017c.51 1.501.078 2.656-.247 3.58l-.03.116-.109.066c-.494.346-.926.61-1.313.858-1.59.974-2.1 1.304-2.672 3.63L6.116 32Zm-1.313-5.809c.077 1.75.325 2.41 1.05 3.697.618-1.881 1.375-2.376 2.78-3.235.356-.214.727-.445 1.19-.775.325-.875.587-1.7.216-2.805-.417-.941-.895-1.221-1.451-1.535-.711-.413-1.53-.891-2.178-2.69-.587 1.221-1.066 3.235 0 5.215l.386.693-.726-.033h-.108c-.54.016-1.112.198-1.159 1.468Z"/><path fill="#C88F5D" d="M5 24.953c2.961 2.351 4 .206 4-1.214-1.784 0-3.203-1.688-3.203-3.739-1.178 2.556.398 4.433.727 4.938-.762-.063-1.126-.19-1.524.015Z"/><path fill="#fff" d="M16.391 30.697c.114-.755.454-1.449.957-1.72.162 2.262.518 3.137 2.026 5.023.778-3.424.73-2.836 2.626-6.185-4.815-1.599-12.06-3.801-16 1.705.762 2.64 1.167 2.76 3.161 4.45-.908-3.726-.502-4.284-.097-4.948.6.483.519 1.192.34 1.69.681-.559 1.41-1.237 1.443-1.977.34-.105 2.35-.558 4.523.227.016.633.762 1.629 1.021 1.735Z"/><path fill="#28282E" d="m9.303 36-.971-.857c-.178-.175-.372-.334-.534-.492-1.585-1.381-2.038-1.794-2.766-4.413L5 30.048l.097-.175C6.844 27.302 9.416 26 12.797 26c2.975 0 6.081 1 8.75 1.905l.453.174-.227.429a44.348 44.348 0 0 1-.922 1.635c-1.002 1.793-1.051 1.889-1.682 4.762l-.178.904-.534-.745c-1.326-1.778-1.795-2.73-2.005-4.46a4.666 4.666 0 0 0-.227.825l-.08.508-.486-.191c-.437-.175-1.084-1.143-1.245-1.905a7.46 7.46 0 0 0-2.297-.349c-.663 0-1.18.08-1.456.159-.178.841-.922 1.54-1.553 2.08l-.582.491c.081.62.227 1.445.485 2.54L9.303 36Zm7.828-7.127.032.667c.114 1.968.405 2.857 1.408 4.333.485-2.127.663-2.46 1.585-4.095.178-.334.404-.699.663-1.19-2.507-.858-5.338-1.715-8.023-1.715-3.04 0-5.321 1.111-6.923 3.35.567 2 .906 2.412 2.038 3.475-.566-2.92-.194-3.555.178-4.206L8.35 29l.371.317c.324.27.518.62.583 1.016.258-.333.5-.682.517-1.047l.016-.27.243-.095c.259-.096 1.035-.27 1.973-.27.97 0 1.925.174 2.83.508l.26.095v.286c0 .27.178.666.372.968.194-.603.533-1.064.954-1.302l.663-.333ZM8.575 30.54a4.75 4.75 0 0 0-.081.65 1.42 1.42 0 0 0 .08-.65Z"/><path fill="#E8AD75" d="M17.134 26.492c-1.558 0-6.642-1.635-2.617-4.603.938-.683 4.993-3.333 2.42-7.889 10.547 5.19 10.804 10.92 9.533 18-3.026-3.667-5.462-4.92-9.336-5.508Z"/><path fill="#28282E" d="m27.318 33-.538-.626c-2.876-3.48-5.213-4.843-9.225-5.437-1.107-.016-3.998-.753-4.49-2.421-.261-.963.261-1.973 1.63-2.967l.138-.097c.554-.4 1.707-1.219 2.399-2.47.86-1.475.784-3.095-.185-4.827L16.387 13l1.152.577c5.12 2.486 8.149 5.197 9.548 8.581 1.338 3.224.969 6.752.384 10.088l-.153.754Zm-9.04-18.188c1.03 2.695.015 5.149-2.968 7.33l-.139.096c-.722.53-1.537 1.3-1.337 2.021.323 1.059 2.66 1.828 3.767 1.828h.061c2.153.321 3.767.834 5.197 1.652 1.338.786 2.644 1.877 3.997 3.449.539-3.336.63-6.127-.46-8.741-1.215-2.951-3.814-5.39-8.119-7.635Z"/><path fill="#AA7342" d="M42.938 37.66c2.182-1.75 3.103-2.955 4.396-5.25-.76 4.222-1.956 5.956-4.8 8.588 6.27.16 17.213-11.574 9.875-21.688 1.18-.273 2.538-1.156 3.281-1.926-1.923-.032-2.521-.177-3.75-.627 5.14-2.921 5.835-7.673-.452-11.51 1.891.032 3.103.69 4.073 1.445-1.923-4.913-13.464-7.77-14.563.754.97 1.156 2.02 2.103 2.619 3.532C36.763 4.798 22.524 4.027 19 14.157c2.829 1.894 3.524 2.328 4.25 3.29.954.771 2.134 1.654 2.959 2.955 2.36 1.236 3.669 3.082 3.669 6.774 11.362 1.975 12.704 7.706 13.076 10.628"/><path fill="#28282E" d="M42.586 42h-.112l-.51-.016.367-.358c2.507-2.425 3.688-4.02 4.439-7.371-.958 1.562-1.9 2.717-3.673 4.214l.016.195-.32.033-.095.016-.016-.195-.112-.18.08-.08c-1.07-7.453-7.76-9.487-12.727-10.382l-.16-.016v-.179c0-3.385-1.022-5.337-3.53-6.671l-.031-.017-.016-.032c-.735-1.204-1.757-2.034-2.667-2.766l-.24-.212c-.654-.879-1.26-1.302-3.529-2.864L19 14.6l.064-.163c1.613-4.8 5.27-6.688 8.048-7.453 5.11-1.383 11.546.066 15.762 3.466-.4-.618-.847-1.155-1.342-1.74-.24-.277-.495-.554-.718-.863l-.064-.065.016-.082c.415-3.238 2.283-5.24 5.285-5.63 3.833-.504 8.336 1.807 9.502 4.833l.255.7-.59-.44c-.735-.585-1.677-1.171-3.099-1.383 2.556 1.774 3.881 3.808 3.865 5.89-.016 2.018-1.341 3.938-3.705 5.435.926.326 1.565.44 3.242.472H56l-.335.342c-.655.7-1.853 1.562-3.034 1.936 2.778 4.1 3.034 8.9.734 13.57C50.97 38.21 46.18 42 42.586 42Zm5.03-10.072-.191 1.204c-.735 4.15-1.917 5.988-4.408 8.429 3.418-.277 7.745-3.857 9.917-8.25 1.325-2.685 2.954-7.957-.894-13.36l-.176-.26.32-.064c.99-.245 2.091-.928 2.778-1.563-1.517-.032-2.124-.211-3.274-.634l-.43-.163.398-.244c2.492-1.464 3.865-3.336 3.913-5.32.032-2.116-1.485-4.199-4.344-5.989l-.654-.407.75.017c1.565.016 2.667.504 3.481 1.025-1.5-2.506-5.365-4.28-8.703-3.84-1.613.211-4.407 1.155-4.918 5.174.223.26.431.52.655.781.75.863 1.437 1.676 1.9 2.783l.351.878-.67-.618c-4.089-3.791-10.907-5.5-16.209-4.052-2.667.716-6.132 2.522-7.713 7.013l.495.342c2.284 1.578 2.922 2.018 3.61 2.929l.19.179c.927.765 1.933 1.578 2.731 2.815 2.555 1.4 3.657 3.466 3.69 6.85 11.066 2.034 12.519 7.94 12.854 10.463 1.98-1.692 2.843-2.913 4.008-5.012l.543-1.106Z"/><path fill="#C78E5C" d="M25 30c-2.437-1.672-3.427-2.491-7.138-3.055-2.563-.307-5.629-1.774-2.61-3.993 2.296-1.894 4.434-3.396 3.349-7.952 3.71 3.43 4.104 7.082 4.04 8.106C24.199 25.836 24.749 27.389 25 30Z"/><path fill="#B27A50" d="M17.65 21c.16 2.558.747 2.983 3.35 5-1.159-.468-1.397-.468-3.587-.76-1.556-.103-3.413-.731-3.413-1.52.238-.907 2.08-1.521 3.65-2.72Z"/><path fill="#28282E" d="M16.883 15.4c-.358-1.452-5.454-4.372-8.883-.393 2.79-1.694 6.78-1.392 6.998 2.194.654 1.996 2.478-.182 1.885-1.8Z"/><path fill="#5D3D21" d="M16.843 15.405c-.361-1.48-6.22-4.578-8.843 0 2.356-2.805 7.492-1.634 7.743 2.02.362 1.665 1.712-.678 1.1-2.066"/><path fill="#BD8658" d="M36.956 19.14C38.16 17.118 40.736 13.008 36 8c9.517 3.387 18.541 15.09 13.605 24.159-.139-1.124.864-4.174-1.882-6.293.185 4.575-1.265 6.293-3.409 9.134 2.9-7.978-2.02-11.381-7.358-15.86Z"/><path fill="#905D31" d="M47 2c-2.088 0-3.417 5.17-3.727 8-.247-.754-1.237-1.823-2.273-2.986.417-1.65.711-4.951 6-5.014Z"/><path fill="#BC8557" d="M47.142 2c2.977.221 6.158 2.127 7.056 3.965-1.15-.834-2.173-.97-3.906-1.038C60.624 12.26 51.363 19.187 47 14.44c-.047-.051 4.804-2.519.142-12.44Z"/><path fill="#905D31" d="M19 13.97c2.194 1.232 3.209 2.27 4.06 3.81 1.228 1.086 1.85 1.572 2.669 2.642 2.374 1.135 4.306 2.837 4.306 6.614 6.14 1.07 10.903 3.42 12.852 8.964.851-5.317-3.144-8.64-10.347-10.472-.966-1.507-1.572-3.647-.753-5.333.327-.762.736-2.075 3.896-1.994.737.016 1.032-.502 1.195-.794 2.063-3.745.344-9.353-8.644-5.706-1.392-.68-2.08-2.026-1.277-4.701-3.127.875-6.385 2.69-7.957 6.97Z"/><path fill="#281A11" d="M24 14c3.167 1.102 4.082 4.994 8 1.71L24 14Z"/><path fill="#28282E" d="M29.247 17c-1.037 0-1.846-.633-2.72-1.286-.746-.55-1.523-1.163-2.527-1.449l.032-.265c1.053.326 1.863.96 2.591 1.51 1.523 1.164 2.721 2.061 5.28.082l.097.245C30.899 16.674 30.008 17 29.247 17Z"/><path fill="#281A11" d="M24 14.898c6.794-2.486 7.678.732 11 3.102l-11-3.102Z"/><path fill="#281A11" d="M34.9 18c-.712-.477-1.325-1.01-1.921-1.505-2.07-1.798-3.71-3.23-8.913-1.395L24 14.862c5.318-1.89 7.09-.33 9.095 1.413.58.495 1.193 1.046 1.905 1.505l-.1.22Z"/><path fill="#281A11" d="M26.936 14.631c-1.349 0-2.825.295-2.936.369 2.35-1.07 3.667-3.65 8-4-4.794 1.272-4.857 3.263-5.064 3.631Z"/><path fill="#281A11" d="M24.079 15 24 14.791s.016-.017.032-.017c.755-.348 1.417-.835 2.125-1.34 1.386-1.025 2.945-2.19 5.827-2.434l.016.226c-4.095 1.026-4.646 2.591-4.85 3.165-.032.087-.063.192-.095.226l-.016.035h-.078c-1.26 0-2.63.226-2.866.313l-.016.035Zm6.315-3.513c-1.874.435-3.055 1.322-4.142 2.156-.488.366-.93.679-1.417.992a13.89 13.89 0 0 1 2.063-.174c.015-.035.031-.087.063-.122.173-.556.63-1.826 3.433-2.852Z"/><path fill="#fff" d="M30.18 14.5a1 1 0 1 0-1.944-.472 1 1 0 0 0 1.943.471Z"/><path fill="#28282E" d="M29.175 14.48a1 1 0 1 0-1.949-.454 1 1 0 0 0 1.949.453Z"/><path fill="#AA7341" d="M23 7.526C21.56 8.617 20.05 11.16 19.254 13c-4.729-1.123-.796-5.708-9.254-3.088 4.61-4.632 12.322-4.773 13-2.386Z"/><path fill="#281A11" d="m19.32 13-.081-.015c-1.848-.44-2.338-1.41-2.813-2.258-.441-.833-.784-1.485-2.256-1.485-.916 0-2.142.258-3.794.788l-.376.106.262-.272C13.058 7.015 16.884 6 19.337 6c1.962 0 3.369.59 3.647 1.576l.016.06-.082.016c-1.39 1.045-2.829 3.484-3.597 5.287V13Zm-5.167-3.985c1.603 0 1.995.788 2.453 1.621.425.803.916 1.713 2.568 2.137.785-1.773 2.174-4.167 3.564-5.243-.278-.833-1.602-1.363-3.434-1.363-2.322 0-5.92.909-8.634 3.5 1.521-.44 2.65-.652 3.483-.652Z"/><path fill="#28282E" d="M128.847 2H66.153A2.16 2.16 0 0 0 64 4.167V19a2.16 2.16 0 0 0 2.153 2.167h2.085V27c1.696 0 5.867-5.833 10.172-5.833h50.437A2.16 2.16 0 0 0 131 19V4.166A2.16 2.16 0 0 0 128.847 2Z"/><path fill="#50B65A" d="M73.103 5.385h2.628l.679 7.749.593-7.749h2.68L78.07 18H74.9l-.543-6.68-.543 6.68h-3.238L68.983 5.385h2.865l.577 7.817.678-7.817ZM83.426 18l-.203-1.848h-1.289L81.748 18h-2.425l1.61-12.615h3.443L86.139 18h-2.713Zm-.848-8.173-.39 3.832h.78l-.39-3.832Zm8.283 3.307h-1.34V18h-2.78V5.385h4.035c.825 0 1.424.21 1.797.627.384.419.577 1.057.577 1.916v2.612c0 .825-.204 1.463-.61 1.916-.396.452-.956.678-1.68.678Zm-1.34-5.545v3.222h.34c.191 0 .321-.045.39-.136.067-.102.1-.26.1-.475V8.217c0-.215-.033-.373-.1-.475-.069-.102-.199-.153-.39-.153h-.34Zm5.38 7.681V18h-2.409v-2.73H94.9Z"/><path fill="#fff" d="M99.562 15.016v-2.527h2.763v2.612c0 .881-.243 1.622-.729 2.22-.474.589-1.226.882-2.255.882h-.491c-2.07 0-3.103-1.113-3.103-3.34V8.454c0-.983.243-1.77.729-2.357.497-.588 1.283-.882 2.356-.882h.51c1.989 0 2.983.984 2.983 2.95v2.07h-2.763v-1.95c0-.419-.153-.628-.458-.628-.17 0-.288.045-.356.136-.068.09-.102.254-.102.491v6.732c0 .44.158.661.475.661.294 0 .44-.22.44-.661Zm3.645-9.631h2.797v9.936h2.289V18h-5.086V5.385Zm8.683 0V18h-2.797V5.385h2.797Zm4.734 9.63V12.49h2.764v2.612c0 .881-.243 1.622-.729 2.22-.475.589-1.227.882-2.256.882h-.491c-2.069 0-3.103-1.113-3.103-3.34v-6.41c0-.983.243-1.77.729-2.357.497-.588 1.283-.882 2.357-.882h.508c1.99 0 2.985.984 2.985 2.95v2.07h-2.764v-1.95c0-.419-.153-.628-.458-.628-.169 0-.288.045-.356.136-.068.09-.102.254-.102.491v6.732c0 .44.159.661.475.661.294 0 .441-.22.441-.661Zm6.443-2.05V18h-2.798V5.385h2.798v4.46l1.305-4.46h2.781l-1.713 5.63L127.255 18h-2.934l-1.254-5.036Z"/></g><defs><clipPath id="a"><path fill="#fff" d="M0 0h131v58H0z"/></clipPath></defs></svg>