<svg viewBox="0 0 219 99" fill="none" xmlns="http://www.w3.org/2000/svg"><path d="M32.07 33H24v5.967h8.119V33h-.05Zm0 8.78H24v21.735h8.119V41.78h-.05Zm14.483 4.562c.702 0 1.353.194 1.854.63.502.436.752 1.31.752 2.717v13.825h8.119V49.447c0-2.425-.25-4.075-.701-4.997-.452-.922-1.253-1.65-2.305-2.231-1.103-.583-2.456-.874-4.11-.874-3.058 0-5.112 1.116-6.315 3.397l-1.153 2.183V41.78h-7.418v21.734h8.12V50.368c0-3.3 1.703-4.026 3.158-4.026h-.001ZM79.38 41.78H60.837v4.415h6.113c.4 0 1.203 0 2.406-.048l1.303-.048-10.676 13.195v4.22h19.748v-4.511h-8.72l-2.507.049L79.33 45.856V41.78h.05Zm10.875 22.172c3.209 0 5.564-1.116 7.117-3.396l1.103-1.601v1.891c0 .923.05 1.796.2 2.62h7.569c-.352-1.115-.502-2.425-.502-3.881v-9.072c0-2.377-.15-4.025-.451-4.803-.3-.775-.852-1.503-1.704-2.23-.852-.73-2.055-1.262-3.558-1.602a24.034 24.034 0 0 0-5.163-.534c-6.465 0-10.274 1.99-11.627 6.064l7.267.632c.352-1.213 1.353-2.427 4.06-2.427 1.053 0 1.854.194 2.456.583.65.436.952 1.262.952 2.474v1.067l-.551.049c-5.664.29-9.623 1.164-11.828 2.57-2.105 1.407-3.158 3.154-3.158 5.386 0 1.65.652 3.056 1.905 4.317 1.302 1.262 3.308 1.892 5.913 1.892Zm7.117-11.159.652-.048v1.747c0 2.134-.4 3.541-1.252 4.22-.803.68-1.805.971-2.907.971-1.905 0-2.958-.923-2.958-2.62-.05-2.377 2.156-3.833 6.465-4.27ZM129.7 63.952c3.558 0 6.465-.777 8.67-2.33 2.205-1.503 3.258-3.59 3.258-6.354 0-3.444-1.754-5.627-5.313-6.646l-1.854-.534 1.854-.533c1.254-.389 2.306-1.068 3.107-2.135.802-1.068 1.203-2.33 1.203-3.785 0-2.474-.952-4.365-2.957-5.82-2.005-1.505-4.711-2.232-8.019-2.232-2.956 0-5.562.727-7.668 2.231-1.954 1.359-3.358 3.3-4.059 5.725l6.515.97c.802-2.814 2.807-3.445 4.461-3.445 1.152 0 2.104.34 2.857.97.751.631 1.153 1.457 1.153 2.426 0 .777-.301 1.504-.903 2.232-.602.728-1.854 1.115-3.809 1.115h-2.656v5.24h3.257c1.204 0 2.055.097 2.606.34.551.242 1.053.679 1.505 1.212a3.4 3.4 0 0 1 .7 2.087c0 1.164-.45 2.086-1.302 2.813-.852.68-1.904 1.019-3.208 1.019-1.904 0-4.26-.727-5.112-4.124l-7.066.825c1.554 5.87 5.814 8.733 12.78 8.733Zm33.879-28.187c-1.954-1.504-4.411-2.231-7.267-2.231-4.059 0-7.117 1.456-9.271 4.414-2.206 3.008-3.308 6.89-3.308 11.546 0 2.765.501 5.288 1.503 7.616 1.003 2.282 2.456 3.98 4.411 5.144C151.6 63.418 153.855 64 156.361 64c3.408 0 6.265-.97 8.421-2.911 2.154-1.94 3.206-4.27 3.206-7.034 0-2.62-.852-4.803-2.505-6.501-1.704-1.698-3.859-2.523-6.615-2.523-2.858 0-4.762.825-5.914 2.572l-1.153 1.697.05-2.037c.1-5.676 1.654-8.538 4.661-8.538 1.403 0 3.157.63 3.609 3.638l6.915-.824c-.501-2.475-1.654-4.415-3.458-5.774ZM153.054 51.63c.801-.873 1.853-1.31 3.057-1.31 1.203 0 2.205.437 2.957 1.358.701.874 1.102 1.844 1.102 3.008 0 1.165-.35 2.135-1.102 2.96-.752.824-1.754 1.26-3.007 1.26-1.254 0-2.256-.436-3.007-1.26-.753-.825-1.153-1.796-1.153-2.96-.05-1.164.351-2.183 1.153-3.056Zm29.018-18.144c-3.659 0-6.565 1.31-8.721 4.026-2.205 2.717-3.308 6.452-3.308 11.159 0 4.608 1.103 8.343 3.259 11.157 2.154 2.766 4.961 4.124 8.62 4.124 3.658 0 6.515-1.31 8.72-4.026C192.847 57.208 194 53.52 194 48.912c0-4.512-1.052-8.296-3.107-11.206-2.105-2.814-4.962-4.22-8.821-4.22v-.001Zm3.207 22.219c-.651 2.377-2.155 2.91-3.257 2.91-1.053 0-2.406-.436-3.107-2.424-.502-1.456-.753-4.028-.753-7.86 0-2.813.251-5.045.753-6.695.701-2.28 2.104-2.765 3.157-2.765 1.253 0 2.255.727 2.956 2.135.653 1.31.953 3.88.953 7.907 0 2.813-.251 5.143-.702 6.792Z" fill="#000"/><path d="M18.896 44.335 27.029 33h-8.892L9.295 45.814V41.92H0V64h9.295v-7.146l3.335-4.584L18.188 64H29L18.895 44.335h.001Z" fill="#DF1212"/></svg>