<svg viewBox="0 0 4656 85" fill="none" xmlns="http://www.w3.org/2000/svg"><g clip-path="url(#a)"><path opacity=".65" fill="#ECECED" d="M0 0h4656v85H0z"/><g opacity=".25" fill="#A9A9AB"><path d="M9.334 6H32l-9.334-6H0l9.334 6ZM49.334 6H72l-9.334-6H40l9.334 6ZM89.334 6H112l-9.334-6H80l9.334 6ZM129.334 6H152l-9.334-6H120l9.334 6ZM169.334 6H192l-9.334-6H160l9.334 6ZM209.334 6H232l-9.334-6H200l9.334 6ZM249.334 6H272l-9.334-6H240l9.334 6ZM289.334 6H312l-9.334-6H280l9.334 6ZM329.334 6H352l-9.334-6H320l9.334 6ZM369.334 6H392l-9.334-6H360l9.334 6ZM409.334 6H432l-9.334-6H400l9.334 6ZM449.334 6H472l-9.334-6H440l9.334 6ZM489.334 6H512l-9.334-6H480l9.334 6ZM529.334 6H552l-9.334-6H520l9.334 6ZM569.334 6H592l-9.334-6H560l9.334 6ZM609.334 6H632l-9.334-6H600l9.334 6ZM649.334 6H672l-9.334-6H640l9.334 6ZM689.334 6H712l-9.334-6H680l9.334 6ZM729.334 6H752l-9.334-6H720l9.334 6ZM769.334 6H792l-9.334-6H760l9.334 6ZM809.334 6H832l-9.334-6H800l9.334 6ZM849.334 6H872l-9.334-6H840l9.334 6ZM889.334 6H912l-9.334-6H880l9.334 6ZM929.334 6H952l-9.334-6H920l9.334 6ZM969.334 6H992l-9.334-6H960l9.334 6ZM1009.33 6H1032l-9.33-6H1000l9.33 6ZM1049.33 6H1072l-9.33-6H1040l9.33 6ZM1089.33 6H1112l-9.33-6H1080l9.33 6ZM1129.33 6H1152l-9.33-6H1120l9.33 6ZM1169.33 6H1192l-9.33-6H1160l9.33 6ZM1209.33 6H1232l-9.33-6H1200l9.33 6ZM1249.33 6H1272l-9.33-6H1240l9.33 6ZM1289.33 6H1312l-9.33-6H1280l9.33 6ZM1329.33 6H1352l-9.33-6H1320l9.33 6ZM1369.33 6H1392l-9.33-6H1360l9.33 6ZM1409.33 6H1432l-9.33-6H1400l9.33 6ZM1449.33 6H1472l-9.33-6H1440l9.33 6ZM1489.33 6H1512l-9.33-6H1480l9.33 6ZM1529.33 6H1552l-9.33-6H1520l9.33 6ZM1569.33 6H1592l-9.33-6H1560l9.33 6ZM1609.33 6H1632l-9.33-6H1600l9.33 6ZM1649.33 6H1672l-9.33-6H1640l9.33 6ZM1689.33 6H1712l-9.33-6H1680l9.33 6ZM1729.33 6H1752l-9.33-6H1720l9.33 6ZM1769.33 6H1792l-9.33-6H1760l9.33 6ZM1809.33 6H1832l-9.33-6H1800l9.33 6ZM1849.33 6H1872l-9.33-6H1840l9.33 6ZM1889.33 6H1912l-9.33-6H1880l9.33 6ZM1929.33 6H1952l-9.33-6H1920l9.33 6ZM1969.33 6H1992l-9.33-6H1960l9.33 6ZM2009.33 6H2032l-9.33-6H2000l9.33 6ZM2049.33 6H2072l-9.33-6H2040l9.33 6ZM2089.33 6H2112l-9.33-6H2080l9.33 6ZM2129.33 6H2152l-9.33-6H2120l9.33 6ZM2169.33 6H2192l-9.33-6H2160l9.33 6ZM2209.33 6H2232l-9.33-6H2200l9.33 6ZM2249.33 6H2272l-9.33-6H2240l9.33 6ZM2289.33 6H2312l-9.33-6H2280l9.33 6ZM2329.33 6H2352l-9.33-6H2320l9.33 6ZM2369.33 6H2392l-9.33-6H2360l9.33 6ZM2409.33 6H2432l-9.33-6H2400l9.33 6ZM2449.33 6H2472l-9.33-6H2440l9.33 6ZM2489.33 6H2512l-9.33-6H2480l9.33 6ZM2529.33 6H2552l-9.33-6H2520l9.33 6ZM2569.33 6H2592l-9.33-6H2560l9.33 6ZM2609.33 6H2632l-9.33-6H2600l9.33 6ZM2649.33 6H2672l-9.33-6H2640l9.33 6ZM2689.33 6H2712l-9.33-6H2680l9.33 6ZM2729.33 6H2752l-9.33-6H2720l9.33 6ZM2769.33 6H2792l-9.33-6H2760l9.33 6ZM2809.33 6H2832l-9.33-6H2800l9.33 6ZM2849.33 6H2872l-9.33-6H2840l9.33 6ZM2889.33 6H2912l-9.33-6H2880l9.33 6ZM2929.33 6H2952l-9.33-6H2920l9.33 6ZM2969.33 6H2992l-9.33-6H2960l9.33 6ZM3009.33 6H3032l-9.33-6H3000l9.33 6ZM3049.33 6H3072l-9.33-6H3040l9.33 6ZM3089.33 6H3112l-9.33-6H3080l9.33 6ZM3129.33 6H3152l-9.33-6H3120l9.33 6ZM3169.33 6H3192l-9.33-6H3160l9.33 6ZM3209.33 6H3232l-9.33-6H3200l9.33 6ZM3249.33 6H3272l-9.33-6H3240l9.33 6ZM3289.33 6H3312l-9.33-6H3280l9.33 6ZM3329.33 6H3352l-9.33-6H3320l9.33 6ZM3369.33 6H3392l-9.33-6H3360l9.33 6ZM3409.33 6H3432l-9.33-6H3400l9.33 6ZM3449.33 6H3472l-9.33-6H3440l9.33 6ZM3489.33 6H3512l-9.33-6H3480l9.33 6ZM3529.33 6H3552l-9.33-6H3520l9.33 6ZM3569.33 6H3592l-9.33-6H3560l9.33 6ZM3609.33 6H3632l-9.33-6H3600l9.33 6ZM3649.33 6H3672l-9.33-6H3640l9.33 6ZM3689.33 6H3712l-9.33-6H3680l9.33 6ZM3729.33 6H3752l-9.33-6H3720l9.33 6ZM3769.33 6H3792l-9.33-6H3760l9.33 6ZM3809.33 6H3832l-9.33-6H3800l9.33 6ZM3849.33 6H3872l-9.33-6H3840l9.33 6ZM3889.33 6H3912l-9.33-6H3880l9.33 6ZM3929.33 6H3952l-9.33-6H3920l9.33 6ZM3969.33 6H3992l-9.33-6H3960l9.33 6ZM4009.33 6H4032l-9.33-6H4000l9.33 6ZM4049.33 6H4072l-9.33-6H4040l9.33 6ZM4089.33 6H4112l-9.33-6H4080l9.33 6ZM4129.33 6H4152l-9.33-6H4120l9.33 6ZM4169.33 6H4192l-9.33-6H4160l9.33 6ZM4209.33 6H4232l-9.33-6H4200l9.33 6ZM4249.33 6H4272l-9.33-6H4240l9.33 6ZM4289.33 6H4312l-9.33-6H4280l9.33 6ZM4329.33 6H4352l-9.33-6H4320l9.33 6ZM4369.33 6H4392l-9.33-6H4360l9.33 6ZM4409.33 6H4432l-9.33-6H4400l9.33 6ZM4449.33 6H4472l-9.33-6H4440l9.33 6ZM4489.33 6H4512l-9.33-6H4480l9.33 6ZM4529.33 6H4552l-9.33-6H4520l9.33 6ZM4569.33 6H4592l-9.33-6H4560l9.33 6ZM4609.33 6H4632l-9.33-6H4600l9.33 6ZM4649.33 6H4672l-9.33-6H4640l9.33 6ZM4689.33 6H4712l-9.33-6H4680l9.33 6ZM4729.33 6H4752l-9.33-6H4720l9.33 6ZM4769.33 6H4792l-9.33-6H4760l9.33 6ZM4809.33 6H4832l-9.33-6H4800l9.33 6ZM4849.33 6H4872l-9.33-6H4840l9.33 6ZM4889.33 6H4912l-9.33-6H4880l9.33 6ZM4929.33 6H4952l-9.33-6H4920l9.33 6ZM4969.33 6H4992l-9.33-6H4960l9.33 6ZM5009.33 6H5032l-9.33-6H5000l9.33 6ZM5049.33 6H5072l-9.33-6H5040l9.33 6ZM5089.33 6H5112l-9.33-6H5080l9.33 6ZM5129.33 6H5152l-9.33-6H5120l9.33 6ZM5169.33 6H5192l-9.33-6H5160l9.33 6ZM5209.33 6H5232l-9.33-6H5200l9.33 6ZM5249.33 6H5272l-9.33-6H5240l9.33 6ZM5289.33 6H5312l-9.33-6H5280l9.33 6ZM5329.33 6H5352l-9.33-6H5320l9.33 6ZM5369.33 6H5392l-9.33-6H5360l9.33 6ZM5409.33 6H5432l-9.33-6H5400l9.33 6ZM5449.33 6H5472l-9.33-6H5440l9.33 6ZM5489.33 6H5512l-9.33-6H5480l9.33 6ZM5529.33 6H5552l-9.33-6H5520l9.33 6ZM5569.33 6H5592l-9.33-6H5560l9.33 6ZM5609.33 6H5632l-9.33-6H5600l9.33 6ZM5649.33 6H5672l-9.33-6H5640l9.33 6ZM5689.33 6H5712l-9.33-6H5680l9.33 6ZM5729.33 6H5752l-9.33-6H5720l9.33 6ZM5769.33 6H5792l-9.33-6H5760l9.33 6ZM5809.33 6H5832l-9.33-6H5800l9.33 6ZM5849.33 6H5872l-9.33-6H5840l9.33 6ZM5889.33 6H5912l-9.33-6H5880l9.33 6ZM5929.33 6H5952l-9.33-6H5920l9.33 6ZM5969.33 6H5992l-9.33-6H5960l9.33 6ZM6009.33 6H6032l-9.33-6H6000l9.33 6ZM6049.33 6H6072l-9.33-6H6040l9.33 6ZM6089.33 6H6112l-9.33-6H6080l9.33 6ZM6129.33 6H6152l-9.33-6H6120l9.33 6ZM6169.33 6H6192l-9.33-6H6160l9.33 6ZM6209.33 6H6232l-9.33-6H6200l9.33 6ZM6249.33 6H6272l-9.33-6H6240l9.33 6ZM6289.33 6H6312l-9.33-6H6280l9.33 6ZM6329.33 6H6352l-9.33-6H6320l9.33 6ZM6369.33 6H6392l-9.33-6H6360l9.33 6ZM6409.33 6H6432l-9.33-6H6400l9.33 6ZM6449.33 6H6472l-9.33-6H6440l9.33 6ZM6489.33 6H6512l-9.33-6H6480l9.33 6ZM6529.33 6H6552l-9.33-6H6520l9.33 6ZM6569.33 6H6592l-9.33-6H6560l9.33 6ZM6609.33 6H6632l-9.33-6H6600l9.33 6ZM6649.33 6H6672l-9.33-6H6640l9.33 6ZM6689.33 6H6712l-9.33-6H6680l9.33 6ZM6729.33 6H6752l-9.33-6H6720l9.33 6ZM6769.33 6H6792l-9.33-6H6760l9.33 6ZM6809.33 6H6832l-9.33-6H6800l9.33 6ZM6849.33 6H6872l-9.33-6H6840l9.33 6ZM6889.33 6H6912l-9.33-6H6880l9.33 6ZM6929.33 6H6952l-9.33-6H6920l9.33 6ZM6969.33 6H6992l-9.33-6H6960l9.33 6ZM7009.33 6H7032l-9.33-6H7000l9.33 6ZM7049.33 6H7072l-9.33-6H7040l9.33 6ZM7089.33 6H7112l-9.33-6H7080l9.33 6ZM7129.33 6H7152l-9.33-6H7120l9.33 6ZM7169.33 6H7192l-9.33-6H7160l9.33 6ZM7209.33 6H7232l-9.33-6H7200l9.33 6ZM7249.33 6H7272l-9.33-6H7240l9.33 6ZM7289.33 6H7312l-9.33-6H7280l9.33 6ZM7329.33 6H7352l-9.33-6H7320l9.33 6ZM7369.33 6H7392l-9.33-6H7360l9.33 6ZM7409.33 6H7432l-9.33-6H7400l9.33 6ZM7449.33 6H7472l-9.33-6H7440l9.33 6ZM7489.33 6H7512l-9.33-6H7480l9.33 6ZM7529.33 6H7552l-9.33-6H7520l9.33 6ZM7569.33 6H7592l-9.33-6H7560l9.33 6ZM7609.33 6H7632l-9.33-6H7600l9.33 6ZM7649.33 6H7672l-9.33-6H7640l9.33 6ZM7689.33 6H7712l-9.33-6H7680l9.33 6ZM7729.33 6H7752l-9.33-6H7720l9.33 6ZM7769.33 6H7792l-9.33-6H7760l9.33 6ZM7809.33 6H7832l-9.33-6H7800l9.33 6ZM7849.33 6H7872l-9.33-6H7840l9.33 6ZM7889.33 6H7912l-9.33-6H7880l9.33 6ZM7929.33 6H7952l-9.33-6H7920l9.33 6ZM7969.33 6H7992l-9.33-6H7960l9.33 6ZM8009.33 6H8032l-9.33-6H8000l9.33 6ZM8049.33 6H8072l-9.33-6H8040l9.33 6ZM8089.33 6H8112l-9.33-6H8080l9.33 6ZM8129.33 6H8152l-9.33-6H8120l9.33 6ZM8169.33 6H8192l-9.33-6H8160l9.33 6ZM8209.33 6H8232l-9.33-6H8200l9.33 6ZM8249.33 6H8272l-9.33-6H8240l9.33 6ZM8289.33 6H8312l-9.33-6H8280l9.33 6ZM8329.33 6H8352l-9.33-6H8320l9.33 6ZM8369.33 6H8392l-9.33-6H8360l9.33 6ZM8409.33 6H8432l-9.33-6H8400l9.33 6ZM8449.33 6H8472l-9.33-6H8440l9.33 6ZM8489.33 6H8512l-9.33-6H8480l9.33 6ZM8529.33 6H8552l-9.33-6H8520l9.33 6ZM8569.33 6H8592l-9.33-6H8560l9.33 6ZM8609.33 6H8632l-9.33-6H8600l9.33 6ZM8649.33 6H8672l-9.33-6H8640l9.33 6ZM8689.33 6H8712l-9.33-6H8680l9.33 6ZM8729.33 6H8752l-9.33-6H8720l9.33 6ZM8769.33 6H8792l-9.33-6H8760l9.33 6ZM8809.33 6H8832l-9.33-6H8800l9.33 6ZM8849.33 6H8872l-9.33-6H8840l9.33 6ZM8889.33 6H8912l-9.33-6H8880l9.33 6ZM8929.33 6H8952l-9.33-6H8920l9.33 6ZM8969.33 6H8992l-9.33-6H8960l9.33 6ZM9009.33 6H9032l-9.33-6H9000l9.33 6ZM9049.33 6H9072l-9.33-6H9040l9.33 6ZM9089.33 6H9112l-9.33-6H9080l9.33 6ZM9129.33 6H9152l-9.33-6H9120l9.33 6ZM9169.33 6H9192l-9.33-6H9160l9.33 6ZM9209.33 6H9232l-9.33-6H9200l9.33 6ZM9249.33 6H9272l-9.33-6H9240l9.33 6Z"/></g><g opacity=".25" fill="#A9A9AB"><path d="M9.334 85H32l-9.334-6H0l9.334 6ZM49.334 85H72l-9.334-6H40l9.334 6ZM89.334 85H112l-9.334-6H80l9.334 6ZM129.334 85H152l-9.334-6H120l9.334 6ZM169.334 85H192l-9.334-6H160l9.334 6ZM209.334 85H232l-9.334-6H200l9.334 6ZM249.334 85H272l-9.334-6H240l9.334 6ZM289.334 85H312l-9.334-6H280l9.334 6ZM329.334 85H352l-9.334-6H320l9.334 6ZM369.334 85H392l-9.334-6H360l9.334 6ZM409.334 85H432l-9.334-6H400l9.334 6ZM449.334 85H472l-9.334-6H440l9.334 6ZM489.334 85H512l-9.334-6H480l9.334 6ZM529.334 85H552l-9.334-6H520l9.334 6ZM569.334 85H592l-9.334-6H560l9.334 6ZM609.334 85H632l-9.334-6H600l9.334 6ZM649.334 85H672l-9.334-6H640l9.334 6ZM689.334 85H712l-9.334-6H680l9.334 6ZM729.334 85H752l-9.334-6H720l9.334 6ZM769.334 85H792l-9.334-6H760l9.334 6ZM809.334 85H832l-9.334-6H800l9.334 6ZM849.334 85H872l-9.334-6H840l9.334 6ZM889.334 85H912l-9.334-6H880l9.334 6ZM929.334 85H952l-9.334-6H920l9.334 6ZM969.334 85H992l-9.334-6H960l9.334 6ZM1009.33 85H1032l-9.33-6H1000l9.33 6ZM1049.33 85H1072l-9.33-6H1040l9.33 6ZM1089.33 85H1112l-9.33-6H1080l9.33 6ZM1129.33 85H1152l-9.33-6H1120l9.33 6ZM1169.33 85H1192l-9.33-6H1160l9.33 6ZM1209.33 85H1232l-9.33-6H1200l9.33 6ZM1249.33 85H1272l-9.33-6H1240l9.33 6ZM1289.33 85H1312l-9.33-6H1280l9.33 6ZM1329.33 85H1352l-9.33-6H1320l9.33 6ZM1369.33 85H1392l-9.33-6H1360l9.33 6ZM1409.33 85H1432l-9.33-6H1400l9.33 6ZM1449.33 85H1472l-9.33-6H1440l9.33 6ZM1489.33 85H1512l-9.33-6H1480l9.33 6ZM1529.33 85H1552l-9.33-6H1520l9.33 6ZM1569.33 85H1592l-9.33-6H1560l9.33 6ZM1609.33 85H1632l-9.33-6H1600l9.33 6ZM1649.33 85H1672l-9.33-6H1640l9.33 6ZM1689.33 85H1712l-9.33-6H1680l9.33 6ZM1729.33 85H1752l-9.33-6H1720l9.33 6ZM1769.33 85H1792l-9.33-6H1760l9.33 6ZM1809.33 85H1832l-9.33-6H1800l9.33 6ZM1849.33 85H1872l-9.33-6H1840l9.33 6ZM1889.33 85H1912l-9.33-6H1880l9.33 6ZM1929.33 85H1952l-9.33-6H1920l9.33 6ZM1969.33 85H1992l-9.33-6H1960l9.33 6ZM2009.33 85H2032l-9.33-6H2000l9.33 6ZM2049.33 85H2072l-9.33-6H2040l9.33 6ZM2089.33 85H2112l-9.33-6H2080l9.33 6ZM2129.33 85H2152l-9.33-6H2120l9.33 6ZM2169.33 85H2192l-9.33-6H2160l9.33 6ZM2209.33 85H2232l-9.33-6H2200l9.33 6ZM2249.33 85H2272l-9.33-6H2240l9.33 6ZM2289.33 85H2312l-9.33-6H2280l9.33 6ZM2329.33 85H2352l-9.33-6H2320l9.33 6ZM2369.33 85H2392l-9.33-6H2360l9.33 6ZM2409.33 85H2432l-9.33-6H2400l9.33 6ZM2449.33 85H2472l-9.33-6H2440l9.33 6ZM2489.33 85H2512l-9.33-6H2480l9.33 6ZM2529.33 85H2552l-9.33-6H2520l9.33 6ZM2569.33 85H2592l-9.33-6H2560l9.33 6ZM2609.33 85H2632l-9.33-6H2600l9.33 6ZM2649.33 85H2672l-9.33-6H2640l9.33 6ZM2689.33 85H2712l-9.33-6H2680l9.33 6ZM2729.33 85H2752l-9.33-6H2720l9.33 6ZM2769.33 85H2792l-9.33-6H2760l9.33 6ZM2809.33 85H2832l-9.33-6H2800l9.33 6ZM2849.33 85H2872l-9.33-6H2840l9.33 6ZM2889.33 85H2912l-9.33-6H2880l9.33 6ZM2929.33 85H2952l-9.33-6H2920l9.33 6ZM2969.33 85H2992l-9.33-6H2960l9.33 6ZM3009.33 85H3032l-9.33-6H3000l9.33 6ZM3049.33 85H3072l-9.33-6H3040l9.33 6ZM3089.33 85H3112l-9.33-6H3080l9.33 6ZM3129.33 85H3152l-9.33-6H3120l9.33 6ZM3169.33 85H3192l-9.33-6H3160l9.33 6ZM3209.33 85H3232l-9.33-6H3200l9.33 6ZM3249.33 85H3272l-9.33-6H3240l9.33 6ZM3289.33 85H3312l-9.33-6H3280l9.33 6ZM3329.33 85H3352l-9.33-6H3320l9.33 6ZM3369.33 85H3392l-9.33-6H3360l9.33 6ZM3409.33 85H3432l-9.33-6H3400l9.33 6ZM3449.33 85H3472l-9.33-6H3440l9.33 6ZM3489.33 85H3512l-9.33-6H3480l9.33 6ZM3529.33 85H3552l-9.33-6H3520l9.33 6ZM3569.33 85H3592l-9.33-6H3560l9.33 6ZM3609.33 85H3632l-9.33-6H3600l9.33 6ZM3649.33 85H3672l-9.33-6H3640l9.33 6ZM3689.33 85H3712l-9.33-6H3680l9.33 6ZM3729.33 85H3752l-9.33-6H3720l9.33 6ZM3769.33 85H3792l-9.33-6H3760l9.33 6ZM3809.33 85H3832l-9.33-6H3800l9.33 6ZM3849.33 85H3872l-9.33-6H3840l9.33 6ZM3889.33 85H3912l-9.33-6H3880l9.33 6ZM3929.33 85H3952l-9.33-6H3920l9.33 6ZM3969.33 85H3992l-9.33-6H3960l9.33 6ZM4009.33 85H4032l-9.33-6H4000l9.33 6ZM4049.33 85H4072l-9.33-6H4040l9.33 6ZM4089.33 85H4112l-9.33-6H4080l9.33 6ZM4129.33 85H4152l-9.33-6H4120l9.33 6ZM4169.33 85H4192l-9.33-6H4160l9.33 6ZM4209.33 85H4232l-9.33-6H4200l9.33 6ZM4249.33 85H4272l-9.33-6H4240l9.33 6ZM4289.33 85H4312l-9.33-6H4280l9.33 6ZM4329.33 85H4352l-9.33-6H4320l9.33 6ZM4369.33 85H4392l-9.33-6H4360l9.33 6ZM4409.33 85H4432l-9.33-6H4400l9.33 6ZM4449.33 85H4472l-9.33-6H4440l9.33 6ZM4489.33 85H4512l-9.33-6H4480l9.33 6ZM4529.33 85H4552l-9.33-6H4520l9.33 6ZM4569.33 85H4592l-9.33-6H4560l9.33 6ZM4609.33 85H4632l-9.33-6H4600l9.33 6ZM4649.33 85H4672l-9.33-6H4640l9.33 6ZM4689.33 85H4712l-9.33-6H4680l9.33 6ZM4729.33 85H4752l-9.33-6H4720l9.33 6ZM4769.33 85H4792l-9.33-6H4760l9.33 6ZM4809.33 85H4832l-9.33-6H4800l9.33 6ZM4849.33 85H4872l-9.33-6H4840l9.33 6ZM4889.33 85H4912l-9.33-6H4880l9.33 6ZM4929.33 85H4952l-9.33-6H4920l9.33 6ZM4969.33 85H4992l-9.33-6H4960l9.33 6ZM5009.33 85H5032l-9.33-6H5000l9.33 6ZM5049.33 85H5072l-9.33-6H5040l9.33 6ZM5089.33 85H5112l-9.33-6H5080l9.33 6ZM5129.33 85H5152l-9.33-6H5120l9.33 6ZM5169.33 85H5192l-9.33-6H5160l9.33 6ZM5209.33 85H5232l-9.33-6H5200l9.33 6ZM5249.33 85H5272l-9.33-6H5240l9.33 6ZM5289.33 85H5312l-9.33-6H5280l9.33 6ZM5329.33 85H5352l-9.33-6H5320l9.33 6ZM5369.33 85H5392l-9.33-6H5360l9.33 6ZM5409.33 85H5432l-9.33-6H5400l9.33 6ZM5449.33 85H5472l-9.33-6H5440l9.33 6ZM5489.33 85H5512l-9.33-6H5480l9.33 6ZM5529.33 85H5552l-9.33-6H5520l9.33 6ZM5569.33 85H5592l-9.33-6H5560l9.33 6ZM5609.33 85H5632l-9.33-6H5600l9.33 6ZM5649.33 85H5672l-9.33-6H5640l9.33 6ZM5689.33 85H5712l-9.33-6H5680l9.33 6ZM5729.33 85H5752l-9.33-6H5720l9.33 6ZM5769.33 85H5792l-9.33-6H5760l9.33 6ZM5809.33 85H5832l-9.33-6H5800l9.33 6ZM5849.33 85H5872l-9.33-6H5840l9.33 6ZM5889.33 85H5912l-9.33-6H5880l9.33 6ZM5929.33 85H5952l-9.33-6H5920l9.33 6ZM5969.33 85H5992l-9.33-6H5960l9.33 6ZM6009.33 85H6032l-9.33-6H6000l9.33 6ZM6049.33 85H6072l-9.33-6H6040l9.33 6ZM6089.33 85H6112l-9.33-6H6080l9.33 6ZM6129.33 85H6152l-9.33-6H6120l9.33 6ZM6169.33 85H6192l-9.33-6H6160l9.33 6ZM6209.33 85H6232l-9.33-6H6200l9.33 6ZM6249.33 85H6272l-9.33-6H6240l9.33 6ZM6289.33 85H6312l-9.33-6H6280l9.33 6ZM6329.33 85H6352l-9.33-6H6320l9.33 6ZM6369.33 85H6392l-9.33-6H6360l9.33 6ZM6409.33 85H6432l-9.33-6H6400l9.33 6ZM6449.33 85H6472l-9.33-6H6440l9.33 6ZM6489.33 85H6512l-9.33-6H6480l9.33 6ZM6529.33 85H6552l-9.33-6H6520l9.33 6ZM6569.33 85H6592l-9.33-6H6560l9.33 6ZM6609.33 85H6632l-9.33-6H6600l9.33 6ZM6649.33 85H6672l-9.33-6H6640l9.33 6ZM6689.33 85H6712l-9.33-6H6680l9.33 6ZM6729.33 85H6752l-9.33-6H6720l9.33 6ZM6769.33 85H6792l-9.33-6H6760l9.33 6ZM6809.33 85H6832l-9.33-6H6800l9.33 6ZM6849.33 85H6872l-9.33-6H6840l9.33 6ZM6889.33 85H6912l-9.33-6H6880l9.33 6ZM6929.33 85H6952l-9.33-6H6920l9.33 6ZM6969.33 85H6992l-9.33-6H6960l9.33 6ZM7009.33 85H7032l-9.33-6H7000l9.33 6ZM7049.33 85H7072l-9.33-6H7040l9.33 6ZM7089.33 85H7112l-9.33-6H7080l9.33 6ZM7129.33 85H7152l-9.33-6H7120l9.33 6ZM7169.33 85H7192l-9.33-6H7160l9.33 6ZM7209.33 85H7232l-9.33-6H7200l9.33 6ZM7249.33 85H7272l-9.33-6H7240l9.33 6ZM7289.33 85H7312l-9.33-6H7280l9.33 6ZM7329.33 85H7352l-9.33-6H7320l9.33 6ZM7369.33 85H7392l-9.33-6H7360l9.33 6ZM7409.33 85H7432l-9.33-6H7400l9.33 6ZM7449.33 85H7472l-9.33-6H7440l9.33 6ZM7489.33 85H7512l-9.33-6H7480l9.33 6ZM7529.33 85H7552l-9.33-6H7520l9.33 6ZM7569.33 85H7592l-9.33-6H7560l9.33 6ZM7609.33 85H7632l-9.33-6H7600l9.33 6ZM7649.33 85H7672l-9.33-6H7640l9.33 6ZM7689.33 85H7712l-9.33-6H7680l9.33 6ZM7729.33 85H7752l-9.33-6H7720l9.33 6ZM7769.33 85H7792l-9.33-6H7760l9.33 6ZM7809.33 85H7832l-9.33-6H7800l9.33 6ZM7849.33 85H7872l-9.33-6H7840l9.33 6ZM7889.33 85H7912l-9.33-6H7880l9.33 6ZM7929.33 85H7952l-9.33-6H7920l9.33 6ZM7969.33 85H7992l-9.33-6H7960l9.33 6ZM8009.33 85H8032l-9.33-6H8000l9.33 6ZM8049.33 85H8072l-9.33-6H8040l9.33 6ZM8089.33 85H8112l-9.33-6H8080l9.33 6ZM8129.33 85H8152l-9.33-6H8120l9.33 6ZM8169.33 85H8192l-9.33-6H8160l9.33 6ZM8209.33 85H8232l-9.33-6H8200l9.33 6ZM8249.33 85H8272l-9.33-6H8240l9.33 6ZM8289.33 85H8312l-9.33-6H8280l9.33 6ZM8329.33 85H8352l-9.33-6H8320l9.33 6ZM8369.33 85H8392l-9.33-6H8360l9.33 6ZM8409.33 85H8432l-9.33-6H8400l9.33 6ZM8449.33 85H8472l-9.33-6H8440l9.33 6ZM8489.33 85H8512l-9.33-6H8480l9.33 6ZM8529.33 85H8552l-9.33-6H8520l9.33 6ZM8569.33 85H8592l-9.33-6H8560l9.33 6ZM8609.33 85H8632l-9.33-6H8600l9.33 6ZM8649.33 85H8672l-9.33-6H8640l9.33 6ZM8689.33 85H8712l-9.33-6H8680l9.33 6ZM8729.33 85H8752l-9.33-6H8720l9.33 6ZM8769.33 85H8792l-9.33-6H8760l9.33 6ZM8809.33 85H8832l-9.33-6H8800l9.33 6ZM8849.33 85H8872l-9.33-6H8840l9.33 6ZM8889.33 85H8912l-9.33-6H8880l9.33 6ZM8929.33 85H8952l-9.33-6H8920l9.33 6ZM8969.33 85H8992l-9.33-6H8960l9.33 6ZM9009.33 85H9032l-9.33-6H9000l9.33 6ZM9049.33 85H9072l-9.33-6H9040l9.33 6ZM9089.33 85H9112l-9.33-6H9080l9.33 6ZM9129.33 85H9152l-9.33-6H9120l9.33 6ZM9169.33 85H9192l-9.33-6H9160l9.33 6ZM9209.33 85H9232l-9.33-6H9200l9.33 6ZM9249.33 85H9272l-9.33-6H9240l9.33 6Z"/></g><g opacity=".7" fill="#A9A9AB"><path d="M20.893 55V29.704h4.93l1.836 13.362 1.87-13.362h4.59V55h-3.604V38.646L28.203 55h-1.53l-2.346-16.354V55h-3.434Zm19.096-15.504h2.244c2.63 0 3.944 1.553 3.944 4.658v6.426c0 1.519-.317 2.64-.952 3.366-.635.703-1.632 1.054-2.992 1.054h-6.086V29.704h3.842v9.792Zm0 11.832h.986c.521 0 .873-.147 1.054-.442.181-.295.272-.725.272-1.292v-4.59c0-.612-.09-1.065-.272-1.36-.159-.317-.51-.476-1.054-.476h-.986v8.16Zm11.118-21.624V55h-3.842V29.704h3.842Zm10.031 14.178V55h-3.842V29.704h3.842v10.132h2.618V29.704h3.842V55h-3.842V43.882h-2.618ZM76.191 55l-.51-4.76h-2.822L72.383 55h-3.434l3.094-25.296h4.556L79.897 55h-3.706Zm-1.938-17.884-.986 9.35h2.006l-1.02-9.35ZM85.336 55V29.704h4.93l1.836 13.362 1.87-13.362h4.59V55h-3.604V38.646L92.646 55h-1.53L88.77 38.646V55h-3.434Zm15.322-25.296h8.738v3.672H104.5v6.63h3.842v3.842H104.5v7.31h5.1V55h-8.942V29.704Zm16.694 14.79h-2.244V55h-3.842V29.704h6.086c1.383 0 2.38.329 2.992.986.635.635.952 1.7.952 3.196v5.984c0 3.083-1.314 4.624-3.944 4.624Zm-2.244-11.356v7.718h.986c.544 0 .896-.147 1.054-.442.182-.317.272-.782.272-1.394v-4.148c0-.567-.09-.997-.272-1.292-.181-.295-.532-.442-1.054-.442h-.986Zm18.432 2.108v14.11c0 3.967-1.632 5.95-4.896 5.95h-.646c-3.31 0-4.964-1.983-4.964-5.95V35.28c0-3.876 1.643-5.814 4.93-5.814h.646c1.768 0 3.026.499 3.774 1.496.77.997 1.156 2.425 1.156 4.284Zm-3.91 14.382V35.076c0-1.292-.442-1.938-1.326-1.938-.907 0-1.36.646-1.36 1.938v14.552c0 1.292.464 1.938 1.394 1.938.861 0 1.292-.646 1.292-1.938ZM135.468 55V29.704h10.03V55h-3.842V33.376h-2.346V55h-3.842Zm18.289-10.506h-2.244V55h-3.842V29.704h6.086c1.383 0 2.38.329 2.992.986.635.635.952 1.7.952 3.196v5.984c0 3.083-1.314 4.624-3.944 4.624Zm-2.244-11.356v7.718h.986c.544 0 .896-.147 1.054-.442.182-.317.272-.782.272-1.394v-4.148c0-.567-.09-.997-.272-1.292-.181-.295-.532-.442-1.054-.442h-.986ZM166.069 55V41.298L163.315 55h-3.842V29.704h3.842v13.702l2.754-13.702h3.842V55h-3.842Zm12.057-10.608h-.442L174.862 55h-3.944l3.06-11.288c-1.405-.453-2.108-1.473-2.108-3.06v-7.038c0-1.405.318-2.403.952-2.992.635-.612 1.61-.918 2.924-.918h6.222V55h-3.842V44.392Zm0-3.672v-7.582h-1.02c-.566 0-.94.125-1.122.374-.181.25-.272.669-.272 1.258v4.148c0 1.201.465 1.802 1.394 1.802h1.02Zm5.541-11.016h10.268v3.672h-3.23V55h-3.808V33.376h-3.23v-3.672ZM202.109 55V41.298L199.355 55h-3.842V29.704h3.842v13.702l2.754-13.702h3.842V55h-3.842Zm12.057-10.608h-.442L210.902 55h-3.944l3.06-11.288c-1.405-.453-2.108-1.473-2.108-3.06v-7.038c0-1.405.318-2.403.952-2.992.635-.612 1.61-.918 2.924-.918h6.222V55h-3.842V44.392Zm0-3.672v-7.582h-1.02c-.566 0-.94.125-1.122.374-.181.25-.272.669-.272 1.258v4.148c0 1.201.465 1.802 1.394 1.802h1.02Zm8.533.748-2.856-11.764h3.91l1.632 7.99 1.564-7.99h3.74l-2.89 11.764L231.063 55h-3.978l-1.904-9.146L223.243 55h-3.876l3.332-13.532ZM265 27l3.143 9.674h10.172l-8.229 5.979 3.143 9.673L265 46.347l-8.229 5.98 3.143-9.674-8.229-5.98h10.172L265 27ZM300.041 55V29.704h10.03V55h-3.842V33.376h-2.346V55h-3.842Zm18.289-10.506h-2.244V55h-3.842V29.704h6.086c1.383 0 2.38.329 2.992.986.635.635.952 1.7.952 3.196v5.984c0 3.083-1.315 4.624-3.944 4.624Zm-2.244-11.356v7.718h.986c.544 0 .895-.147 1.054-.442.181-.317.272-.782.272-1.394v-4.148c0-.567-.091-.997-.272-1.292-.181-.295-.533-.442-1.054-.442h-.986ZM330.642 55V41.298L327.888 55h-3.842V29.704h3.842v13.702l2.754-13.702h3.842V55h-3.842Zm8.521-13.532-2.856-11.764h3.91l1.632 7.99 1.564-7.99h3.74l-2.89 11.764L347.527 55h-3.978l-1.904-9.146L339.707 55h-3.876l3.332-13.532Zm20.056-6.222v14.11c0 3.967-1.632 5.95-4.896 5.95h-.646c-3.309 0-4.964-1.983-4.964-5.95V35.28c0-3.876 1.644-5.814 4.93-5.814h.646c1.768 0 3.026.499 3.774 1.496.771.997 1.156 2.425 1.156 4.284Zm-3.91 14.382V35.076c0-1.292-.442-1.938-1.326-1.938-.906 0-1.36.646-1.36 1.938v14.552c0 1.292.465 1.938 1.394 1.938.862 0 1.292-.646 1.292-1.938Zm15.295 8.942V55h-6.664v3.57h-3.502v-7.412h.85c.431-.884.748-1.95.952-3.196.34-2.267.51-8.353.51-18.258h9.656v21.454h1.7v7.412h-3.502Zm-4.76-10.506a13.135 13.135 0 0 1-.748 3.094h3.468V33.376h-2.21c0 7.39-.17 12.285-.51 14.688ZM382.27 55V41.298L379.516 55h-3.842V29.704h3.842v13.702l2.754-13.702h3.842V55h-3.842Zm9.541-4.352V55h-3.536v-4.352h3.536Zm-3.842-20.944h4.216l-1.496 20.094h-1.258l-1.462-20.094ZM427 27l3.143 9.674h10.172l-8.229 5.979 3.143 9.673L427 46.347l-8.229 5.98 3.143-9.674-8.229-5.98h10.172L427 27ZM461.649 29.704h10.268v3.672h-3.23V55h-3.808V33.376h-3.23v-3.672Zm22.318 5.542v14.11c0 3.967-1.632 5.95-4.896 5.95h-.646c-3.309 0-4.964-1.983-4.964-5.95V35.28c0-3.876 1.643-5.814 4.93-5.814h.646c1.768 0 3.026.499 3.774 1.496.771.997 1.156 2.425 1.156 4.284Zm-3.91 14.382V35.076c0-1.292-.442-1.938-1.326-1.938-.907 0-1.36.646-1.36 1.938v14.552c0 1.292.465 1.938 1.394 1.938.861 0 1.292-.646 1.292-1.938ZM485.896 55V29.704h10.03V55h-3.842V33.376h-2.346V55h-3.842Zm16.336 0V29.704h6.052c1.496 0 2.539.351 3.128 1.054.612.703.918 1.723.918 3.06v3.876c0 1.859-.635 3.026-1.904 3.502 1.473.567 2.21 1.802 2.21 3.706v5.474c0 1.428-.34 2.561-1.02 3.4-.657.816-1.677 1.224-3.06 1.224h-6.324Zm4.998-11.526h-1.156v7.956h1.156c.589 0 .986-.136 1.19-.408.204-.272.306-.703.306-1.292v-4.624c0-.567-.102-.975-.306-1.224-.204-.272-.601-.408-1.19-.408Zm0-10.336h-1.156V39.7h1.156c.884 0 1.326-.59 1.326-1.768v-3.196c0-.567-.102-.975-.306-1.224-.181-.25-.521-.374-1.02-.374Zm13.56 16.728v-5.882h3.774v5.848c0 3.65-1.53 5.474-4.59 5.474h-.85c-3.151 0-4.726-1.78-4.726-5.338V34.532c0-1.45.362-2.652 1.088-3.604.725-.975 1.892-1.462 3.502-1.462h.884c.997 0 1.824.147 2.482.442.68.295 1.167.725 1.462 1.292a5.65 5.65 0 0 1 .578 1.666c.113.521.17 1.145.17 1.87v4.522h-3.774v-4.454c0-1.11-.431-1.666-1.292-1.666-.454 0-.771.136-.952.408-.159.25-.238.669-.238 1.258v15.028c0 1.156.408 1.734 1.224 1.734.838 0 1.258-.567 1.258-1.7Zm5.203-20.162h10.268v3.672h-3.23V55h-3.808V33.376h-3.23v-3.672Zm18 14.79h-2.244V55h-3.842V29.704h6.086c1.382 0 2.38.329 2.992.986.634.635.952 1.7.952 3.196v5.984c0 3.083-1.315 4.624-3.944 4.624Zm-2.244-11.356v7.718h.986c.544 0 .895-.147 1.054-.442.181-.317.272-.782.272-1.394v-4.148c0-.567-.091-.997-.272-1.292-.182-.295-.533-.442-1.054-.442h-.986Zm8.027-3.434h8.738v3.672h-4.896v6.63h3.842v3.842h-3.842v7.31h5.1V55h-8.942V29.704ZM566.572 55V44.562c-.68.227-1.462.34-2.346.34h-.034c-1.383 0-2.414-.363-3.094-1.088-.657-.725-.986-1.711-.986-2.958V29.704h3.842v9.486c0 .725.102 1.213.306 1.462.204.25.544.374 1.02.374h.068c.567 0 .975-.068 1.224-.204V29.704h3.842V55h-3.842Zm12.541 0V41.298L576.359 55h-3.842V29.704h3.842v13.702l2.754-13.702h3.842V55h-3.842ZM618 27l3.143 9.674h10.172l-8.229 5.979 3.143 9.673L618 46.347l-8.229 5.98 3.143-9.674-8.229-5.98h10.172L618 27ZM659.795 55V33.376h-2.244c0 9.044-.113 14.926-.34 17.646-.091 1.36-.442 2.369-1.054 3.026-.589.635-1.575.952-2.958.952h-.952v-3.91h.272c.431 0 .725-.125.884-.374.159-.25.261-.691.306-1.326.159-1.519.238-8.08.238-19.686h9.69V55h-3.842Zm15.481-25.296-3.672 21.964c-.204 1.247-.521 2.12-.952 2.618-.43.476-1.133.714-2.108.714h-2.482v-3.91h.884c.204 0 .363-.034.476-.102a.528.528 0 0 0 .272-.272c.046-.113.091-.26.136-.442l.102-.782c.068-.408.023-1.088-.136-2.04l-2.856-17.748h3.91l1.428 11.186 1.36-11.186h3.638ZM682.819 55V44.562c-.68.227-1.462.34-2.346.34h-.034c-1.382 0-2.414-.363-3.094-1.088-.657-.725-.986-1.711-.986-2.958V29.704h3.842v9.486c0 .725.102 1.213.306 1.462.204.25.544.374 1.02.374h.068c.567 0 .975-.068 1.224-.204V29.704h3.842V55h-3.842Zm5.946 0V29.704h3.842v21.454h2.176V29.704h3.842v21.454h2.176V29.704h3.842V55h-15.878Zm24.574 0V41.298L710.585 55h-3.842V29.704h3.842v13.702l2.754-13.702h3.842V55h-3.842Zm6.006-25.296h8.738v3.672h-4.896v6.63h3.842v3.842h-3.842v7.31h5.1V55h-8.942V29.704Zm21.031 20.162v-5.882h3.774v5.848c0 3.65-1.53 5.474-4.59 5.474h-.85c-3.151 0-4.726-1.78-4.726-5.338V34.532c0-1.45.363-2.652 1.088-3.604.725-.975 1.893-1.462 3.502-1.462h.884c.997 0 1.825.147 2.482.442.68.295 1.167.725 1.462 1.292.295.567.487 1.122.578 1.666.113.521.17 1.145.17 1.87v4.522h-3.774v-4.454c0-1.11-.431-1.666-1.292-1.666-.453 0-.771.136-.952.408-.159.25-.238.669-.238 1.258v15.028c0 1.156.408 1.734 1.224 1.734.839 0 1.258-.567 1.258-1.7ZM745.987 55V29.704h10.03V55h-3.842V33.376h-2.346V55h-3.842Zm18.731 0V41.298L761.964 55h-3.842V29.704h3.842v13.702l2.754-13.702h3.842V55h-3.842Zm12.976 0-3.196-10.982V55h-3.842V29.704h3.842v10.132l3.026-10.132h3.74l-3.57 11.764L781.638 55h-3.944Zm5.198-25.296h8.738v3.672h-4.896v6.63h3.842v3.842h-3.842v7.31h5.1V55h-8.942V29.704Zm16.694 14.79h-2.244V55H793.5V29.704h6.086c1.382 0 2.38.329 2.992.986.634.635.952 1.7.952 3.196v5.984c0 3.083-1.315 4.624-3.944 4.624Zm-2.244-11.356v7.718h.986c.544 0 .895-.147 1.054-.442.181-.317.272-.782.272-1.394v-4.148c0-.567-.091-.997-.272-1.292-.182-.295-.533-.442-1.054-.442h-.986Zm11.801 6.358h2.244c2.629 0 3.944 1.553 3.944 4.658v6.426c0 1.519-.317 2.64-.952 3.366-.635.703-1.632 1.054-2.992 1.054h-6.086V29.704h3.842v9.792Zm0 11.832h.986c.521 0 .873-.147 1.054-.442.181-.295.272-.725.272-1.292v-4.59c0-.612-.091-1.065-.272-1.36-.159-.317-.51-.476-1.054-.476h-.986v8.16Zm11.118-21.624V55h-3.842V29.704h3.842ZM855 27l3.143 9.674h10.172l-8.229 5.979 3.143 9.673L855 46.347l-8.229 5.98 3.143-9.674-8.229-5.98h10.172L855 27ZM899.5 29.704l-3.672 21.964c-.204 1.247-.522 2.12-.952 2.618-.431.476-1.134.714-2.108.714h-2.482v-3.91h.884c.204 0 .362-.034.476-.102a.532.532 0 0 0 .272-.272c.045-.113.09-.26.136-.442l.102-.782c.068-.408.022-1.088-.136-2.04l-2.856-17.748h3.91l1.428 11.186 1.36-11.186h3.638Zm7.645 20.162v-5.882h3.774v5.848c0 3.65-1.53 5.474-4.59 5.474h-.85c-3.151 0-4.726-1.78-4.726-5.338V34.532c0-1.45.362-2.652 1.088-3.604.725-.975 1.892-1.462 3.502-1.462h.884c.997 0 1.824.147 2.482.442.68.295 1.167.725 1.462 1.292a5.65 5.65 0 0 1 .578 1.666c.113.521.17 1.145.17 1.87v4.522h-3.774v-4.454c0-1.11-.431-1.666-1.292-1.666-.454 0-.771.136-.952.408-.159.25-.238.669-.238 1.258v15.028c0 1.156.408 1.734 1.224 1.734.838 0 1.258-.567 1.258-1.7ZM912.756 55V29.704h10.03V55h-3.842V33.376h-2.346V55h-3.842Zm12.203-25.296h8.738v3.672h-4.896v6.63h3.842v3.842h-3.842v7.31h5.1V55h-8.942V29.704ZM942.094 55V41.298L939.34 55h-3.842V29.704h3.842v13.702l2.754-13.702h3.842V55h-3.842Zm-1.36-26.18h-.102c-.997 0-1.813-.283-2.448-.85-.612-.567-.918-1.349-.918-2.346v-.204h2.618v.136c0 .612.261.918.782.918h.034c.544 0 .816-.306.816-.918v-.136h2.584v.204c0 .997-.328 1.78-.986 2.346-.657.567-1.45.85-2.38.85Zm15.001 5.848v4.012h-3.774v-4.284c0-1.473.374-2.663 1.122-3.57.748-.907 1.847-1.36 3.298-1.36h.782c1.655 0 2.845.374 3.57 1.122.725.748 1.088 1.87 1.088 3.366v4.216c0 1.723-.635 2.845-1.904 3.366 1.473.453 2.21 1.689 2.21 3.706v5.406c0 1.315-.374 2.425-1.122 3.332-.748.884-1.915 1.326-3.502 1.326h-1.02c-1.405 0-2.516-.442-3.332-1.326-.793-.884-1.19-1.893-1.19-3.026v-5.542h3.774v4.794c0 .907.419 1.36 1.258 1.36.816 0 1.224-.453 1.224-1.36v-5.134c0-.816-.397-1.224-1.19-1.224h-1.734v-3.842h1.734c.589 0 .884-.612.884-1.836v-3.502c0-1.02-.363-1.53-1.088-1.53-.725 0-1.088.51-1.088 1.53ZM970.529 55l-.51-4.76h-2.822l-.476 4.76h-3.434l3.094-25.296h4.556L974.235 55h-3.706Zm-1.938-17.884-.986 9.35h2.006l-1.02-9.35ZM975.472 55V29.704h9.282v3.672h-5.44v6.12h2.244c2.63 0 3.944 1.553 3.944 4.658v6.426c0 1.519-.317 2.64-.952 3.366-.634.703-1.632 1.054-2.992 1.054h-6.086Zm3.842-3.672h.986c.522 0 .873-.147 1.054-.442.182-.295.272-.725.272-1.292v-4.59c0-.612-.09-1.065-.272-1.36-.158-.317-.51-.476-1.054-.476h-.986v8.16Zm14.215-6.834h-2.244V55h-3.842V29.704h6.086c1.383 0 2.38.329 2.992.986.635.635.952 1.7.952 3.196v5.984c0 3.083-1.315 4.624-3.944 4.624Zm-2.244-11.356v7.718h.986c.544 0 .895-.147 1.054-.442.181-.317.272-.782.272-1.394v-4.148c0-.567-.091-.997-.272-1.292-.181-.295-.533-.442-1.054-.442h-.986Zm18.435 2.108v14.11c0 3.967-1.64 5.95-4.9 5.95h-.65c-3.3 0-4.96-1.983-4.96-5.95V35.28c0-3.876 1.64-5.814 4.93-5.814h.65c1.76 0 3.02.499 3.77 1.496.77.997 1.16 2.425 1.16 4.284Zm-3.91 14.382V35.076c0-1.292-.45-1.938-1.33-1.938-.91 0-1.36.646-1.36 1.938v14.552c0 1.292.47 1.938 1.39 1.938.87 0 1.3-.646 1.3-1.938Zm9.68-5.746V55h-3.84V29.704h3.84v10.132h2.62V29.704h3.84V55h-3.84V43.882h-2.62ZM1030.64 55V41.298L1027.89 55h-3.84V29.704h3.84v13.702l2.75-13.702h3.84V55h-3.84Zm12.09-10.506h-2.24V55h-3.84V29.704h6.08c1.39 0 2.38.329 3 .986.63.635.95 1.7.95 3.196v5.984c0 3.083-1.32 4.624-3.95 4.624Zm-2.24-11.356v7.718h.99c.54 0 .89-.147 1.05-.442.18-.317.27-.782.27-1.394v-4.148c0-.567-.09-.997-.27-1.292-.18-.295-.53-.442-1.05-.442h-.99Zm18.43 2.108v14.11c0 3.967-1.63 5.95-4.9 5.95h-.64c-3.31 0-4.97-1.983-4.97-5.95V35.28c0-3.876 1.65-5.814 4.93-5.814h.65c1.77 0 3.03.499 3.77 1.496.78.997 1.16 2.425 1.16 4.284Zm-3.91 14.382V35.076c0-1.292-.44-1.938-1.33-1.938-.9 0-1.36.646-1.36 1.938v14.552c0 1.292.47 1.938 1.4 1.938.86 0 1.29-.646 1.29-1.938Zm5.91 5.372V29.704h6.05c1.5 0 2.54.351 3.13 1.054.61.703.92 1.723.92 3.06v3.876c0 1.859-.64 3.026-1.91 3.502 1.47.567 2.21 1.802 2.21 3.706v5.474c0 1.428-.34 2.561-1.02 3.4-.66.816-1.68 1.224-3.06 1.224h-6.32Zm5-11.526h-1.16v7.956h1.16c.58 0 .98-.136 1.19-.408.2-.272.3-.703.3-1.292v-4.624c0-.567-.1-.975-.3-1.224-.21-.272-.61-.408-1.19-.408Zm0-10.336h-1.16V39.7h1.16c.88 0 1.32-.59 1.32-1.768v-3.196c0-.567-.1-.975-.3-1.224-.19-.25-.53-.374-1.02-.374ZM1079.61 55l-.51-4.76h-2.82l-.48 4.76h-3.43l3.09-25.296h4.56l3.3 25.296h-3.71Zm-1.94-17.884-.98 9.35h2l-1.02-9.35Zm4.88-7.412h10.27v3.672h-3.23V55h-3.81V33.376h-3.23v-3.672Zm15.69 9.792h2.25c2.62 0 3.94 1.553 3.94 4.658v6.426c0 1.519-.32 2.64-.95 3.366-.64.703-1.63 1.054-2.99 1.054h-6.09V29.704h3.84v9.792Zm0 11.832h.99c.52 0 .87-.147 1.05-.442.18-.295.27-.725.27-1.292v-4.59c0-.612-.09-1.065-.27-1.36-.16-.317-.51-.476-1.05-.476h-.99v8.16Zm11.63-.68V55h-3.53v-4.352h3.53Zm-3.84-20.944h4.22l-1.5 20.094h-1.26l-1.46-20.094ZM1145 27l3.14 9.674h10.17l-8.22 5.979 3.14 9.673-8.23-5.979-8.23 5.98 3.14-9.674-8.22-5.98h10.17L1145 27ZM1179.89 55V29.704h4.93l1.84 13.362 1.87-13.362h4.59V55h-3.61V38.646L1187.2 55h-1.53l-2.34-16.354V55h-3.44Zm19.1-15.504h2.24c2.63 0 3.95 1.553 3.95 4.658v6.426c0 1.519-.32 2.64-.95 3.366-.64.703-1.64 1.054-3 1.054h-6.08V29.704h3.84v9.792Zm0 11.832h.99c.52 0 .87-.147 1.05-.442.18-.295.27-.725.27-1.292v-4.59c0-.612-.09-1.065-.27-1.36-.16-.317-.51-.476-1.05-.476h-.99v8.16Zm11.12-21.624V55h-3.84V29.704h3.84Zm10.03 14.178V55h-3.84V29.704h3.84v10.132h2.62V29.704h3.84V55h-3.84V43.882h-2.62ZM1235.19 55l-.51-4.76h-2.82l-.48 4.76h-3.43l3.09-25.296h4.56L1238.9 55h-3.71Zm-1.94-17.884-.98 9.35h2l-1.02-9.35ZM1244.34 55V29.704h4.93l1.83 13.362 1.87-13.362h4.59V55h-3.6V38.646L1251.65 55h-1.53l-2.35-16.354V55h-3.43Zm15.32-25.296h8.74v3.672h-4.9v6.63h3.84v3.842h-3.84v7.31h5.1V55h-8.94V29.704Zm16.69 14.79h-2.24V55h-3.84V29.704h6.08c1.38 0 2.38.329 2.99.986.64.635.96 1.7.96 3.196v5.984c0 3.083-1.32 4.624-3.95 4.624Zm-2.24-11.356v7.718h.98c.55 0 .9-.147 1.06-.442.18-.317.27-.782.27-1.394v-4.148c0-.567-.09-.997-.27-1.292-.18-.295-.53-.442-1.06-.442h-.98Zm18.43 2.108v14.11c0 3.967-1.63 5.95-4.9 5.95h-.64c-3.31 0-4.97-1.983-4.97-5.95V35.28c0-3.876 1.65-5.814 4.93-5.814h.65c1.77 0 3.03.499 3.77 1.496.77.997 1.16 2.425 1.16 4.284Zm-3.91 14.382V35.076c0-1.292-.44-1.938-1.33-1.938-.9 0-1.36.646-1.36 1.938v14.552c0 1.292.47 1.938 1.4 1.938.86 0 1.29-.646 1.29-1.938Zm5.84 5.372V29.704h10.03V55h-3.84V33.376h-2.35V55h-3.84Zm18.29-10.506h-2.25V55h-3.84V29.704h6.09c1.38 0 2.38.329 2.99.986.63.635.95 1.7.95 3.196v5.984c0 3.083-1.31 4.624-3.94 4.624Zm-2.25-11.356v7.718h.99c.54 0 .89-.147 1.05-.442.18-.317.28-.782.28-1.394v-4.148c0-.567-.1-.997-.28-1.292-.18-.295-.53-.442-1.05-.442h-.99ZM1325.07 55V41.298L1322.31 55h-3.84V29.704h3.84v13.702l2.76-13.702h3.84V55h-3.84Zm12.06-10.608h-.45L1333.86 55h-3.94l3.06-11.288c-1.41-.453-2.11-1.473-2.11-3.06v-7.038c0-1.405.32-2.403.95-2.992.64-.612 1.61-.918 2.93-.918h6.22V55h-3.84V44.392Zm0-3.672v-7.582h-1.02c-.57 0-.94.125-1.13.374-.18.25-.27.669-.27 1.258v4.148c0 1.201.47 1.802 1.4 1.802h1.02Zm5.54-11.016h10.27v3.672h-3.23V55h-3.81V33.376h-3.23v-3.672ZM1361.11 55V41.298L1358.35 55h-3.84V29.704h3.84v13.702l2.76-13.702h3.84V55h-3.84Zm12.06-10.608h-.45L1369.9 55h-3.94l3.06-11.288c-1.41-.453-2.11-1.473-2.11-3.06v-7.038c0-1.405.32-2.403.95-2.992.64-.612 1.61-.918 2.93-.918h6.22V55h-3.84V44.392Zm0-3.672v-7.582h-1.02c-.57 0-.94.125-1.13.374-.18.25-.27.669-.27 1.258v4.148c0 1.201.47 1.802 1.4 1.802h1.02Zm8.53.748-2.86-11.764h3.91l1.64 7.99 1.56-7.99h3.74l-2.89 11.764L1390.06 55h-3.97l-1.91-9.146-1.94 9.146h-3.87l3.33-13.532ZM1424 27l3.14 9.674h10.17l-8.22 5.979 3.14 9.673-8.23-5.979-8.23 5.98 3.14-9.674-8.22-5.98h10.17L1424 27ZM1459.04 55V29.704h10.03V55h-3.84V33.376h-2.35V55h-3.84Zm18.29-10.506h-2.24V55h-3.85V29.704h6.09c1.38 0 2.38.329 2.99.986.64.635.95 1.7.95 3.196v5.984c0 3.083-1.31 4.624-3.94 4.624Zm-2.24-11.356v7.718h.98c.55 0 .9-.147 1.06-.442.18-.317.27-.782.27-1.394v-4.148c0-.567-.09-.997-.27-1.292-.19-.295-.54-.442-1.06-.442h-.98ZM1489.64 55V41.298L1486.89 55h-3.84V29.704h3.84v13.702l2.75-13.702h3.84V55h-3.84Zm8.52-13.532-2.85-11.764h3.91l1.63 7.99 1.56-7.99h3.74l-2.89 11.764L1506.53 55h-3.98l-1.9-9.146-1.94 9.146h-3.88l3.33-13.532Zm20.06-6.222v14.11c0 3.967-1.63 5.95-4.9 5.95h-.64c-3.31 0-4.97-1.983-4.97-5.95V35.28c0-3.876 1.65-5.814 4.93-5.814h.65c1.77 0 3.03.499 3.77 1.496.77.997 1.16 2.425 1.16 4.284Zm-3.91 14.382V35.076c0-1.292-.44-1.938-1.33-1.938-.9 0-1.36.646-1.36 1.938v14.552c0 1.292.47 1.938 1.4 1.938.86 0 1.29-.646 1.29-1.938Zm15.29 8.942V55h-6.66v3.57h-3.5v-7.412h.85c.43-.884.75-1.95.95-3.196.34-2.267.51-8.353.51-18.258h9.66v21.454h1.7v7.412h-3.51Zm-4.76-10.506c-.13 1.11-.38 2.142-.74 3.094h3.46V33.376h-2.21c0 7.39-.17 12.285-.51 14.688ZM1541.27 55V41.298L1538.52 55h-3.85V29.704h3.85v13.702l2.75-13.702h3.84V55h-3.84Zm9.54-4.352V55h-3.53v-4.352h3.53Zm-3.84-20.944h4.22l-1.5 20.094h-1.26l-1.46-20.094ZM1586 27l3.14 9.674h10.17l-8.22 5.979 3.14 9.673-8.23-5.979-8.23 5.98 3.14-9.674-8.22-5.98h10.17L1586 27ZM1620.65 29.704h10.27v3.672h-3.23V55h-3.81V33.376h-3.23v-3.672Zm22.32 5.542v14.11c0 3.967-1.64 5.95-4.9 5.95h-.65c-3.3 0-4.96-1.983-4.96-5.95V35.28c0-3.876 1.64-5.814 4.93-5.814h.65c1.76 0 3.02.499 3.77 1.496.77.997 1.16 2.425 1.16 4.284Zm-3.91 14.382V35.076c0-1.292-.45-1.938-1.33-1.938-.91 0-1.36.646-1.36 1.938v14.552c0 1.292.47 1.938 1.39 1.938.87 0 1.3-.646 1.3-1.938ZM1644.9 55V29.704h10.03V55h-3.85V33.376h-2.34V55h-3.84Zm16.33 0V29.704h6.05c1.5 0 2.54.351 3.13 1.054.61.703.92 1.723.92 3.06v3.876c0 1.859-.63 3.026-1.9 3.502 1.47.567 2.21 1.802 2.21 3.706v5.474c0 1.428-.34 2.561-1.02 3.4-.66.816-1.68 1.224-3.06 1.224h-6.33Zm5-11.526h-1.16v7.956h1.16c.59 0 .99-.136 1.19-.408.2-.272.31-.703.31-1.292v-4.624c0-.567-.11-.975-.31-1.224-.2-.272-.6-.408-1.19-.408Zm0-10.336h-1.16V39.7h1.16c.88 0 1.33-.59 1.33-1.768v-3.196c0-.567-.11-.975-.31-1.224-.18-.25-.52-.374-1.02-.374Zm13.56 16.728v-5.882h3.77v5.848c0 3.65-1.53 5.474-4.59 5.474h-.85c-3.15 0-4.72-1.78-4.72-5.338V34.532c0-1.45.36-2.652 1.09-3.604.72-.975 1.89-1.462 3.5-1.462h.88c1 0 1.83.147 2.48.442.68.295 1.17.725 1.47 1.292.29.567.48 1.122.57 1.666.12.521.17 1.145.17 1.87v4.522h-3.77v-4.454c0-1.11-.43-1.666-1.29-1.666-.46 0-.77.136-.95.408-.16.25-.24.669-.24 1.258v15.028c0 1.156.41 1.734 1.22 1.734.84 0 1.26-.567 1.26-1.7Zm5.2-20.162h10.27v3.672h-3.23V55h-3.81V33.376h-3.23v-3.672Zm18 14.79h-2.24V55h-3.84V29.704h6.08c1.39 0 2.38.329 2.99.986.64.635.96 1.7.96 3.196v5.984c0 3.083-1.32 4.624-3.95 4.624Zm-2.24-11.356v7.718h.98c.55 0 .9-.147 1.06-.442.18-.317.27-.782.27-1.394v-4.148c0-.567-.09-.997-.27-1.292-.18-.295-.53-.442-1.06-.442h-.98Zm8.03-3.434h8.73v3.672h-4.89v6.63h3.84v3.842h-3.84v7.31h5.1V55h-8.94V29.704ZM1725.57 55V44.562c-.68.227-1.46.34-2.34.34h-.04c-1.38 0-2.41-.363-3.09-1.088-.66-.725-.99-1.711-.99-2.958V29.704h3.84v9.486c0 .725.11 1.213.31 1.462.2.25.54.374 1.02.374h.07c.56 0 .97-.068 1.22-.204V29.704h3.84V55h-3.84Zm12.54 0V41.298L1735.36 55h-3.84V29.704h3.84v13.702l2.75-13.702h3.85V55h-3.85ZM1777 27l3.14 9.674h10.17l-8.22 5.979 3.14 9.673-8.23-5.979-8.23 5.98 3.14-9.674-8.22-5.98h10.17L1777 27ZM1818.8 55V33.376h-2.25c0 9.044-.11 14.926-.34 17.646-.09 1.36-.44 2.369-1.05 3.026-.59.635-1.58.952-2.96.952h-.95v-3.91h.27c.43 0 .72-.125.88-.374.16-.25.26-.691.31-1.326.16-1.519.24-8.08.24-19.686h9.69V55h-3.84Zm15.48-25.296-3.68 21.964c-.2 1.247-.52 2.12-.95 2.618-.43.476-1.13.714-2.11.714h-2.48v-3.91h.89c.2 0 .36-.034.47-.102a.493.493 0 0 0 .27-.272c.05-.113.09-.26.14-.442l.1-.782c.07-.408.02-1.088-.13-2.04l-2.86-17.748h3.91l1.43 11.186 1.36-11.186h3.64ZM1841.82 55V44.562c-.68.227-1.46.34-2.35.34h-.03c-1.38 0-2.41-.363-3.09-1.088-.66-.725-.99-1.711-.99-2.958V29.704h3.84v9.486c0 .725.1 1.213.31 1.462.2.25.54.374 1.02.374h.07c.56 0 .97-.068 1.22-.204V29.704h3.84V55h-3.84Zm5.94 0V29.704h3.85v21.454h2.17V29.704h3.84v21.454h2.18V29.704h3.84V55h-15.88Zm24.58 0V41.298L1869.59 55h-3.85V29.704h3.85v13.702l2.75-13.702h3.84V55h-3.84Zm6.01-25.296h8.73v3.672h-4.89v6.63h3.84v3.842h-3.84v7.31h5.1V55h-8.94V29.704Zm21.03 20.162v-5.882h3.77v5.848c0 3.65-1.53 5.474-4.59 5.474h-.85c-3.15 0-4.73-1.78-4.73-5.338V34.532c0-1.45.37-2.652 1.09-3.604.73-.975 1.89-1.462 3.5-1.462h.89c1 0 1.82.147 2.48.442.68.295 1.17.725 1.46 1.292.3.567.49 1.122.58 1.666.11.521.17 1.145.17 1.87v4.522h-3.77v-4.454c0-1.11-.43-1.666-1.3-1.666-.45 0-.77.136-.95.408-.16.25-.24.669-.24 1.258v15.028c0 1.156.41 1.734 1.23 1.734.84 0 1.26-.567 1.26-1.7Zm5.61 5.134V29.704h10.03V55h-3.85V33.376h-2.34V55h-3.84Zm18.73 0V41.298L1920.96 55h-3.84V29.704h3.84v13.702l2.76-13.702h3.84V55h-3.84Zm12.97 0-3.19-10.982V55h-3.84V29.704h3.84v10.132l3.02-10.132h3.74l-3.57 11.764L1940.64 55h-3.95Zm5.2-25.296h8.74v3.672h-4.9v6.63h3.85v3.842h-3.85v7.31h5.1V55h-8.94V29.704Zm16.7 14.79h-2.25V55h-3.84V29.704h6.09c1.38 0 2.38.329 2.99.986.63.635.95 1.7.95 3.196v5.984c0 3.083-1.32 4.624-3.94 4.624Zm-2.25-11.356v7.718h.99c.54 0 .89-.147 1.05-.442.18-.317.27-.782.27-1.394v-4.148c0-.567-.09-.997-.27-1.292-.18-.295-.53-.442-1.05-.442h-.99Zm11.8 6.358h2.25c2.63 0 3.94 1.553 3.94 4.658v6.426c0 1.519-.32 2.64-.95 3.366-.64.703-1.63 1.054-2.99 1.054h-6.09V29.704h3.84v9.792Zm0 11.832h.99c.52 0 .87-.147 1.05-.442.18-.295.27-.725.27-1.292v-4.59c0-.612-.09-1.065-.27-1.36-.16-.317-.51-.476-1.05-.476h-.99v8.16Zm11.12-21.624V55h-3.84V29.704h3.84ZM2014 27l3.14 9.674h10.17l-8.22 5.979 3.14 9.673-8.23-5.979-8.23 5.98 3.14-9.674-8.22-5.98h10.17L2014 27ZM2058.5 29.704l-3.67 21.964c-.21 1.247-.52 2.12-.95 2.618-.44.476-1.14.714-2.11.714h-2.48v-3.91h.88c.2 0 .36-.034.48-.102a.568.568 0 0 0 .27-.272c.04-.113.09-.26.13-.442l.11-.782c.06-.408.02-1.088-.14-2.04l-2.86-17.748h3.91l1.43 11.186 1.36-11.186h3.64Zm7.64 20.162v-5.882h3.78v5.848c0 3.65-1.53 5.474-4.59 5.474h-.85c-3.15 0-4.73-1.78-4.73-5.338V34.532c0-1.45.37-2.652 1.09-3.604.73-.975 1.89-1.462 3.5-1.462h.89c.99 0 1.82.147 2.48.442.68.295 1.17.725 1.46 1.292.3.567.49 1.122.58 1.666.11.521.17 1.145.17 1.87v4.522h-3.78v-4.454c0-1.11-.43-1.666-1.29-1.666-.45 0-.77.136-.95.408-.16.25-.24.669-.24 1.258v15.028c0 1.156.41 1.734 1.23 1.734.84 0 1.25-.567 1.25-1.7Zm5.62 5.134V29.704h10.03V55h-3.85V33.376h-2.34V55h-3.84Zm12.2-25.296h8.74v3.672h-4.9v6.63h3.84v3.842h-3.84v7.31h5.1V55h-8.94V29.704ZM2101.09 55V41.298L2098.34 55h-3.84V29.704h3.84v13.702l2.75-13.702h3.85V55h-3.85Zm-1.36-26.18h-.1c-.99 0-1.81-.283-2.45-.85-.61-.567-.91-1.349-.91-2.346v-.204h2.61v.136c0 .612.27.918.79.918h.03c.54 0 .82-.306.82-.918v-.136h2.58v.204c0 .997-.33 1.78-.99 2.346-.65.567-1.45.85-2.38.85Zm15.01 5.848v4.012h-3.78v-4.284c0-1.473.38-2.663 1.12-3.57.75-.907 1.85-1.36 3.3-1.36h.78c1.66 0 2.85.374 3.57 1.122.73.748 1.09 1.87 1.09 3.366v4.216c0 1.723-.63 2.845-1.9 3.366 1.47.453 2.21 1.689 2.21 3.706v5.406c0 1.315-.38 2.425-1.12 3.332-.75.884-1.92 1.326-3.51 1.326h-1.02c-1.4 0-2.51-.442-3.33-1.326-.79-.884-1.19-1.893-1.19-3.026v-5.542h3.78v4.794c0 .907.41 1.36 1.25 1.36.82 0 1.23-.453 1.23-1.36v-5.134c0-.816-.4-1.224-1.19-1.224h-1.74v-3.842h1.74c.59 0 .88-.612.88-1.836v-3.502c0-1.02-.36-1.53-1.09-1.53-.72 0-1.08.51-1.08 1.53ZM2129.53 55l-.51-4.76h-2.82l-.48 4.76h-3.43l3.09-25.296h4.56L2133.23 55h-3.7Zm-1.94-17.884-.99 9.35h2.01l-1.02-9.35ZM2134.47 55V29.704h9.28v3.672h-5.44v6.12h2.25c2.63 0 3.94 1.553 3.94 4.658v6.426c0 1.519-.32 2.64-.95 3.366-.63.703-1.63 1.054-2.99 1.054h-6.09Zm3.84-3.672h.99c.52 0 .87-.147 1.05-.442.19-.295.28-.725.28-1.292v-4.59c0-.612-.09-1.065-.28-1.36-.15-.317-.51-.476-1.05-.476h-.99v8.16Zm14.22-6.834h-2.25V55h-3.84V29.704h6.09c1.38 0 2.38.329 2.99.986.64.635.95 1.7.95 3.196v5.984c0 3.083-1.31 4.624-3.94 4.624Zm-2.25-11.356v7.718h.99c.54 0 .9-.147 1.05-.442.19-.317.28-.782.28-1.394v-4.148c0-.567-.09-.997-.28-1.292-.18-.295-.53-.442-1.05-.442h-.99Zm18.44 2.108v14.11c0 3.967-1.64 5.95-4.9 5.95h-.65c-3.3 0-4.96-1.983-4.96-5.95V35.28c0-3.876 1.64-5.814 4.93-5.814h.65c1.76 0 3.02.499 3.77 1.496.77.997 1.16 2.425 1.16 4.284Zm-3.91 14.382V35.076c0-1.292-.45-1.938-1.33-1.938-.91 0-1.36.646-1.36 1.938v14.552c0 1.292.47 1.938 1.39 1.938.87 0 1.3-.646 1.3-1.938Zm9.68-5.746V55h-3.84V29.704h3.84v10.132h2.62V29.704h3.84V55h-3.84V43.882h-2.62ZM2189.64 55V41.298L2186.89 55h-3.84V29.704h3.84v13.702l2.75-13.702h3.84V55h-3.84Zm12.09-10.506h-2.24V55h-3.84V29.704h6.08c1.39 0 2.38.329 3 .986.63.635.95 1.7.95 3.196v5.984c0 3.083-1.32 4.624-3.95 4.624Zm-2.24-11.356v7.718h.99c.54 0 .89-.147 1.05-.442.18-.317.27-.782.27-1.394v-4.148c0-.567-.09-.997-.27-1.292-.18-.295-.53-.442-1.05-.442h-.99Zm18.43 2.108v14.11c0 3.967-1.63 5.95-4.9 5.95h-.64c-3.31 0-4.97-1.983-4.97-5.95V35.28c0-3.876 1.65-5.814 4.93-5.814h.65c1.77 0 3.03.499 3.77 1.496.78.997 1.16 2.425 1.16 4.284Zm-3.91 14.382V35.076c0-1.292-.44-1.938-1.33-1.938-.9 0-1.36.646-1.36 1.938v14.552c0 1.292.47 1.938 1.4 1.938.86 0 1.29-.646 1.29-1.938Zm5.91 5.372V29.704h6.05c1.5 0 2.54.351 3.13 1.054.61.703.92 1.723.92 3.06v3.876c0 1.859-.64 3.026-1.91 3.502 1.47.567 2.21 1.802 2.21 3.706v5.474c0 1.428-.34 2.561-1.02 3.4-.66.816-1.68 1.224-3.06 1.224h-6.32Zm5-11.526h-1.16v7.956h1.16c.58 0 .98-.136 1.19-.408.2-.272.3-.703.3-1.292v-4.624c0-.567-.1-.975-.3-1.224-.21-.272-.61-.408-1.19-.408Zm0-10.336h-1.16V39.7h1.16c.88 0 1.32-.59 1.32-1.768v-3.196c0-.567-.1-.975-.3-1.224-.19-.25-.53-.374-1.02-.374ZM2238.61 55l-.51-4.76h-2.82l-.48 4.76h-3.43l3.09-25.296h4.56l3.3 25.296h-3.71Zm-1.94-17.884-.98 9.35h2l-1.02-9.35Zm4.88-7.412h10.27v3.672h-3.23V55h-3.81V33.376h-3.23v-3.672Zm15.69 9.792h2.25c2.62 0 3.94 1.553 3.94 4.658v6.426c0 1.519-.32 2.64-.95 3.366-.64.703-1.63 1.054-2.99 1.054h-6.09V29.704h3.84v9.792Zm0 11.832h.99c.52 0 .87-.147 1.05-.442.18-.295.27-.725.27-1.292v-4.59c0-.612-.09-1.065-.27-1.36-.16-.317-.51-.476-1.05-.476h-.99v8.16Zm11.63-.68V55h-3.53v-4.352h3.53Zm-3.84-20.944h4.22l-1.5 20.094h-1.26l-1.46-20.094ZM2304 27l3.14 9.674h10.17l-8.22 5.979 3.14 9.673-8.23-5.979-8.23 5.98 3.14-9.674-8.22-5.98h10.17L2304 27ZM2338.89 55V29.704h4.93l1.84 13.362 1.87-13.362h4.59V55h-3.61V38.646L2346.2 55h-1.53l-2.34-16.354V55h-3.44Zm19.1-15.504h2.24c2.63 0 3.95 1.553 3.95 4.658v6.426c0 1.519-.32 2.64-.95 3.366-.64.703-1.64 1.054-3 1.054h-6.08V29.704h3.84v9.792Zm0 11.832h.99c.52 0 .87-.147 1.05-.442.18-.295.27-.725.27-1.292v-4.59c0-.612-.09-1.065-.27-1.36-.16-.317-.51-.476-1.05-.476h-.99v8.16Zm11.12-21.624V55h-3.84V29.704h3.84Zm10.03 14.178V55h-3.84V29.704h3.84v10.132h2.62V29.704h3.84V55h-3.84V43.882h-2.62ZM2394.19 55l-.51-4.76h-2.82l-.48 4.76h-3.43l3.09-25.296h4.56L2397.9 55h-3.71Zm-1.94-17.884-.98 9.35h2l-1.02-9.35ZM2403.34 55V29.704h4.93l1.83 13.362 1.87-13.362h4.59V55h-3.6V38.646L2410.65 55h-1.53l-2.35-16.354V55h-3.43Zm15.32-25.296h8.74v3.672h-4.9v6.63h3.84v3.842h-3.84v7.31h5.1V55h-8.94V29.704Zm16.69 14.79h-2.24V55h-3.84V29.704h6.08c1.38 0 2.38.329 2.99.986.64.635.96 1.7.96 3.196v5.984c0 3.083-1.32 4.624-3.95 4.624Zm-2.24-11.356v7.718h.98c.55 0 .9-.147 1.06-.442.18-.317.27-.782.27-1.394v-4.148c0-.567-.09-.997-.27-1.292-.18-.295-.53-.442-1.06-.442h-.98Zm18.43 2.108v14.11c0 3.967-1.63 5.95-4.9 5.95h-.64c-3.31 0-4.97-1.983-4.97-5.95V35.28c0-3.876 1.65-5.814 4.93-5.814h.65c1.77 0 3.03.499 3.77 1.496.77.997 1.16 2.425 1.16 4.284Zm-3.91 14.382V35.076c0-1.292-.44-1.938-1.33-1.938-.9 0-1.36.646-1.36 1.938v14.552c0 1.292.47 1.938 1.4 1.938.86 0 1.29-.646 1.29-1.938Zm5.84 5.372V29.704h10.03V55h-3.84V33.376h-2.35V55h-3.84Zm18.29-10.506h-2.25V55h-3.84V29.704h6.09c1.38 0 2.38.329 2.99.986.63.635.95 1.7.95 3.196v5.984c0 3.083-1.31 4.624-3.94 4.624Zm-2.25-11.356v7.718h.99c.54 0 .89-.147 1.05-.442.18-.317.28-.782.28-1.394v-4.148c0-.567-.1-.997-.28-1.292-.18-.295-.53-.442-1.05-.442h-.99ZM2484.07 55V41.298L2481.31 55h-3.84V29.704h3.84v13.702l2.76-13.702h3.84V55h-3.84Zm12.06-10.608h-.45L2492.86 55h-3.94l3.06-11.288c-1.41-.453-2.11-1.473-2.11-3.06v-7.038c0-1.405.32-2.403.95-2.992.64-.612 1.61-.918 2.93-.918h6.22V55h-3.84V44.392Zm0-3.672v-7.582h-1.02c-.57 0-.94.125-1.13.374-.18.25-.27.669-.27 1.258v4.148c0 1.201.47 1.802 1.4 1.802h1.02Zm5.54-11.016h10.27v3.672h-3.23V55h-3.81V33.376h-3.23v-3.672ZM2520.11 55V41.298L2517.35 55h-3.84V29.704h3.84v13.702l2.76-13.702h3.84V55h-3.84Zm12.06-10.608h-.45L2528.9 55h-3.94l3.06-11.288c-1.41-.453-2.11-1.473-2.11-3.06v-7.038c0-1.405.32-2.403.95-2.992.64-.612 1.61-.918 2.93-.918h6.22V55h-3.84V44.392Zm0-3.672v-7.582h-1.02c-.57 0-.94.125-1.13.374-.18.25-.27.669-.27 1.258v4.148c0 1.201.47 1.802 1.4 1.802h1.02Zm8.53.748-2.86-11.764h3.91l1.64 7.99 1.56-7.99h3.74l-2.89 11.764L2549.06 55h-3.97l-1.91-9.146-1.94 9.146h-3.87l3.33-13.532ZM2583 27l3.14 9.674h10.17l-8.22 5.979 3.14 9.673-8.23-5.979-8.23 5.98 3.14-9.674-8.22-5.98h10.17L2583 27ZM2618.04 55V29.704h10.03V55h-3.84V33.376h-2.35V55h-3.84Zm18.29-10.506h-2.24V55h-3.85V29.704h6.09c1.38 0 2.38.329 2.99.986.64.635.95 1.7.95 3.196v5.984c0 3.083-1.31 4.624-3.94 4.624Zm-2.24-11.356v7.718h.98c.55 0 .9-.147 1.06-.442.18-.317.27-.782.27-1.394v-4.148c0-.567-.09-.997-.27-1.292-.19-.295-.54-.442-1.06-.442h-.98ZM2648.64 55V41.298L2645.89 55h-3.84V29.704h3.84v13.702l2.75-13.702h3.84V55h-3.84Zm8.52-13.532-2.85-11.764h3.91l1.63 7.99 1.56-7.99h3.74l-2.89 11.764L2665.53 55h-3.98l-1.9-9.146-1.94 9.146h-3.88l3.33-13.532Zm20.06-6.222v14.11c0 3.967-1.63 5.95-4.9 5.95h-.64c-3.31 0-4.97-1.983-4.97-5.95V35.28c0-3.876 1.65-5.814 4.93-5.814h.65c1.77 0 3.03.499 3.77 1.496.77.997 1.16 2.425 1.16 4.284Zm-3.91 14.382V35.076c0-1.292-.44-1.938-1.33-1.938-.9 0-1.36.646-1.36 1.938v14.552c0 1.292.47 1.938 1.4 1.938.86 0 1.29-.646 1.29-1.938Zm15.29 8.942V55h-6.66v3.57h-3.5v-7.412h.85c.43-.884.75-1.95.95-3.196.34-2.267.51-8.353.51-18.258h9.66v21.454h1.7v7.412h-3.51Zm-4.76-10.506c-.13 1.11-.38 2.142-.74 3.094h3.46V33.376h-2.21c0 7.39-.17 12.285-.51 14.688ZM2700.27 55V41.298L2697.52 55h-3.85V29.704h3.85v13.702l2.75-13.702h3.84V55h-3.84Zm9.54-4.352V55h-3.53v-4.352h3.53Zm-3.84-20.944h4.22l-1.5 20.094h-1.26l-1.46-20.094ZM2745 27l3.14 9.674h10.17l-8.22 5.979 3.14 9.673-8.23-5.979-8.23 5.98 3.14-9.674-8.22-5.98h10.17L2745 27ZM2779.65 29.704h10.27v3.672h-3.23V55h-3.81V33.376h-3.23v-3.672Zm22.32 5.542v14.11c0 3.967-1.64 5.95-4.9 5.95h-.65c-3.3 0-4.96-1.983-4.96-5.95V35.28c0-3.876 1.64-5.814 4.93-5.814h.65c1.76 0 3.02.499 3.77 1.496.77.997 1.16 2.425 1.16 4.284Zm-3.91 14.382V35.076c0-1.292-.45-1.938-1.33-1.938-.91 0-1.36.646-1.36 1.938v14.552c0 1.292.47 1.938 1.39 1.938.87 0 1.3-.646 1.3-1.938ZM2803.9 55V29.704h10.03V55h-3.85V33.376h-2.34V55h-3.84Zm16.33 0V29.704h6.05c1.5 0 2.54.351 3.13 1.054.61.703.92 1.723.92 3.06v3.876c0 1.859-.63 3.026-1.9 3.502 1.47.567 2.21 1.802 2.21 3.706v5.474c0 1.428-.34 2.561-1.02 3.4-.66.816-1.68 1.224-3.06 1.224h-6.33Zm5-11.526h-1.16v7.956h1.16c.59 0 .99-.136 1.19-.408.2-.272.31-.703.31-1.292v-4.624c0-.567-.11-.975-.31-1.224-.2-.272-.6-.408-1.19-.408Zm0-10.336h-1.16V39.7h1.16c.88 0 1.33-.59 1.33-1.768v-3.196c0-.567-.11-.975-.31-1.224-.18-.25-.52-.374-1.02-.374Zm13.56 16.728v-5.882h3.77v5.848c0 3.65-1.53 5.474-4.59 5.474h-.85c-3.15 0-4.72-1.78-4.72-5.338V34.532c0-1.45.36-2.652 1.09-3.604.72-.975 1.89-1.462 3.5-1.462h.88c1 0 1.83.147 2.48.442.68.295 1.17.725 1.47 1.292.29.567.48 1.122.57 1.666.12.521.17 1.145.17 1.87v4.522h-3.77v-4.454c0-1.11-.43-1.666-1.29-1.666-.46 0-.77.136-.95.408-.16.25-.24.669-.24 1.258v15.028c0 1.156.41 1.734 1.22 1.734.84 0 1.26-.567 1.26-1.7Zm5.2-20.162h10.27v3.672h-3.23V55h-3.81V33.376h-3.23v-3.672Zm18 14.79h-2.24V55h-3.84V29.704h6.08c1.39 0 2.38.329 2.99.986.64.635.96 1.7.96 3.196v5.984c0 3.083-1.32 4.624-3.95 4.624Zm-2.24-11.356v7.718h.98c.55 0 .9-.147 1.06-.442.18-.317.27-.782.27-1.394v-4.148c0-.567-.09-.997-.27-1.292-.18-.295-.53-.442-1.06-.442h-.98Zm8.03-3.434h8.73v3.672h-4.89v6.63h3.84v3.842h-3.84v7.31h5.1V55h-8.94V29.704ZM2884.57 55V44.562c-.68.227-1.46.34-2.34.34h-.04c-1.38 0-2.41-.363-3.09-1.088-.66-.725-.99-1.711-.99-2.958V29.704h3.84v9.486c0 .725.11 1.213.31 1.462.2.25.54.374 1.02.374h.07c.56 0 .97-.068 1.22-.204V29.704h3.84V55h-3.84Zm12.54 0V41.298L2894.36 55h-3.84V29.704h3.84v13.702l2.75-13.702h3.85V55h-3.85ZM2936 27l3.14 9.674h10.17l-8.22 5.979 3.14 9.673-8.23-5.979-8.23 5.98 3.14-9.674-8.22-5.98h10.17L2936 27ZM2977.8 55V33.376h-2.25c0 9.044-.11 14.926-.34 17.646-.09 1.36-.44 2.369-1.05 3.026-.59.635-1.58.952-2.96.952h-.95v-3.91h.27c.43 0 .72-.125.88-.374.16-.25.26-.691.31-1.326.16-1.519.24-8.08.24-19.686h9.69V55h-3.84Zm15.48-25.296-3.68 21.964c-.2 1.247-.52 2.12-.95 2.618-.43.476-1.13.714-2.11.714h-2.48v-3.91h.89c.2 0 .36-.034.47-.102a.493.493 0 0 0 .27-.272c.05-.113.09-.26.14-.442l.1-.782c.07-.408.02-1.088-.13-2.04l-2.86-17.748h3.91l1.43 11.186 1.36-11.186h3.64ZM3000.82 55V44.562c-.68.227-1.46.34-2.35.34h-.03c-1.38 0-2.41-.363-3.09-1.088-.66-.725-.99-1.711-.99-2.958V29.704h3.84v9.486c0 .725.1 1.213.31 1.462.2.25.54.374 1.02.374h.07c.56 0 .97-.068 1.22-.204V29.704h3.84V55h-3.84Zm5.94 0V29.704h3.85v21.454h2.17V29.704h3.84v21.454h2.18V29.704h3.84V55h-15.88Zm24.58 0V41.298L3028.59 55h-3.85V29.704h3.85v13.702l2.75-13.702h3.84V55h-3.84Zm6.01-25.296h8.73v3.672h-4.89v6.63h3.84v3.842h-3.84v7.31h5.1V55h-8.94V29.704Zm21.03 20.162v-5.882h3.77v5.848c0 3.65-1.53 5.474-4.59 5.474h-.85c-3.15 0-4.73-1.78-4.73-5.338V34.532c0-1.45.37-2.652 1.09-3.604.73-.975 1.89-1.462 3.5-1.462h.89c1 0 1.82.147 2.48.442.68.295 1.17.725 1.46 1.292.3.567.49 1.122.58 1.666.11.521.17 1.145.17 1.87v4.522h-3.77v-4.454c0-1.11-.43-1.666-1.3-1.666-.45 0-.77.136-.95.408-.16.25-.24.669-.24 1.258v15.028c0 1.156.41 1.734 1.23 1.734.84 0 1.26-.567 1.26-1.7Zm5.61 5.134V29.704h10.03V55h-3.85V33.376h-2.34V55h-3.84Zm18.73 0V41.298L3079.96 55h-3.84V29.704h3.84v13.702l2.76-13.702h3.84V55h-3.84Zm12.97 0-3.19-10.982V55h-3.84V29.704h3.84v10.132l3.02-10.132h3.74l-3.57 11.764L3099.64 55h-3.95Zm5.2-25.296h8.74v3.672h-4.9v6.63h3.85v3.842h-3.85v7.31h5.1V55h-8.94V29.704Zm16.7 14.79h-2.25V55h-3.84V29.704h6.09c1.38 0 2.38.329 2.99.986.63.635.95 1.7.95 3.196v5.984c0 3.083-1.32 4.624-3.94 4.624Zm-2.25-11.356v7.718h.99c.54 0 .89-.147 1.05-.442.18-.317.27-.782.27-1.394v-4.148c0-.567-.09-.997-.27-1.292-.18-.295-.53-.442-1.05-.442h-.99Zm11.8 6.358h2.25c2.63 0 3.94 1.553 3.94 4.658v6.426c0 1.519-.32 2.64-.95 3.366-.64.703-1.63 1.054-2.99 1.054h-6.09V29.704h3.84v9.792Zm0 11.832h.99c.52 0 .87-.147 1.05-.442.18-.295.27-.725.27-1.292v-4.59c0-.612-.09-1.065-.27-1.36-.16-.317-.51-.476-1.05-.476h-.99v8.16Zm11.12-21.624V55h-3.84V29.704h3.84ZM3173 27l3.14 9.674h10.17l-8.22 5.979 3.14 9.673-8.23-5.979-8.23 5.98 3.14-9.674-8.22-5.98h10.17L3173 27ZM3217.5 29.704l-3.67 21.964c-.21 1.247-.52 2.12-.95 2.618-.44.476-1.14.714-2.11.714h-2.48v-3.91h.88c.2 0 .36-.034.48-.102a.568.568 0 0 0 .27-.272c.04-.113.09-.26.13-.442l.11-.782c.06-.408.02-1.088-.14-2.04l-2.86-17.748h3.91l1.43 11.186 1.36-11.186h3.64Zm7.64 20.162v-5.882h3.78v5.848c0 3.65-1.53 5.474-4.59 5.474h-.85c-3.15 0-4.73-1.78-4.73-5.338V34.532c0-1.45.37-2.652 1.09-3.604.73-.975 1.89-1.462 3.5-1.462h.89c.99 0 1.82.147 2.48.442.68.295 1.17.725 1.46 1.292.3.567.49 1.122.58 1.666.11.521.17 1.145.17 1.87v4.522h-3.78v-4.454c0-1.11-.43-1.666-1.29-1.666-.45 0-.77.136-.95.408-.16.25-.24.669-.24 1.258v15.028c0 1.156.41 1.734 1.23 1.734.84 0 1.25-.567 1.25-1.7Zm5.62 5.134V29.704h10.03V55h-3.85V33.376h-2.34V55h-3.84Zm12.2-25.296h8.74v3.672h-4.9v6.63h3.84v3.842h-3.84v7.31h5.1V55h-8.94V29.704ZM3260.09 55V41.298L3257.34 55h-3.84V29.704h3.84v13.702l2.75-13.702h3.85V55h-3.85Zm-1.36-26.18h-.1c-.99 0-1.81-.283-2.45-.85-.61-.567-.91-1.349-.91-2.346v-.204h2.61v.136c0 .612.27.918.79.918h.03c.54 0 .82-.306.82-.918v-.136h2.58v.204c0 .997-.33 1.78-.99 2.346-.65.567-1.45.85-2.38.85Zm15.01 5.848v4.012h-3.78v-4.284c0-1.473.38-2.663 1.12-3.57.75-.907 1.85-1.36 3.3-1.36h.78c1.66 0 2.85.374 3.57 1.122.73.748 1.09 1.87 1.09 3.366v4.216c0 1.723-.63 2.845-1.9 3.366 1.47.453 2.21 1.689 2.21 3.706v5.406c0 1.315-.38 2.425-1.12 3.332-.75.884-1.92 1.326-3.51 1.326h-1.02c-1.4 0-2.51-.442-3.33-1.326-.79-.884-1.19-1.893-1.19-3.026v-5.542h3.78v4.794c0 .907.41 1.36 1.25 1.36.82 0 1.23-.453 1.23-1.36v-5.134c0-.816-.4-1.224-1.19-1.224h-1.74v-3.842h1.74c.59 0 .88-.612.88-1.836v-3.502c0-1.02-.36-1.53-1.09-1.53-.72 0-1.08.51-1.08 1.53ZM3288.53 55l-.51-4.76h-2.82l-.48 4.76h-3.43l3.09-25.296h4.56L3292.23 55h-3.7Zm-1.94-17.884-.99 9.35h2.01l-1.02-9.35ZM3293.47 55V29.704h9.28v3.672h-5.44v6.12h2.25c2.63 0 3.94 1.553 3.94 4.658v6.426c0 1.519-.32 2.64-.95 3.366-.63.703-1.63 1.054-2.99 1.054h-6.09Zm3.84-3.672h.99c.52 0 .87-.147 1.05-.442.19-.295.28-.725.28-1.292v-4.59c0-.612-.09-1.065-.28-1.36-.15-.317-.51-.476-1.05-.476h-.99v8.16Zm14.22-6.834h-2.25V55h-3.84V29.704h6.09c1.38 0 2.38.329 2.99.986.64.635.95 1.7.95 3.196v5.984c0 3.083-1.31 4.624-3.94 4.624Zm-2.25-11.356v7.718h.99c.54 0 .9-.147 1.05-.442.19-.317.28-.782.28-1.394v-4.148c0-.567-.09-.997-.28-1.292-.18-.295-.53-.442-1.05-.442h-.99Zm18.44 2.108v14.11c0 3.967-1.64 5.95-4.9 5.95h-.65c-3.3 0-4.96-1.983-4.96-5.95V35.28c0-3.876 1.64-5.814 4.93-5.814h.65c1.76 0 3.02.499 3.77 1.496.77.997 1.16 2.425 1.16 4.284Zm-3.91 14.382V35.076c0-1.292-.45-1.938-1.33-1.938-.91 0-1.36.646-1.36 1.938v14.552c0 1.292.47 1.938 1.39 1.938.87 0 1.3-.646 1.3-1.938Zm9.68-5.746V55h-3.84V29.704h3.84v10.132h2.62V29.704h3.84V55h-3.84V43.882h-2.62ZM3348.64 55V41.298L3345.89 55h-3.84V29.704h3.84v13.702l2.75-13.702h3.84V55h-3.84Zm12.09-10.506h-2.24V55h-3.84V29.704h6.08c1.39 0 2.38.329 3 .986.63.635.95 1.7.95 3.196v5.984c0 3.083-1.32 4.624-3.95 4.624Zm-2.24-11.356v7.718h.99c.54 0 .89-.147 1.05-.442.18-.317.27-.782.27-1.394v-4.148c0-.567-.09-.997-.27-1.292-.18-.295-.53-.442-1.05-.442h-.99Zm18.43 2.108v14.11c0 3.967-1.63 5.95-4.9 5.95h-.64c-3.31 0-4.97-1.983-4.97-5.95V35.28c0-3.876 1.65-5.814 4.93-5.814h.65c1.77 0 3.03.499 3.77 1.496.78.997 1.16 2.425 1.16 4.284Zm-3.91 14.382V35.076c0-1.292-.44-1.938-1.33-1.938-.9 0-1.36.646-1.36 1.938v14.552c0 1.292.47 1.938 1.4 1.938.86 0 1.29-.646 1.29-1.938Zm5.91 5.372V29.704h6.05c1.5 0 2.54.351 3.13 1.054.61.703.92 1.723.92 3.06v3.876c0 1.859-.64 3.026-1.91 3.502 1.47.567 2.21 1.802 2.21 3.706v5.474c0 1.428-.34 2.561-1.02 3.4-.66.816-1.68 1.224-3.06 1.224h-6.32Zm5-11.526h-1.16v7.956h1.16c.58 0 .98-.136 1.19-.408.2-.272.3-.703.3-1.292v-4.624c0-.567-.1-.975-.3-1.224-.21-.272-.61-.408-1.19-.408Zm0-10.336h-1.16V39.7h1.16c.88 0 1.32-.59 1.32-1.768v-3.196c0-.567-.1-.975-.3-1.224-.19-.25-.53-.374-1.02-.374ZM3397.61 55l-.51-4.76h-2.82l-.48 4.76h-3.43l3.09-25.296h4.56l3.3 25.296h-3.71Zm-1.94-17.884-.98 9.35h2l-1.02-9.35Zm4.88-7.412h10.27v3.672h-3.23V55h-3.81V33.376h-3.23v-3.672Zm15.69 9.792h2.25c2.62 0 3.94 1.553 3.94 4.658v6.426c0 1.519-.32 2.64-.95 3.366-.64.703-1.63 1.054-2.99 1.054h-6.09V29.704h3.84v9.792Zm0 11.832h.99c.52 0 .87-.147 1.05-.442.18-.295.27-.725.27-1.292v-4.59c0-.612-.09-1.065-.27-1.36-.16-.317-.51-.476-1.05-.476h-.99v8.16Zm11.63-.68V55h-3.53v-4.352h3.53Zm-3.84-20.944h4.22l-1.5 20.094h-1.26l-1.46-20.094ZM3463 27l3.14 9.674h10.17l-8.22 5.979 3.14 9.673-8.23-5.979-8.23 5.98 3.14-9.674-8.22-5.98h10.17L3463 27ZM3497.89 55V29.704h4.93l1.84 13.362 1.87-13.362h4.59V55h-3.61V38.646L3505.2 55h-1.53l-2.34-16.354V55h-3.44Zm19.1-15.504h2.24c2.63 0 3.95 1.553 3.95 4.658v6.426c0 1.519-.32 2.64-.95 3.366-.64.703-1.64 1.054-3 1.054h-6.08V29.704h3.84v9.792Zm0 11.832h.99c.52 0 .87-.147 1.05-.442.18-.295.27-.725.27-1.292v-4.59c0-.612-.09-1.065-.27-1.36-.16-.317-.51-.476-1.05-.476h-.99v8.16Zm11.12-21.624V55h-3.84V29.704h3.84Zm10.03 14.178V55h-3.84V29.704h3.84v10.132h2.62V29.704h3.84V55h-3.84V43.882h-2.62ZM3553.19 55l-.51-4.76h-2.82l-.48 4.76h-3.43l3.09-25.296h4.56L3556.9 55h-3.71Zm-1.94-17.884-.98 9.35h2l-1.02-9.35ZM3562.34 55V29.704h4.93l1.83 13.362 1.87-13.362h4.59V55h-3.6V38.646L3569.65 55h-1.53l-2.35-16.354V55h-3.43Zm15.32-25.296h8.74v3.672h-4.9v6.63h3.84v3.842h-3.84v7.31h5.1V55h-8.94V29.704Zm16.69 14.79h-2.24V55h-3.84V29.704h6.08c1.38 0 2.38.329 2.99.986.64.635.96 1.7.96 3.196v5.984c0 3.083-1.32 4.624-3.95 4.624Zm-2.24-11.356v7.718h.98c.55 0 .9-.147 1.06-.442.18-.317.27-.782.27-1.394v-4.148c0-.567-.09-.997-.27-1.292-.18-.295-.53-.442-1.06-.442h-.98Zm18.43 2.108v14.11c0 3.967-1.63 5.95-4.9 5.95h-.64c-3.31 0-4.97-1.983-4.97-5.95V35.28c0-3.876 1.65-5.814 4.93-5.814h.65c1.77 0 3.03.499 3.77 1.496.77.997 1.16 2.425 1.16 4.284Zm-3.91 14.382V35.076c0-1.292-.44-1.938-1.33-1.938-.9 0-1.36.646-1.36 1.938v14.552c0 1.292.47 1.938 1.4 1.938.86 0 1.29-.646 1.29-1.938Zm5.84 5.372V29.704h10.03V55h-3.84V33.376h-2.35V55h-3.84Zm18.29-10.506h-2.25V55h-3.84V29.704h6.09c1.38 0 2.38.329 2.99.986.63.635.95 1.7.95 3.196v5.984c0 3.083-1.31 4.624-3.94 4.624Zm-2.25-11.356v7.718h.99c.54 0 .89-.147 1.05-.442.18-.317.28-.782.28-1.394v-4.148c0-.567-.1-.997-.28-1.292-.18-.295-.53-.442-1.05-.442h-.99ZM3643.07 55V41.298L3640.31 55h-3.84V29.704h3.84v13.702l2.76-13.702h3.84V55h-3.84Zm12.06-10.608h-.45L3651.86 55h-3.94l3.06-11.288c-1.41-.453-2.11-1.473-2.11-3.06v-7.038c0-1.405.32-2.403.95-2.992.64-.612 1.61-.918 2.93-.918h6.22V55h-3.84V44.392Zm0-3.672v-7.582h-1.02c-.57 0-.94.125-1.13.374-.18.25-.27.669-.27 1.258v4.148c0 1.201.47 1.802 1.4 1.802h1.02Zm5.54-11.016h10.27v3.672h-3.23V55h-3.81V33.376h-3.23v-3.672ZM3679.11 55V41.298L3676.35 55h-3.84V29.704h3.84v13.702l2.76-13.702h3.84V55h-3.84Zm12.06-10.608h-.45L3687.9 55h-3.94l3.06-11.288c-1.41-.453-2.11-1.473-2.11-3.06v-7.038c0-1.405.32-2.403.95-2.992.64-.612 1.61-.918 2.93-.918h6.22V55h-3.84V44.392Zm0-3.672v-7.582h-1.02c-.57 0-.94.125-1.13.374-.18.25-.27.669-.27 1.258v4.148c0 1.201.47 1.802 1.4 1.802h1.02Zm8.53.748-2.86-11.764h3.91l1.64 7.99 1.56-7.99h3.74l-2.89 11.764L3708.06 55h-3.97l-1.91-9.146-1.94 9.146h-3.87l3.33-13.532ZM3742 27l3.14 9.674h10.17l-8.22 5.979 3.14 9.673-8.23-5.979-8.23 5.98 3.14-9.674-8.22-5.98h10.17L3742 27ZM3777.04 55V29.704h10.03V55h-3.84V33.376h-2.35V55h-3.84Zm18.29-10.506h-2.24V55h-3.85V29.704h6.09c1.38 0 2.38.329 2.99.986.64.635.95 1.7.95 3.196v5.984c0 3.083-1.31 4.624-3.94 4.624Zm-2.24-11.356v7.718h.98c.55 0 .9-.147 1.06-.442.18-.317.27-.782.27-1.394v-4.148c0-.567-.09-.997-.27-1.292-.19-.295-.54-.442-1.06-.442h-.98ZM3807.64 55V41.298L3804.89 55h-3.84V29.704h3.84v13.702l2.75-13.702h3.84V55h-3.84Zm8.52-13.532-2.85-11.764h3.91l1.63 7.99 1.56-7.99h3.74l-2.89 11.764L3824.53 55h-3.98l-1.9-9.146-1.94 9.146h-3.88l3.33-13.532Zm20.06-6.222v14.11c0 3.967-1.63 5.95-4.9 5.95h-.64c-3.31 0-4.97-1.983-4.97-5.95V35.28c0-3.876 1.65-5.814 4.93-5.814h.65c1.77 0 3.03.499 3.77 1.496.77.997 1.16 2.425 1.16 4.284Zm-3.91 14.382V35.076c0-1.292-.44-1.938-1.33-1.938-.9 0-1.36.646-1.36 1.938v14.552c0 1.292.47 1.938 1.4 1.938.86 0 1.29-.646 1.29-1.938Zm15.29 8.942V55h-6.66v3.57h-3.5v-7.412h.85c.43-.884.75-1.95.95-3.196.34-2.267.51-8.353.51-18.258h9.66v21.454h1.7v7.412h-3.51Zm-4.76-10.506c-.13 1.11-.38 2.142-.74 3.094h3.46V33.376h-2.21c0 7.39-.17 12.285-.51 14.688ZM3859.27 55V41.298L3856.52 55h-3.85V29.704h3.85v13.702l2.75-13.702h3.84V55h-3.84Zm9.54-4.352V55h-3.53v-4.352h3.53Zm-3.84-20.944h4.22l-1.5 20.094h-1.26l-1.46-20.094ZM3904 27l3.14 9.674h10.17l-8.22 5.979 3.14 9.673-8.23-5.979-8.23 5.98 3.14-9.674-8.22-5.98h10.17L3904 27ZM3938.65 29.704h10.27v3.672h-3.23V55h-3.81V33.376h-3.23v-3.672Zm22.32 5.542v14.11c0 3.967-1.64 5.95-4.9 5.95h-.65c-3.3 0-4.96-1.983-4.96-5.95V35.28c0-3.876 1.64-5.814 4.93-5.814h.65c1.76 0 3.02.499 3.77 1.496.77.997 1.16 2.425 1.16 4.284Zm-3.91 14.382V35.076c0-1.292-.45-1.938-1.33-1.938-.91 0-1.36.646-1.36 1.938v14.552c0 1.292.47 1.938 1.39 1.938.87 0 1.3-.646 1.3-1.938ZM3962.9 55V29.704h10.03V55h-3.85V33.376h-2.34V55h-3.84Zm16.33 0V29.704h6.05c1.5 0 2.54.351 3.13 1.054.61.703.92 1.723.92 3.06v3.876c0 1.859-.63 3.026-1.9 3.502 1.47.567 2.21 1.802 2.21 3.706v5.474c0 1.428-.34 2.561-1.02 3.4-.66.816-1.68 1.224-3.06 1.224h-6.33Zm5-11.526h-1.16v7.956h1.16c.59 0 .99-.136 1.19-.408.2-.272.31-.703.31-1.292v-4.624c0-.567-.11-.975-.31-1.224-.2-.272-.6-.408-1.19-.408Zm0-10.336h-1.16V39.7h1.16c.88 0 1.33-.59 1.33-1.768v-3.196c0-.567-.11-.975-.31-1.224-.18-.25-.52-.374-1.02-.374Zm13.56 16.728v-5.882h3.77v5.848c0 3.65-1.53 5.474-4.59 5.474h-.85c-3.15 0-4.72-1.78-4.72-5.338V34.532c0-1.45.36-2.652 1.09-3.604.72-.975 1.89-1.462 3.5-1.462h.88c1 0 1.83.147 2.48.442.68.295 1.17.725 1.47 1.292.29.567.48 1.122.57 1.666.12.521.17 1.145.17 1.87v4.522h-3.77v-4.454c0-1.11-.43-1.666-1.29-1.666-.46 0-.77.136-.95.408-.16.25-.24.669-.24 1.258v15.028c0 1.156.41 1.734 1.22 1.734.84 0 1.26-.567 1.26-1.7Zm5.2-20.162h10.27v3.672h-3.23V55h-3.81V33.376h-3.23v-3.672Zm18 14.79h-2.24V55h-3.84V29.704h6.08c1.39 0 2.38.329 2.99.986.64.635.96 1.7.96 3.196v5.984c0 3.083-1.32 4.624-3.95 4.624Zm-2.24-11.356v7.718h.98c.55 0 .9-.147 1.06-.442.18-.317.27-.782.27-1.394v-4.148c0-.567-.09-.997-.27-1.292-.18-.295-.53-.442-1.06-.442h-.98Zm8.03-3.434h8.73v3.672h-4.89v6.63h3.84v3.842h-3.84v7.31h5.1V55h-8.94V29.704ZM4043.57 55V44.562c-.68.227-1.46.34-2.34.34h-.04c-1.38 0-2.41-.363-3.09-1.088-.66-.725-.99-1.711-.99-2.958V29.704h3.84v9.486c0 .725.11 1.213.31 1.462.2.25.54.374 1.02.374h.07c.56 0 .97-.068 1.22-.204V29.704h3.84V55h-3.84Zm12.54 0V41.298L4053.36 55h-3.84V29.704h3.84v13.702l2.75-13.702h3.85V55h-3.85ZM4095 27l3.14 9.674h10.17l-8.22 5.979 3.14 9.673-8.23-5.979-8.23 5.98 3.14-9.674-8.22-5.98h10.17L4095 27ZM4136.8 55V33.376h-2.25c0 9.044-.11 14.926-.34 17.646-.09 1.36-.44 2.369-1.05 3.026-.59.635-1.58.952-2.96.952h-.95v-3.91h.27c.43 0 .72-.125.88-.374.16-.25.26-.691.31-1.326.16-1.519.24-8.08.24-19.686h9.69V55h-3.84Zm15.48-25.296-3.68 21.964c-.2 1.247-.52 2.12-.95 2.618-.43.476-1.13.714-2.11.714h-2.48v-3.91h.89c.2 0 .36-.034.47-.102a.493.493 0 0 0 .27-.272c.05-.113.09-.26.14-.442l.1-.782c.07-.408.02-1.088-.13-2.04l-2.86-17.748h3.91l1.43 11.186 1.36-11.186h3.64ZM4159.82 55V44.562c-.68.227-1.46.34-2.35.34h-.03c-1.38 0-2.41-.363-3.09-1.088-.66-.725-.99-1.711-.99-2.958V29.704h3.84v9.486c0 .725.1 1.213.31 1.462.2.25.54.374 1.02.374h.07c.56 0 .97-.068 1.22-.204V29.704h3.84V55h-3.84Zm5.94 0V29.704h3.85v21.454h2.17V29.704h3.84v21.454h2.18V29.704h3.84V55h-15.88Zm24.58 0V41.298L4187.59 55h-3.85V29.704h3.85v13.702l2.75-13.702h3.84V55h-3.84Zm6.01-25.296h8.73v3.672h-4.89v6.63h3.84v3.842h-3.84v7.31h5.1V55h-8.94V29.704Zm21.03 20.162v-5.882h3.77v5.848c0 3.65-1.53 5.474-4.59 5.474h-.85c-3.15 0-4.73-1.78-4.73-5.338V34.532c0-1.45.37-2.652 1.09-3.604.73-.975 1.89-1.462 3.5-1.462h.89c1 0 1.82.147 2.48.442.68.295 1.17.725 1.46 1.292.3.567.49 1.122.58 1.666.11.521.17 1.145.17 1.87v4.522h-3.77v-4.454c0-1.11-.43-1.666-1.3-1.666-.45 0-.77.136-.95.408-.16.25-.24.669-.24 1.258v15.028c0 1.156.41 1.734 1.23 1.734.84 0 1.26-.567 1.26-1.7Zm5.61 5.134V29.704h10.03V55h-3.85V33.376h-2.34V55h-3.84Zm18.73 0V41.298L4238.96 55h-3.84V29.704h3.84v13.702l2.76-13.702h3.84V55h-3.84Zm12.97 0-3.19-10.982V55h-3.84V29.704h3.84v10.132l3.02-10.132h3.74l-3.57 11.764L4258.64 55h-3.95Zm5.2-25.296h8.74v3.672h-4.9v6.63h3.85v3.842h-3.85v7.31h5.1V55h-8.94V29.704Zm16.7 14.79h-2.25V55h-3.84V29.704h6.09c1.38 0 2.38.329 2.99.986.63.635.95 1.7.95 3.196v5.984c0 3.083-1.32 4.624-3.94 4.624Zm-2.25-11.356v7.718h.99c.54 0 .89-.147 1.05-.442.18-.317.27-.782.27-1.394v-4.148c0-.567-.09-.997-.27-1.292-.18-.295-.53-.442-1.05-.442h-.99Zm11.8 6.358h2.25c2.63 0 3.94 1.553 3.94 4.658v6.426c0 1.519-.32 2.64-.95 3.366-.64.703-1.63 1.054-2.99 1.054h-6.09V29.704h3.84v9.792Zm0 11.832h.99c.52 0 .87-.147 1.05-.442.18-.295.27-.725.27-1.292v-4.59c0-.612-.09-1.065-.27-1.36-.16-.317-.51-.476-1.05-.476h-.99v8.16Zm11.12-21.624V55h-3.84V29.704h3.84ZM4332 27l3.14 9.674h10.17l-8.22 5.979 3.14 9.673-8.23-5.979-8.23 5.98 3.14-9.674-8.22-5.98h10.17L4332 27ZM4376.5 29.704l-3.67 21.964c-.21 1.247-.52 2.12-.95 2.618-.44.476-1.14.714-2.11.714h-2.48v-3.91h.88c.2 0 .36-.034.48-.102a.568.568 0 0 0 .27-.272c.04-.113.09-.26.13-.442l.11-.782c.06-.408.02-1.088-.14-2.04l-2.86-17.748h3.91l1.43 11.186 1.36-11.186h3.64Zm7.64 20.162v-5.882h3.78v5.848c0 3.65-1.53 5.474-4.59 5.474h-.85c-3.15 0-4.73-1.78-4.73-5.338V34.532c0-1.45.37-2.652 1.09-3.604.73-.975 1.89-1.462 3.5-1.462h.89c.99 0 1.82.147 2.48.442.68.295 1.17.725 1.46 1.292.3.567.49 1.122.58 1.666.11.521.17 1.145.17 1.87v4.522h-3.78v-4.454c0-1.11-.43-1.666-1.29-1.666-.45 0-.77.136-.95.408-.16.25-.24.669-.24 1.258v15.028c0 1.156.41 1.734 1.23 1.734.84 0 1.25-.567 1.25-1.7Zm5.62 5.134V29.704h10.03V55h-3.85V33.376h-2.34V55h-3.84Zm12.2-25.296h8.74v3.672h-4.9v6.63h3.84v3.842h-3.84v7.31h5.1V55h-8.94V29.704ZM4419.09 55V41.298L4416.34 55h-3.84V29.704h3.84v13.702l2.75-13.702h3.85V55h-3.85Zm-1.36-26.18h-.1c-.99 0-1.81-.283-2.45-.85-.61-.567-.91-1.349-.91-2.346v-.204h2.61v.136c0 .612.27.918.79.918h.03c.54 0 .82-.306.82-.918v-.136h2.58v.204c0 .997-.33 1.78-.99 2.346-.65.567-1.45.85-2.38.85Zm15.01 5.848v4.012h-3.78v-4.284c0-1.473.38-2.663 1.12-3.57.75-.907 1.85-1.36 3.3-1.36h.78c1.66 0 2.85.374 3.57 1.122.73.748 1.09 1.87 1.09 3.366v4.216c0 1.723-.63 2.845-1.9 3.366 1.47.453 2.21 1.689 2.21 3.706v5.406c0 1.315-.38 2.425-1.12 3.332-.75.884-1.92 1.326-3.51 1.326h-1.02c-1.4 0-2.51-.442-3.33-1.326-.79-.884-1.19-1.893-1.19-3.026v-5.542h3.78v4.794c0 .907.41 1.36 1.25 1.36.82 0 1.23-.453 1.23-1.36v-5.134c0-.816-.4-1.224-1.19-1.224h-1.74v-3.842h1.74c.59 0 .88-.612.88-1.836v-3.502c0-1.02-.36-1.53-1.09-1.53-.72 0-1.08.51-1.08 1.53ZM4447.53 55l-.51-4.76h-2.82l-.48 4.76h-3.43l3.09-25.296h4.56L4451.23 55h-3.7Zm-1.94-17.884-.99 9.35h2.01l-1.02-9.35ZM4452.47 55V29.704h9.28v3.672h-5.44v6.12h2.25c2.63 0 3.94 1.553 3.94 4.658v6.426c0 1.519-.32 2.64-.95 3.366-.63.703-1.63 1.054-2.99 1.054h-6.09Zm3.84-3.672h.99c.52 0 .87-.147 1.05-.442.19-.295.28-.725.28-1.292v-4.59c0-.612-.09-1.065-.28-1.36-.15-.317-.51-.476-1.05-.476h-.99v8.16Zm14.22-6.834h-2.25V55h-3.84V29.704h6.09c1.38 0 2.38.329 2.99.986.64.635.95 1.7.95 3.196v5.984c0 3.083-1.31 4.624-3.94 4.624Zm-2.25-11.356v7.718h.99c.54 0 .9-.147 1.05-.442.19-.317.28-.782.28-1.394v-4.148c0-.567-.09-.997-.28-1.292-.18-.295-.53-.442-1.05-.442h-.99Zm18.44 2.108v14.11c0 3.967-1.64 5.95-4.9 5.95h-.65c-3.3 0-4.96-1.983-4.96-5.95V35.28c0-3.876 1.64-5.814 4.93-5.814h.65c1.76 0 3.02.499 3.77 1.496.77.997 1.16 2.425 1.16 4.284Zm-3.91 14.382V35.076c0-1.292-.45-1.938-1.33-1.938-.91 0-1.36.646-1.36 1.938v14.552c0 1.292.47 1.938 1.39 1.938.87 0 1.3-.646 1.3-1.938Zm9.68-5.746V55h-3.84V29.704h3.84v10.132h2.62V29.704h3.84V55h-3.84V43.882h-2.62ZM4507.64 55V41.298L4504.89 55h-3.84V29.704h3.84v13.702l2.75-13.702h3.84V55h-3.84Zm12.09-10.506h-2.24V55h-3.84V29.704h6.08c1.39 0 2.38.329 3 .986.63.635.95 1.7.95 3.196v5.984c0 3.083-1.32 4.624-3.95 4.624Zm-2.24-11.356v7.718h.99c.54 0 .89-.147 1.05-.442.18-.317.27-.782.27-1.394v-4.148c0-.567-.09-.997-.27-1.292-.18-.295-.53-.442-1.05-.442h-.99Zm18.43 2.108v14.11c0 3.967-1.63 5.95-4.9 5.95h-.64c-3.31 0-4.97-1.983-4.97-5.95V35.28c0-3.876 1.65-5.814 4.93-5.814h.65c1.77 0 3.03.499 3.77 1.496.78.997 1.16 2.425 1.16 4.284Zm-3.91 14.382V35.076c0-1.292-.44-1.938-1.33-1.938-.9 0-1.36.646-1.36 1.938v14.552c0 1.292.47 1.938 1.4 1.938.86 0 1.29-.646 1.29-1.938Zm5.91 5.372V29.704h6.05c1.5 0 2.54.351 3.13 1.054.61.703.92 1.723.92 3.06v3.876c0 1.859-.64 3.026-1.91 3.502 1.47.567 2.21 1.802 2.21 3.706v5.474c0 1.428-.34 2.561-1.02 3.4-.66.816-1.68 1.224-3.06 1.224h-6.32Zm5-11.526h-1.16v7.956h1.16c.58 0 .98-.136 1.19-.408.2-.272.3-.703.3-1.292v-4.624c0-.567-.1-.975-.3-1.224-.21-.272-.61-.408-1.19-.408Zm0-10.336h-1.16V39.7h1.16c.88 0 1.32-.59 1.32-1.768v-3.196c0-.567-.1-.975-.3-1.224-.19-.25-.53-.374-1.02-.374ZM4556.61 55l-.51-4.76h-2.82l-.48 4.76h-3.43l3.09-25.296h4.56l3.3 25.296h-3.71Zm-1.94-17.884-.98 9.35h2l-1.02-9.35Zm4.88-7.412h10.27v3.672h-3.23V55h-3.81V33.376h-3.23v-3.672Zm15.69 9.792h2.25c2.62 0 3.94 1.553 3.94 4.658v6.426c0 1.519-.32 2.64-.95 3.366-.64.703-1.63 1.054-2.99 1.054h-6.09V29.704h3.84v9.792Zm0 11.832h.99c.52 0 .87-.147 1.05-.442.18-.295.27-.725.27-1.292v-4.59c0-.612-.09-1.065-.27-1.36-.16-.317-.51-.476-1.05-.476h-.99v8.16Zm11.63-.68V55h-3.53v-4.352h3.53Zm-3.84-20.944h4.22l-1.5 20.094h-1.26l-1.46-20.094ZM4622 27l3.14 9.674h10.17l-8.22 5.979 3.14 9.673-8.23-5.979-8.23 5.98 3.14-9.674-8.22-5.98h10.17L4622 27Z"/></g></g><defs><clipPath id="a"><path fill="#fff" d="M0 0h4656v85H0z"/></clipPath></defs></svg>